<svg version="1.1" id="Layer_1" xmlns="http://www.w3.org/2000/svg" xmlns:xlink="http://www.w3.org/1999/xlink" x="0px" y="0px"
	 width="100%" viewBox="0 0 112 48" enable-background="new 0 0 112 48" xml:space="preserve">
<path fill="#000000" opacity="1.000000" stroke="none" 
	d="
M31.468658,49.000000 
	C21.923235,47.034386 17.576067,39.845589 13.096604,32.798199 
	C12.170370,31.340982 11.676432,29.979132 12.453757,28.153868 
	C17.533386,16.226227 24.357254,11.676288 37.461430,11.675478 
	C51.936947,11.674583 66.415871,11.864854 80.886536,11.600754 
	C88.117455,11.468784 93.346657,14.247588 97.207108,20.185740 
	C105.172348,32.437893 104.534851,28.132372 97.512177,39.336842 
	C94.581520,44.012623 90.397552,46.628494 85.261322,48.778236 
	C67.312439,49.000000 49.624878,49.000000 31.468658,49.000000 
M30.612610,44.283249 
	C46.870674,45.904919 63.170380,44.967846 79.445740,44.880722 
	C89.028259,44.829422 94.988022,38.397896 94.796204,29.566402 
	C94.610039,20.995373 88.535378,15.152400 79.128723,15.051705 
	C64.661980,14.896847 50.191002,14.944550 35.723850,15.097942 
	C27.798262,15.181975 21.882994,19.674212 20.436815,26.206762 
	C18.763380,33.765873 22.275328,40.399685 30.612610,44.283249 
z"/>
<path fill="#000000" opacity="1.000000" stroke="none" 
	d="
M58.683384,25.763306 
	C59.654915,23.922066 59.610741,21.612677 61.664223,21.052677 
	C64.516418,20.274870 67.132607,20.438791 67.160378,24.452011 
	C67.184547,27.944529 67.230316,31.438635 67.151001,34.929413 
	C67.109840,36.740780 67.134552,38.937149 64.603882,39.050068 
	C61.627670,39.182861 61.897728,36.749729 61.763336,34.789646 
	C61.706841,33.965698 61.753929,33.134655 61.753929,31.599617 
	C58.783894,36.192406 56.160046,35.050827 53.742710,31.743011 
	C52.403072,34.156303 55.107281,38.786682 51.098259,38.797264 
	C46.632172,38.809052 48.934193,34.168449 48.398674,31.619024 
	C47.895985,29.225901 48.132938,26.653971 48.224747,24.167376 
	C48.289566,22.411879 48.876678,20.897470 51.075203,20.771614 
	C53.007088,20.661026 54.540337,20.869062 55.628029,22.921101 
	C56.249088,24.092777 55.526958,27.018192 58.683384,25.763306 
z"/>
<path fill="#000000" opacity="1.000000" stroke="none" 
	d="
M36.222786,39.306145 
	C29.833754,37.942730 26.878826,34.614525 27.163551,29.571791 
	C27.444532,24.595335 30.718821,21.167767 35.620750,20.718681 
	C42.071663,20.127691 45.285091,22.167618 46.715282,27.845808 
	C44.618114,29.622124 42.871033,28.827368 41.106098,27.180901 
	C38.706875,24.942715 36.087910,24.478405 33.641006,27.014751 
	C31.921524,28.797089 31.804150,30.943842 33.503166,32.854809 
	C35.871212,35.518272 38.471577,35.120590 40.961624,33.014431 
	C42.737652,31.512213 44.474957,30.492920 46.640690,32.213764 
	C45.523689,37.669563 43.637428,38.996944 36.222786,39.306145 
z"/>
<path fill="#000000" opacity="1.000000" stroke="none" 
	d="
M87.042969,38.545475 
	C81.958450,39.770149 77.139084,39.101501 72.342499,39.244217 
	C69.817375,39.319351 68.744293,37.988796 68.761787,35.557240 
	C68.789261,31.738445 68.749435,27.918995 68.799164,24.100616 
	C68.819504,22.538719 69.096237,21.023958 71.138000,20.929340 
	C73.428009,20.823219 73.743958,22.459747 74.006676,24.199299 
	C74.494637,27.430391 72.631073,31.416580 75.125084,33.773071 
	C77.567451,36.080757 81.502693,34.338039 84.755638,34.734501 
	C86.925728,34.998978 88.312752,35.726273 87.042969,38.545475 
z"/>
</svg>