<?xml version="1.0" standalone="no"?>
<!DOCTYPE svg PUBLIC "-//W3C//DTD SVG 20010904//EN"
 "http://www.w3.org/TR/2001/REC-SVG-20010904/DTD/svg10.dtd">
<svg version="1.0" xmlns="http://www.w3.org/2000/svg"
 width="200.000000pt" height="200.000000pt" viewBox="0 0 200.000000 200.000000"
 preserveAspectRatio="xMidYMid meet">

<g transform="translate(0.000000,200.000000) scale(0.100000,-0.100000)"
fill="#000000" stroke="none">
<path d="M1034 1961 c-78 -47 -156 -231 -199 -468 -38 -207 -85 -542 -85 -611
0 -48 -3 -54 -32 -72 -43 -26 -128 -26 -232 0 -91 23 -86 22 -86 12 0 -5 19
-15 43 -21 65 -20 146 -61 182 -93 89 -77 58 -178 -86 -284 -58 -42 -64 -62
-12 -35 102 51 248 66 331 33 96 -38 233 -173 324 -318 l46 -75 -1 79 c-1 95
27 163 82 199 44 30 134 31 222 3 63 -19 91 -18 54 2 -41 23 -109 95 -126 133
-24 52 -23 89 1 144 25 54 20 63 -12 21 -37 -51 -101 -83 -152 -78 -23 3 -55
13 -70 23 l-27 18 22 20 c49 46 101 208 120 377 16 132 4 439 -21 580 -60 330
-167 484 -286 411z m128 -35 c45 -44 85 -136 119 -273 38 -153 53 -330 46
-562 -4 -157 -8 -201 -30 -282 -51 -195 -119 -271 -186 -208 -72 67 -130 199
-166 379 -31 151 -38 170 -64 170 -29 0 -37 -18 -55 -125 -29 -169 -37 -205
-47 -205 -15 0 -10 135 10 280 63 446 97 596 169 735 41 79 60 101 101 118 43
18 64 12 103 -27z m-247 -874 c25 -173 72 -312 145 -417 32 -46 74 -75 109
-75 11 0 37 -10 57 -22 50 -29 119 -29 169 0 l37 23 -6 -24 c-8 -35 18 -114
53 -157 l30 -38 -77 5 c-68 4 -82 2 -122 -19 -53 -29 -89 -90 -99 -169 l-6
-52 -65 88 c-114 154 -239 245 -356 260 -46 6 -150 -6 -191 -22 -9 -4 2 12 25
35 59 59 75 95 69 155 -4 44 -10 56 -49 91 -24 23 -53 46 -63 53 -17 10 -8 12
53 12 44 1 84 7 102 16 18 9 31 11 35 5 11 -18 25 -11 36 17 5 15 19 84 31
153 11 69 25 136 30 150 l10 25 18 -23 c10 -13 22 -44 25 -70z"/>
<path d="M671 991 c-20 -20 -41 -79 -41 -114 0 -29 19 -57 39 -57 52 0 87 128
48 178 -13 17 -24 15 -46 -7z m45 -74 c-9 -56 -27 -83 -51 -73 -14 5 -17 15
-13 51 3 25 13 57 23 71 15 24 19 25 32 11 12 -11 14 -26 9 -60z"/>
<path d="M1363 753 c-71 -45 -106 -139 -67 -178 18 -18 57 -14 83 8 21 18 61
108 61 139 0 21 -21 58 -34 58 -1 0 -20 -12 -43 -27z m57 -35 c0 -43 -35 -112
-64 -128 -85 -45 -69 98 16 150 38 23 48 19 48 -22z"/>
</g>
</svg>
