<svg xmlns="http://www.w3.org/2000/svg" xmlns:v="https://svgstorm.com"
viewBox = "0 0 225 225"
width="225"
height="225">
<g fill="None" fill-opacity="0.0" stroke="#FDFDFD" stroke-opacity="1.00" stroke-width="0.3"><path d="
M 0.00 225.00 
L 225.00 225.00
L 225.00 0.00
L 0.00 0.00
L 0.00 225.00
M 116.00 64.00 
C 116.40 65.48 117.26 66.88 117.00 69.00
C 116.94 69.49 117.00 70.00 117.00 70.00
C 117.00 71.86 116.62 74.18 117.00 76.00
C 117.02 76.10 118.00 76.00 118.00 76.00
C 118.00 73.03 118.77 69.89 121.00 68.00
C 121.44 70.33 119.76 72.02 119.00 74.00
C 119.20 73.76 120.00 74.00 120.00 74.00
C 122.38 72.52 124.61 73.77 126.00 76.00
C 126.39 76.21 127.00 76.00 127.00 76.00
C 127.30 73.72 126.87 71.30 127.00 69.00
C 127.09 67.34 126.93 65.66 127.00 64.00
C 128.75 64.83 127.66 67.44 128.00 69.00
C 128.31 74.03 127.24 79.33 129.00 84.00
C 131.08 81.90 129.50 77.85 130.00 75.00
C 133.23 77.75 128.17 85.88 133.00 87.00
C 133.75 84.09 133.10 82.10 133.00 79.00
C 136.47 78.86 134.44 83.85 135.00 86.00
C 137.56 79.34 137.19 88.13 142.00 88.00
C 140.35 86.08 139.12 81.43 143.00 84.00
C 143.56 81.48 141.81 77.70 144.00 76.00
C 145.96 78.51 145.04 80.92 147.00 84.00
C 149.34 83.40 146.68 76.31 149.00 78.00
C 152.01 81.01 148.93 88.02 149.00 91.00
C 149.28 93.30 148.13 96.96 152.00 96.00
C 148.62 90.83 153.46 94.42 155.00 97.00
C 155.00 91.33 155.00 85.67 155.00 80.00
C 157.90 87.02 154.11 96.67 157.00 104.00
C 159.92 95.98 156.09 85.33 159.00 77.00
C 161.24 85.55 159.08 94.78 160.00 104.00
C 162.59 102.36 159.34 97.57 162.00 96.00
C 163.99 107.05 165.83 95.85 165.00 90.00
C 167.60 95.10 164.52 102.52 167.00 108.00
C 170.85 108.52 167.39 102.94 170.00 102.00
C 169.41 104.91 171.59 107.06 171.00 110.00
C 175.06 109.07 172.08 102.30 173.00 99.00
C 175.45 101.45 172.63 106.20 175.00 109.00
C 176.23 107.27 176.91 104.00 176.00 102.00
C 179.31 107.96 179.33 124.04 176.00 130.00
C 176.70 125.88 176.52 119.89 175.00 116.00
C 173.41 117.97 174.20 120.66 174.00 123.00
C 174.03 123.50 174.00 124.50 174.00 125.00
C 174.00 126.67 174.00 128.33 174.00 130.00
C 174.00 132.84 174.79 136.98 173.00 139.00
C 171.13 134.12 171.74 127.93 173.00 123.00
C 173.22 120.55 173.62 116.65 172.00 115.00
C 169.46 119.03 169.93 124.11 170.00 129.00
C 170.00 134.56 171.60 143.85 168.00 147.00
C 169.10 141.26 167.50 135.57 168.00 129.00
C 168.00 124.83 168.82 119.34 167.00 116.00
C 165.40 120.53 167.06 130.23 165.00 132.00
C 163.10 130.10 164.38 126.62 164.00 124.00
C 162.10 126.26 163.51 130.27 162.00 133.00
C 161.74 135.98 162.20 139.02 162.00 142.00
C 159.92 139.90 161.50 135.85 161.00 133.00
C 161.00 131.67 161.00 130.33 161.00 129.00
C 160.99 125.90 162.10 122.77 160.00 125.00
C 162.77 127.95 158.76 141.07 159.00 144.00
C 156.73 138.91 158.62 131.84 158.00 126.00
C 157.82 124.21 158.98 120.64 156.00 121.00
C 156.00 124.33 156.00 127.67 156.00 131.00
C 155.90 131.49 155.24 132.58 155.00 133.00
C 155.01 134.65 157.82 139.42 155.00 141.00
C 152.53 139.61 155.85 137.10 155.00 135.00
C 154.92 133.74 153.02 130.97 154.00 129.00
C 152.98 129.20 152.09 133.18 151.00 131.00
C 151.02 131.00 151.18 126.53 149.00 128.00
C 149.00 131.00 149.00 134.00 149.00 137.00
C 144.04 135.39 146.46 148.36 145.00 153.00
C 144.34 149.15 141.76 144.92 143.00 141.00
C 140.86 139.83 136.60 138.89 140.00 136.00
C 133.44 130.43 135.46 143.63 133.00 141.00
C 132.60 140.80 131.08 140.81 131.00 141.00
C 130.84 144.99 131.12 149.00 131.00 153.00
C 128.81 149.91 130.57 144.84 130.00 141.00
C 127.97 140.36 127.94 142.69 128.00 144.00
C 127.76 144.45 127.10 151.27 125.00 148.00
C 123.25 145.28 128.31 138.69 124.00 137.00
C 120.39 143.63 121.93 150.67 121.00 158.00
C 120.16 153.85 117.42 150.86 118.00 146.00
C 115.74 150.75 117.62 157.49 117.00 163.00
C 115.68 158.92 114.87 153.33 116.00 149.00
C 113.44 150.76 113.95 154.25 110.00 152.00
C 110.67 154.61 108.66 156.45 109.00 159.00
C 108.73 160.62 109.20 162.37 109.00 164.00
C 107.25 163.17 108.34 160.56 108.00 159.00
C 107.75 155.02 108.18 150.99 108.00 147.00
C 107.24 151.53 104.67 154.93 105.00 160.00
C 102.56 153.24 105.02 145.18 101.00 139.00
C 98.41 140.77 99.60 144.99 100.00 148.00
C 97.50 147.02 96.55 144.54 97.00 142.00
C 92.96 144.62 95.90 150.87 95.00 155.00
C 92.79 151.58 94.58 146.18 94.00 142.00
C 94.00 141.96 93.00 142.00 93.00 142.00
C 89.77 141.04 92.23 137.42 90.00 136.00
C 82.90 138.44 81.44 146.41 81.00 154.00
C 77.94 149.69 82.47 133.57 76.00 139.00
C 75.68 135.66 76.84 131.94 75.00 129.00
C 73.73 130.62 73.29 134.97 73.00 130.00
C 70.97 129.36 70.94 131.69 71.00 133.00
C 72.14 136.06 69.13 139.75 71.00 143.00
C 66.35 140.79 71.12 135.09 69.00 132.00
C 68.92 128.81 69.86 124.36 68.00 122.00
C 65.75 129.17 67.61 137.41 67.00 145.00
C 65.97 147.17 64.83 140.28 65.00 138.00 C 65.17 135.72 65.79 128.41 65.00 126.00
C 63.41 124.41 64.00 129.69 64.00 131.00
C 64.00 132.33 64.00 133.67 64.00 135.00
C 64.00 137.67 64.00 140.33 64.00 143.00
C 61.97 141.23 63.47 137.52 63.00 135.00
C 62.71 131.73 62.00 128.56 62.00 125.00
C 60.74 127.95 61.51 131.84 60.00 135.00
C 57.81 131.91 59.57 126.84 59.00 123.00
C 58.79 121.09 58.13 118.32 57.00 117.00
C 57.00 125.00 57.00 133.00 57.00 141.00
C 56.96 143.20 57.79 146.61 56.00 148.00
C 53.71 141.91 55.63 133.84 55.00 127.00
C 54.92 122.94 54.75 119.55 53.00 116.00
C 50.84 118.76 52.55 123.49 52.00 127.00
C 52.07 127.85 54.61 131.24 52.00 132.00
C 49.27 127.95 52.70 121.38 50.00 117.00
C 47.97 118.77 49.47 122.48 49.00 125.00
C 48.96 127.20 49.79 130.61 48.00 132.00
C 46.96 123.55 45.06 110.62 49.00 103.00
C 49.00 104.00 49.00 105.00 49.00 106.00
C 50.69 110.24 49.54 112.24 51.00 106.00
C 53.09 107.20 50.76 111.44 54.00 112.00
C 54.90 108.17 54.28 103.23 56.00 100.00
C 56.21 103.01 57.56 105.77 57.00 109.00
C 61.30 105.12 57.93 97.41 59.00 92.00
C 59.83 86.01 60.77 102.54 61.00 103.00
C 63.74 105.69 62.95 99.38 63.00 98.00
C 65.03 99.77 63.53 103.48 64.00 106.00
C 67.11 97.19 63.61 87.55 66.00 79.00
C 68.96 86.59 65.03 97.48 68.00 105.00
C 70.96 98.08 67.03 87.85 70.00 81.00
C 69.90 86.43 71.71 91.40 71.00 97.00
C 72.26 96.92 71.56 94.94 73.00 95.00
C 70.77 92.24 72.60 88.88 73.00 86.00
C 73.27 84.04 72.79 81.97 73.00 80.00
C 74.87 81.14 73.61 84.13 74.00 86.00
C 73.79 89.47 73.79 91.48 74.00 95.00
C 74.21 95.77 74.25 97.31 76.00 97.00
C 76.00 91.00 76.00 85.00 76.00 79.00
C 78.33 80.23 75.52 88.46 79.00 84.00
C 79.89 81.29 78.34 77.78 79.00 75.00
C 80.98 75.47 78.89 78.60 81.00 79.00
C 81.68 79.95 83.56 82.90 82.00 87.00
C 84.41 82.75 85.61 85.42 84.00 89.00
C 85.77 87.48 88.76 87.01 88.00 84.00
C 89.70 87.64 91.78 83.54 91.00 81.00
C 93.50 82.33 90.43 86.74 93.00 88.00
C 95.19 84.91 93.43 79.84 94.00 76.00
C 96.72 78.28 93.23 83.79 96.00 86.00
C 97.77 81.06 96.72 75.33 97.00 70.00
C 97.10 68.34 96.92 66.66 97.00 65.00
C 98.59 67.99 99.12 72.21 99.00 76.00
C 100.29 72.96 100.68 68.96 103.00 74.00
C 104.10 74.62 104.15 76.48 106.00 76.00
C 106.65 70.22 106.43 76.75 108.00 78.00
C 107.67 72.48 108.21 67.24 109.00 62.00
C 111.22 65.75 109.41 71.49 110.00 76.00
C 112.81 76.87 111.19 71.63 114.00 74.00
C 116.27 70.27 114.37 64.49 115.00 60.00
C 116.60 60.53 115.72 62.75 116.00 64.00
M 114.00 66.00 
C 113.98 66.09 112.90 68.03 113.00 68.00
C 112.96 69.22 114.99 71.64 112.00 72.00
C 112.00 71.00 112.00 70.00 112.00 69.00
C 109.72 68.73 111.66 65.59 112.00 65.00
C 111.85 64.29 113.41 63.03 114.00 63.00
C 114.00 64.00 114.00 65.00 114.00 66.00
M 152.00 82.00 
C 152.05 82.96 151.82 84.06 152.00 85.00
C 152.37 86.99 154.93 91.95 151.00 92.00
C 151.49 89.33 151.46 87.73 151.00 85.00
C 150.94 83.02 150.91 80.98 151.00 79.00
C 151.08 77.34 150.94 75.66 151.00 74.00
C 151.90 75.88 154.28 80.16 152.00 82.00
M 169.00 84.00 
C 171.59 89.42 168.75 95.67 170.00 101.00
C 166.83 96.47 167.91 88.95 169.00 84.00
M 57.00 87.00 
C 57.56 88.49 57.02 91.39 57.00 93.00
C 56.97 95.20 57.78 98.61 56.00 100.00
C 55.68 96.83 52.88 86.07 57.00 87.00
M 181.00 95.00 
C 183.10 97.35 183.61 101.68 184.00 104.00
C 184.84 109.01 184.00 114.91 184.00 120.00
C 184.00 120.50 184.00 121.50 184.00 122.00
C 184.00 124.33 184.00 126.67 184.00 129.00
C 184.00 131.67 184.00 134.33 184.00 137.00
C 181.72 137.46 179.24 136.89 180.00 134.00
C 178.77 130.01 180.64 124.07 180.00 120.00 C 179.36 115.93 180.56 108.67 180.00 105.00 C 179.44 101.33 180.43 91.95 181.00 95.00
M 44.00 135.00 
C 43.99 134.92 43.00 135.00 43.00 135.00
C 42.75 136.39 43.38 138.45 41.00 138.00
C 41.00 136.67 41.00 135.33 41.00 134.00
C 40.97 133.00 41.00 132.00 41.00 131.00
C 41.00 128.00 41.00 125.00 41.00 122.00
C 41.00 116.79 40.39 111.17 41.00 106.00
C 41.34 103.17 43.06 102.82 43.00 103.00
C 42.94 101.12 41.25 97.15 44.00 96.00
C 43.18 98.50 46.11 108.72 45.00 115.00 C 43.89 121.28 45.84 131.38 45.00 138.00
C 43.61 137.74 44.22 135.95 44.00 135.00
M 187.00 124.00 
C 186.45 126.93 185.21 116.75 186.00 113.00 C 186.79 109.25 184.79 100.95 186.00 97.00
C 186.21 95.71 186.24 94.76 188.00 95.00
C 187.33 104.50 189.33 115.33 187.00 124.00
M 39.00 98.00 
C 39.00 108.00 39.00 118.00 39.00 128.00
C 37.35 119.07 37.32 106.85 39.00 98.00
M 198.00 133.00 
C 196.71 122.94 196.13 109.88 198.00 99.00
C 199.97 109.44 199.23 122.19 198.00 133.00
M 28.00 120.00 
C 28.00 122.00 28.00 124.00 28.00 126.00
C 28.00 129.00 28.00 132.00 28.00 135.00
C 24.76 124.58 25.80 111.30 27.00 100.00
C 29.28 105.75 27.37 113.49 28.00 120.00
M 35.00 101.00 
C 38.14 104.80 31.61 103.75 35.00 101.00
M 24.00 110.00 
C 23.88 111.31 24.00 112.69 24.00 114.00
C 24.59 118.31 25.64 123.99 25.00 129.00
C 17.96 123.90 24.03 110.87 23.00 104.00
C 23.88 105.26 26.22 108.75 24.00 110.00
M 191.00 104.00 
C 191.00 113.00 191.00 122.00 191.00 131.00
C 189.35 123.08 189.32 111.85 191.00 104.00
M 194.00 130.00 
C 193.30 127.45 194.00 123.67 194.00 121.00
C 194.00 120.50 194.00 120.00 194.00 120.00
C 194.00 116.56 192.53 109.03 194.00 106.00
C 195.53 102.85 196.00 116.88 196.00 119.00 C 196.00 121.12 195.27 134.60 194.00 130.00
M 35.00 131.00 
C 34.35 134.47 33.62 127.12 34.00 124.00 C 34.38 120.88 33.65 114.42 34.00 111.00
C 34.18 109.21 33.02 105.64 36.00 106.00
C 35.34 114.17 37.33 123.66 35.00 131.00
M 30.00 132.00 
C 27.69 124.79 30.90 113.63 31.00 107.00
C 33.31 115.09 31.35 125.16 32.00 134.00
C 31.17 133.59 30.13 133.03 30.00 132.00
M 202.00 114.00 
C 202.25 115.34 202.32 128.78 201.00 126.00
C 198.81 121.37 202.65 113.89 201.00 109.00
C 202.75 109.83 201.66 112.44 202.00 114.00
M 206.00 122.00 
C 205.99 123.92 207.05 124.99 206.00 127.00
C 204.38 122.41 204.30 114.52 206.00 110.00
C 206.35 108.93 206.21 120.27 206.00 122.00
M 19.00 111.00 
C 22.34 114.34 18.58 122.64 20.00 127.00
C 18.61 126.74 19.22 124.95 19.00 124.00
C 18.39 122.12 17.70 109.70 19.00 111.00
M 210.00 112.00 
C 210.82 113.69 209.83 125.39 209.00 121.00
C 208.08 119.15 208.45 108.80 210.00 112.00
M 217.00 116.00 
C 217.10 117.31 217.40 119.76 217.00 121.00
C 216.35 122.98 212.76 113.49 216.00 112.00
C 217.60 112.53 216.72 114.75 217.00 116.00
M 9.00 113.00 
C 10.58 115.91 10.49 120.10 9.00 123.00
C 7.46 120.72 7.28 115.21 9.00 113.00
M 16.00 125.00 
C 14.43 122.06 14.29 115.87 16.00 113.00
C 18.09 116.19 16.93 121.40 16.00 125.00
M 213.00 113.00 
C 214.39 116.14 213.12 119.37 214.00 123.00
C 210.83 121.41 211.47 115.23 213.00 113.00
M 12.00 123.00 
C 11.32 120.03 11.37 118.03 12.00 115.00
C 13.50 116.64 13.72 121.43 12.00 123.00
M 7.00 117.00 
C 8.56 123.97 1.73 118.19 7.00 117.00
M 3.00 118.00 
C 3.81 118.81 2.69 121.77 1.29 120.63 C -0.10 119.50 2.10 117.10 3.00 118.00
M 38.00 139.00 
C 37.69 137.06 37.41 132.86 38.00 131.00
C 38.15 130.13 39.17 129.16 40.00 129.00
C 39.58 132.98 40.99 137.44 39.00 141.00
C 38.25 140.78 36.26 139.39 38.00 139.00
M 187.00 129.00 
C 187.00 132.00 187.00 135.00 187.00 138.00
C 185.48 136.04 185.28 130.89 187.00 129.00
M 52.00 141.00 
C 50.19 139.17 50.77 135.20 52.00 133.00
C 53.81 134.83 53.23 138.80 52.00 141.00
M 166.00 140.00 
C 162.20 134.64 167.06 132.17 166.00 140.00
M 61.00 136.00 
C 60.95 144.25 56.26 139.21 61.00 136.00
M 149.00 140.00 
C 149.00 144.00 149.00 148.00 149.00 152.00
C 147.43 149.06 147.29 142.87 149.00 140.00
M 77.00 142.00 
C 77.00 145.67 77.00 149.33 77.00 153.00
C 75.44 150.39 75.28 144.54 77.00 142.00
M 134.00 148.00 
C 137.16 153.79 130.87 152.55 134.00 148.00
M 92.00 150.00 
C 93.45 156.19 87.23 152.37 92.00 150.00 Z"/>
</g>
<g fill="None" fill-opacity="0.0" stroke="#A1AB93" stroke-opacity="1.00" stroke-width="0.3"><path d="
M 114.00 74.00 
C 114.90 73.40 116.20 73.21 117.00 70.00
C 117.00 70.00 116.94 69.49 117.00 69.00
C 115.61 67.56 116.25 66.01 116.00 64.00
C 115.72 62.75 116.60 60.53 115.00 60.00
C 114.37 64.49 116.27 70.27 114.00 74.00 Z"/>
</g>
<g fill="None" fill-opacity="0.0" stroke="#536932" stroke-opacity="1.00" stroke-width="0.3"><path d="
M 103.00 74.00 
C 103.04 76.60 99.63 77.69 98.00 78.00
C 97.44 75.48 99.19 71.70 97.00 70.00
C 96.72 75.33 97.77 81.06 96.00 86.00
C 93.23 83.79 96.72 78.28 94.00 76.00
C 93.43 79.84 95.19 84.91 93.00 88.00
C 90.43 86.74 93.50 82.33 91.00 81.00
C 91.78 83.54 89.70 87.64 88.00 84.00
C 88.76 87.01 85.77 87.48 84.00 89.00
C 85.61 85.42 84.41 82.75 82.00 87.00
C 83.56 82.90 81.68 79.95 81.00 79.00
C 81.02 80.31 79.71 83.14 79.00 84.00
C 75.52 88.46 78.33 80.23 76.00 79.00
C 76.00 85.00 76.00 91.00 76.00 97.00
C 74.25 97.31 74.21 95.77 74.00 95.00
C 73.97 94.87 73.00 95.00 73.00 95.00
C 71.56 94.94 72.26 96.92 71.00 97.00
C 71.71 91.40 69.90 86.43 70.00 81.00
C 67.03 87.85 70.96 98.08 68.00 105.00
C 65.03 97.48 68.96 86.59 66.00 79.00
C 63.61 87.55 67.11 97.19 64.00 106.00
C 63.53 103.48 65.03 99.77 63.00 98.00
C 62.95 99.38 63.74 105.69 61.00 103.00
C 59.91 101.93 58.84 93.15 59.00 92.00
C 57.93 97.41 61.30 105.12 57.00 109.00
C 57.56 105.77 56.21 103.01 56.00 100.00
C 54.28 103.23 54.90 108.17 54.00 112.00
C 50.76 111.44 53.09 107.20 51.00 106.00
C 49.54 112.24 50.69 110.24 49.00 106.00
C 49.35 111.17 48.59 119.67 49.00 125.00
C 49.47 122.48 47.97 118.77 50.00 117.00
C 52.70 121.38 49.27 127.95 52.00 132.00
C 52.00 130.33 52.00 128.67 52.00 127.00
C 52.55 123.49 50.84 118.76 53.00 116.00
C 54.75 119.55 54.92 122.94 55.00 127.00
C 55.46 130.83 56.71 137.24 57.00 141.00
C 57.00 133.00 57.00 125.00 57.00 117.00
C 58.13 118.32 58.79 121.09 59.00 123.00
C 60.85 125.73 59.98 123.59 62.00 123.00
C 62.62 121.87 63.84 129.79 64.00 131.00
C 64.00 129.69 63.41 124.41 65.00 126.00
C 69.09 130.09 63.19 140.69 67.00 145.00
C 67.61 137.41 65.75 129.17 68.00 122.00
C 69.86 124.36 68.92 128.81 69.00 132.00
C 69.17 132.36 70.92 132.79 71.00 133.00
C 70.94 131.69 70.97 129.36 73.00 130.00
C 73.29 134.97 73.73 130.62 75.00 129.00
C 76.84 131.94 75.68 135.66 76.00 139.00
C 82.47 133.57 77.94 149.69 81.00 154.00
C 81.44 146.41 82.90 138.44 90.00 136.00
C 92.23 137.42 89.77 141.04 93.00 142.00
C 92.82 140.35 93.13 138.65 93.00 137.00
C 94.75 137.83 93.66 140.44 94.00 142.00
C 94.58 146.18 92.79 151.58 95.00 155.00
C 95.90 150.87 92.96 144.62 97.00 142.00
C 96.55 144.54 97.50 147.02 100.00 148.00
C 99.60 144.99 98.41 140.77 101.00 139.00
C 105.02 145.18 102.56 153.24 105.00 160.00
C 104.67 154.93 107.24 151.53 108.00 147.00
C 108.18 150.99 107.75 155.02 108.00 159.00
C 108.00 159.04 109.00 159.00 109.00 159.00
C 108.66 156.45 110.67 154.61 110.00 152.00
C 113.95 154.25 113.44 150.76 116.00 149.00
C 114.87 153.33 115.68 158.92 117.00 163.00
C 117.62 157.49 115.74 150.75 118.00 146.00
C 117.42 150.86 120.16 153.85 121.00 158.00
C 121.93 150.67 120.39 143.63 124.00 137.00
C 128.31 138.69 123.25 145.28 125.00 148.00
C 126.03 146.84 127.10 145.22 128.00 144.00
C 127.94 142.69 127.97 140.36 130.00 141.00
C 130.57 144.84 128.81 149.91 131.00 153.00
C 131.12 149.00 130.84 144.99 131.00 141.00
C 131.08 139.00 130.94 137.00 131.00 135.00
C 132.88 136.25 131.30 139.36 133.00 141.00
C 135.46 143.63 133.44 130.43 140.00 136.00
C 136.60 138.89 140.86 139.83 143.00 141.00
C 141.76 144.92 144.34 149.15 145.00 153.00
C 146.46 148.36 144.04 135.39 149.00 137.00
C 149.00 134.00 149.00 131.00 149.00 128.00
C 151.18 126.53 151.02 131.00 151.00 131.00
C 152.39 130.74 151.78 128.95 152.00 128.00
C 154.43 127.36 154.46 130.33 156.00 131.00
C 156.00 127.67 156.00 124.33 156.00 121.00
C 158.98 120.64 157.82 124.21 158.00 126.00
C 158.23 125.49 159.69 125.33 160.00 125.00
C 162.10 122.77 160.99 125.90 161.00 129.00
C 161.31 126.72 162.03 122.13 163.00 120.00
C 165.65 123.42 164.95 127.85 165.00 132.00
C 167.06 130.23 165.40 120.53 167.00 116.00
C 168.82 119.34 168.00 124.83 168.00 129.00
C 168.08 128.81 169.92 129.19 170.00 129.00
C 169.93 124.11 169.46 119.03 172.00 115.00
C 173.62 116.65 173.22 120.55 173.00 123.00
C 173.11 122.79 174.00 123.00 174.00 123.00
C 174.20 120.66 173.41 117.97 175.00 116.00
C 176.52 119.89 176.70 125.88 176.00 130.00
C 179.33 124.04 179.31 107.96 176.00 102.00
C 176.91 104.00 176.23 107.27 175.00 109.00
C 172.63 106.20 175.45 101.45 173.00 99.00
C 172.08 102.30 175.06 109.07 171.00 110.00
C 171.59 107.06 169.41 104.91 170.00 102.00
C 167.39 102.94 170.85 108.52 167.00 108.00
C 164.52 102.52 167.60 95.10 165.00 90.00
C 165.83 95.85 163.99 107.05 162.00 96.00
C 159.34 97.57 162.59 102.36 160.00 104.00
C 159.08 94.78 161.24 85.55 159.00 77.00
C 156.09 85.33 159.92 95.98 157.00 104.00
C 154.11 96.67 157.90 87.02 155.00 80.00
C 155.00 85.67 155.00 91.33 155.00 97.00
C 153.46 94.42 148.62 90.83 152.00 96.00
C 148.13 96.96 149.28 93.30 149.00 91.00
C 148.52 87.03 150.23 81.77 149.00 78.00
C 146.68 76.31 149.34 83.40 147.00 84.00
C 145.04 80.92 145.96 78.51 144.00 76.00
C 141.81 77.70 143.56 81.48 143.00 84.00
C 139.12 81.43 140.35 86.08 142.00 88.00
C 137.19 88.13 137.56 79.34 135.00 86.00
C 134.44 83.85 136.47 78.86 133.00 79.00
C 133.10 82.10 133.75 84.09 133.00 87.00
C 128.17 85.88 133.23 77.75 130.00 75.00
C 129.50 77.85 131.08 81.90 129.00 84.00
C 127.24 79.33 128.31 74.03 128.00 69.00
C 128.00 68.96 127.00 69.00 127.00 69.00
C 126.87 71.30 127.30 73.72 127.00 76.00
C 124.71 77.11 123.51 78.88 122.00 81.00
C 120.75 77.34 122.02 74.22 126.00 76.00
C 124.61 73.77 122.38 72.52 120.00 74.00
C 119.94 76.71 119.55 79.67 121.00 82.00
C 117.53 82.07 120.19 76.87 117.00 76.00
C 116.62 74.18 117.00 71.86 117.00 70.00
C 116.20 73.21 114.90 73.40 114.00 74.00
C 111.19 71.63 112.81 76.87 110.00 76.00
C 109.41 71.49 111.22 65.75 109.00 62.00
C 108.21 67.24 107.67 72.48 108.00 78.00
C 106.43 76.75 106.65 70.22 106.00 76.00
C 104.15 76.48 104.10 74.62 103.00 74.00
M 114.00 84.00 
C 115.34 91.83 108.58 85.94 114.00 84.00
M 140.00 93.00 
C 134.66 89.34 139.66 86.09 140.00 93.00
M 88.00 89.00 
C 88.26 96.03 82.66 92.78 88.00 89.00
M 94.00 112.00 
C 85.88 119.08 84.59 99.28 88.00 97.00
C 89.38 96.08 92.47 97.70 94.00 97.00
C 91.56 98.26 86.54 104.56 94.00 104.00
C 94.49 107.34 88.42 104.68 90.00 109.00
C 90.70 110.93 94.66 108.85 94.00 112.00
M 104.00 103.00 
C 99.30 95.59 98.23 104.06 99.00 110.00
C 102.73 104.87 106.65 110.82 100.97 111.97 C 95.29 113.12 96.57 104.10 97.00 100.00 C 97.43 95.90 106.71 97.11 104.00 103.00
M 108.00 104.00 
C 113.17 105.34 109.33 98.49 112.00 97.00
C 113.61 101.26 113.70 108.81 112.00 113.00
C 111.23 106.22 108.28 104.11 107.00 112.00
C 105.40 108.07 105.30 100.86 107.00 97.00
C 108.96 98.45 107.56 101.80 108.00 104.00
M 123.00 100.00 
C 124.41 102.72 124.38 106.32 123.00 109.00
C 114.36 125.73 114.77 84.07 123.00 100.00
M 132.00 97.00 
C 129.56 98.26 124.54 104.56 132.00 104.00
C 127.37 107.00 127.47 109.30 133.00 112.00
C 123.19 119.18 122.27 93.07 132.00 97.00
M 138.00 99.00 
C 134.14 104.75 143.77 103.03 142.64 108.70 C 141.52 114.36 133.57 113.24 135.00 107.00
C 136.81 107.76 139.98 112.84 140.00 107.00
C 134.64 107.28 132.59 96.40 139.03 97.03 C 145.46 97.65 141.14 107.22 138.00 99.00
M 88.00 125.00 
C 86.16 123.16 86.73 118.85 88.00 117.00
C 93.78 108.53 95.37 132.37 88.00 125.00
M 99.00 115.00 
C 98.24 116.81 93.16 119.98 99.00 120.00
C 98.85 122.63 94.43 122.08 96.00 126.00
C 94.72 123.13 92.77 113.43 99.00 115.00
M 108.00 117.00 
C 109.20 121.14 111.49 120.33 109.00 125.00
C 114.14 124.38 109.73 128.28 107.00 127.00
C 107.00 123.00 107.00 119.00 107.00 115.00
C 111.02 113.81 113.51 118.09 108.00 117.00
M 117.00 115.00 
C 118.49 118.86 118.69 123.06 120.00 127.00
C 117.51 126.08 117.17 122.46 114.00 126.00
C 114.13 122.21 114.38 117.68 117.00 115.00
M 126.00 127.00 
C 122.16 122.24 124.87 122.39 121.00 127.00
C 121.00 123.00 121.00 119.00 121.00 115.00
C 128.16 114.08 125.59 122.52 126.00 127.00
M 132.00 126.00 
C 130.62 128.91 130.00 118.12 130.00 117.00
C 130.00 116.98 126.49 114.97 130.04 115.03 C 133.59 115.10 132.30 114.85 135.00 116.00
C 130.58 116.92 132.30 122.31 132.00 126.00
M 141.00 115.00 
C 141.00 119.00 141.00 123.00 141.00 127.00
C 137.13 122.67 140.11 122.28 136.00 126.00
C 136.00 122.33 136.00 118.67 136.00 115.00
C 140.07 118.49 136.85 120.54 141.00 115.00
M 137.00 134.00 
C 133.86 127.71 143.23 129.78 137.00 134.00
M 89.00 135.00 
C 81.11 134.04 90.54 126.31 89.00 135.00
M 109.00 139.00 
C 107.95 133.11 114.89 138.99 109.00 139.00 Z"/>
</g>
<g fill="None" fill-opacity="0.0" stroke="#647845" stroke-opacity="1.00" stroke-width="0.3"><path d="
M 112.00 65.00 
C 112.30 66.37 113.65 65.30 114.00 66.00
C 114.00 65.00 114.00 64.00 114.00 63.00
C 113.41 63.03 111.85 64.29 112.00 65.00 Z"/>
</g>
<g fill="None" fill-opacity="0.0" stroke="#435D1F" stroke-opacity="1.00" stroke-width="0.3"><path d="
M 117.00 69.00 
C 117.26 66.88 116.40 65.48 116.00 64.00
C 116.25 66.01 115.61 67.56 117.00 69.00 Z"/>
</g>
<g fill="None" fill-opacity="0.0" stroke="#859371" stroke-opacity="1.00" stroke-width="0.3"><path d="
M 127.00 69.00 
C 127.00 69.00 128.00 68.96 128.00 69.00
C 127.66 67.44 128.75 64.83 127.00 64.00
C 126.93 65.66 127.09 67.34 127.00 69.00 Z"/>
</g>
<g fill="None" fill-opacity="0.0" stroke="#9FAA90" stroke-opacity="1.00" stroke-width="0.3"><path d="
M 97.00 70.00 
C 99.19 71.70 97.44 75.48 98.00 78.00
C 99.63 77.69 103.04 76.60 103.00 74.00
C 100.68 68.96 100.29 72.96 99.00 76.00
C 99.12 72.21 98.59 67.99 97.00 65.00
C 96.92 66.66 97.10 68.34 97.00 70.00 Z"/>
</g>
<g fill="None" fill-opacity="0.0" stroke="#9FA991" stroke-opacity="1.00" stroke-width="0.3"><path d="
M 112.00 69.00 
C 112.02 68.66 112.65 68.09 113.00 68.00
C 112.90 68.03 113.98 66.09 114.00 66.00
C 113.65 65.30 112.30 66.37 112.00 65.00
C 111.66 65.59 109.72 68.73 112.00 69.00 Z"/>
</g>
<g fill="None" fill-opacity="0.0" stroke="#596E38" stroke-opacity="1.00" stroke-width="0.3"><path d="
M 112.00 69.00 
C 112.00 70.00 112.00 71.00 112.00 72.00
C 114.99 71.64 112.96 69.22 113.00 68.00
C 112.65 68.09 112.02 68.66 112.00 69.00 Z"/>
</g>
<g fill="None" fill-opacity="0.0" stroke="#657949" stroke-opacity="1.00" stroke-width="0.3"><path d="
M 118.00 76.00 
C 119.18 75.89 118.70 74.71 119.00 74.00
C 119.76 72.02 121.44 70.33 121.00 68.00
C 118.77 69.89 118.00 73.03 118.00 76.00 Z"/>
</g>
<g fill="None" fill-opacity="0.0" stroke="#B5BEAA" stroke-opacity="1.00" stroke-width="0.3"><path d="
M 118.00 76.00 
C 118.00 76.00 117.02 76.10 117.00 76.00
C 120.19 76.87 117.53 82.07 121.00 82.00
C 119.55 79.67 119.94 76.71 120.00 74.00
C 120.00 74.00 119.20 73.76 119.00 74.00
C 118.70 74.71 119.18 75.89 118.00 76.00 Z"/>
</g>
<g fill="None" fill-opacity="0.0" stroke="#8C9A7B" stroke-opacity="1.00" stroke-width="0.3"><path d="
M 151.00 79.00 
C 151.15 79.73 151.93 80.72 152.00 82.00
C 154.28 80.16 151.90 75.88 151.00 74.00
C 150.94 75.66 151.08 77.34 151.00 79.00 Z"/>
</g>
<g fill="None" fill-opacity="0.0" stroke="#A5AF98" stroke-opacity="1.00" stroke-width="0.3"><path d="
M 79.00 84.00 
C 79.71 83.14 81.02 80.31 81.00 79.00
C 78.89 78.60 80.98 75.47 79.00 75.00
C 78.34 77.78 79.89 81.29 79.00 84.00 Z"/>
</g>
<g fill="None" fill-opacity="0.0" stroke="#8D9B7A" stroke-opacity="1.00" stroke-width="0.3"><path d="
M 127.00 76.00 
C 127.00 76.00 126.39 76.21 126.00 76.00
C 122.02 74.22 120.75 77.34 122.00 81.00
C 123.51 78.88 124.71 77.11 127.00 76.00 Z"/>
</g>
<g fill="None" fill-opacity="0.0" stroke="#9EA890" stroke-opacity="1.00" stroke-width="0.3"><path d="
M 149.00 91.00 
C 148.93 88.02 152.01 81.01 149.00 78.00
C 150.23 81.77 148.52 87.03 149.00 91.00 Z"/>
</g>
<g fill="None" fill-opacity="0.0" stroke="#486022" stroke-opacity="1.00" stroke-width="0.3"><path d="
M 151.00 85.00 
C 151.02 85.10 152.00 85.00 152.00 85.00
C 151.82 84.06 152.05 82.96 152.00 82.00
C 151.93 80.72 151.15 79.73 151.00 79.00
C 150.91 80.98 150.94 83.02 151.00 85.00 Z"/>
</g>
<g fill="None" fill-opacity="0.0" stroke="#3A5608" stroke-opacity="1.00" stroke-width="0.3"><path d="
M 73.00 86.00 
C 73.11 85.79 74.00 86.00 74.00 86.00
C 73.61 84.13 74.87 81.14 73.00 80.00
C 72.79 81.97 73.27 84.04 73.00 86.00 Z"/>
</g>
<g fill="None" fill-opacity="0.0" stroke="#D1D6CA" stroke-opacity="1.00" stroke-width="0.3"><path d="
M 114.00 84.00 
C 108.58 85.94 115.34 91.83 114.00 84.00 Z"/>
</g>
<g fill="None" fill-opacity="0.0" stroke="#808F6B" stroke-opacity="1.00" stroke-width="0.3"><path d="
M 169.00 84.00 
C 167.91 88.95 166.83 96.47 170.00 101.00
C 168.75 95.67 171.59 89.42 169.00 84.00 Z"/>
</g>
<g fill="None" fill-opacity="0.0" stroke="#81906C" stroke-opacity="1.00" stroke-width="0.3"><path d="
M 152.00 85.00 
C 152.00 85.00 151.02 85.10 151.00 85.00
C 151.46 87.73 151.49 89.33 151.00 92.00
C 154.93 91.95 152.37 86.99 152.00 85.00 Z"/>
</g>
<g fill="None" fill-opacity="0.0" stroke="#879673" stroke-opacity="1.00" stroke-width="0.3"><path d="
M 57.00 93.00 
C 56.94 91.90 54.30 88.02 57.00 87.00
C 52.88 86.07 55.68 96.83 56.00 100.00
C 57.78 98.61 56.97 95.20 57.00 93.00 Z"/>
</g>
<g fill="None" fill-opacity="0.0" stroke="#8E9D7C" stroke-opacity="1.00" stroke-width="0.3"><path d="
M 73.00 95.00 
C 73.00 95.00 73.97 94.87 74.00 95.00
C 73.79 91.48 73.79 89.47 74.00 86.00
C 74.00 86.00 73.11 85.79 73.00 86.00
C 72.60 88.88 70.77 92.24 73.00 95.00 Z"/>
</g>
<g fill="None" fill-opacity="0.0" stroke="#3D5812" stroke-opacity="1.00" stroke-width="0.3"><path d="
M 57.00 93.00 
C 57.02 91.39 57.56 88.49 57.00 87.00
C 54.30 88.02 56.94 91.90 57.00 93.00 Z"/>
</g>
<g fill="None" fill-opacity="0.0" stroke="#D3D8CC" stroke-opacity="1.00" stroke-width="0.3"><path d="
M 140.00 93.00 
C 139.66 86.09 134.66 89.34 140.00 93.00 Z"/>
</g>
<g fill="None" fill-opacity="0.0" stroke="#D7DBD1" stroke-opacity="1.00" stroke-width="0.3"><path d="
M 88.00 89.00 
C 82.66 92.78 88.26 96.03 88.00 89.00 Z"/>
</g>
<g fill="None" fill-opacity="0.0" stroke="#9FA98F" stroke-opacity="1.00" stroke-width="0.3"><path d="
M 59.00 92.00 
C 58.84 93.15 59.91 101.93 61.00 103.00
C 60.77 102.54 59.83 86.01 59.00 92.00 Z"/>
</g>
<g fill="None" fill-opacity="0.0" stroke="#38540C" stroke-opacity="1.00" stroke-width="0.3"><path d="
M 180.00 134.00 
C 178.95 129.05 182.37 121.07 181.00 115.00 C 179.63 108.93 182.17 101.19 181.00 95.00
C 180.43 91.95 179.44 101.33 180.00 105.00 C 180.56 108.67 179.36 115.93 180.00 120.00 C 180.64 124.07 178.77 130.01 180.00 134.00 Z"/>
</g>
<g fill="None" fill-opacity="0.0" stroke="#355207" stroke-opacity="1.00" stroke-width="0.3"><path d="
M 44.00 96.00 
C 42.09 101.83 44.89 108.80 44.00 115.00 C 43.11 121.20 44.57 128.68 44.00 135.00
C 44.22 135.95 43.61 137.74 45.00 138.00
C 45.84 131.38 43.89 121.28 45.00 115.00 C 46.11 108.72 43.18 98.50 44.00 96.00 Z"/>
</g>
<g fill="None" fill-opacity="0.0" stroke="#ADB6A0" stroke-opacity="1.00" stroke-width="0.3"><path d="
M 180.00 134.00 
C 179.24 136.89 181.72 137.46 184.00 137.00
C 184.00 134.33 184.00 131.67 184.00 129.00
C 183.75 126.39 182.81 124.81 184.00 122.00
C 184.00 121.50 184.00 120.50 184.00 120.00
C 181.87 114.99 184.26 108.66 184.00 104.00
C 183.61 101.68 183.10 97.35 181.00 95.00
C 182.17 101.19 179.63 108.93 181.00 115.00 C 182.37 121.07 178.95 129.05 180.00 134.00 Z"/>
</g>
<g fill="None" fill-opacity="0.0" stroke="#B6BEAD" stroke-opacity="1.00" stroke-width="0.3"><path d="
M 186.00 97.00 
C 184.79 104.55 188.60 115.49 187.00 124.00
C 189.33 115.33 187.33 104.50 188.00 95.00
C 186.24 94.76 186.21 95.71 186.00 97.00 Z"/>
</g>
<g fill="None" fill-opacity="0.0" stroke="#D0D5C9" stroke-opacity="1.00" stroke-width="0.3"><path d="
M 43.00 103.00 
C 43.34 112.99 42.75 123.01 43.00 133.00
C 41.74 132.92 42.44 130.94 41.00 131.00
C 41.00 132.00 40.97 133.00 41.00 134.00
C 41.17 134.35 42.64 134.94 43.00 135.00
C 43.00 135.00 43.99 134.92 44.00 135.00
C 44.57 128.68 43.11 121.20 44.00 115.00 C 44.89 108.80 42.09 101.83 44.00 96.00
C 41.25 97.15 42.94 101.12 43.00 103.00 Z"/>
</g>
<g fill="None" fill-opacity="0.0" stroke="#9C8E4C" stroke-opacity="1.00" stroke-width="0.3"><path d="
M 94.00 112.00 
C 92.00 112.00 90.00 112.00 88.00 112.00
C 88.00 107.00 88.00 102.00 88.00 97.00
C 84.59 99.28 85.88 119.08 94.00 112.00 Z"/>
</g>
<g fill="None" fill-opacity="0.0" stroke="#E8BC6B" stroke-opacity="1.00" stroke-width="0.3"><path d="
M 94.00 112.00 
C 94.66 108.85 90.70 110.93 90.00 109.00
C 88.42 104.68 94.49 107.34 94.00 104.00
C 86.54 104.56 91.56 98.26 94.00 97.00
C 92.47 97.70 89.38 96.08 88.00 97.00
C 88.00 102.00 88.00 107.00 88.00 112.00
C 90.00 112.00 92.00 112.00 94.00 112.00 Z"/>
</g>
<g fill="None" fill-opacity="0.0" stroke="#EBBD6C" stroke-opacity="1.00" stroke-width="0.3"><path d="
M 104.00 103.00 
C 106.71 97.11 97.43 95.90 97.00 100.00 C 96.57 104.10 95.29 113.12 100.97 111.97 C 106.65 110.82 102.73 104.87 99.00 110.00
C 98.23 104.06 99.30 95.59 104.00 103.00 Z"/>
</g>
<g fill="None" fill-opacity="0.0" stroke="#ECBE6D" stroke-opacity="1.00" stroke-width="0.3"><path d="
M 108.00 104.00 
C 107.56 101.80 108.96 98.45 107.00 97.00
C 105.30 100.86 105.40 108.07 107.00 112.00
C 108.28 104.11 111.23 106.22 112.00 113.00
C 113.70 108.81 113.61 101.26 112.00 97.00
C 109.33 98.49 113.17 105.34 108.00 104.00 Z"/>
</g>
<g fill="None" fill-opacity="0.0" stroke="#E5BA6A" stroke-opacity="1.00" stroke-width="0.3"><path d="
M 123.00 109.00 
C 123.56 107.33 123.56 101.67 123.00 100.00
C 114.77 84.07 114.36 125.73 123.00 109.00
M 121.00 110.00 
C 116.18 109.57 117.79 102.04 119.00 99.00
C 122.82 101.02 120.24 106.49 121.00 110.00 Z"/>
</g>
<g fill="None" fill-opacity="0.0" stroke="#E6BB6A" stroke-opacity="1.00" stroke-width="0.3"><path d="
M 132.00 97.00 
C 122.27 93.07 123.19 119.18 133.00 112.00
C 127.47 109.30 127.37 107.00 132.00 104.00
C 124.54 104.56 129.56 98.26 132.00 97.00 Z"/>
</g>
<g fill="None" fill-opacity="0.0" stroke="#DDB566" stroke-opacity="1.00" stroke-width="0.3"><path d="
M 138.00 99.00 
C 141.14 107.22 145.46 97.65 139.03 97.03 C 132.59 96.40 134.64 107.28 140.00 107.00
C 139.98 112.84 136.81 107.76 135.00 107.00
C 133.57 113.24 141.52 114.36 142.64 108.70 C 143.77 103.03 134.14 104.75 138.00 99.00 Z"/>
</g>
<g fill="None" fill-opacity="0.0" stroke="#314F03" stroke-opacity="1.00" stroke-width="0.3"><path d="
M 187.00 124.00 
C 188.60 115.49 184.79 104.55 186.00 97.00
C 184.79 100.95 186.79 109.25 186.00 113.00 C 185.21 116.75 186.45 126.93 187.00 124.00 Z"/>
</g>
<g fill="None" fill-opacity="0.0" stroke="#355209" stroke-opacity="1.00" stroke-width="0.3"><path d="
M 39.00 98.00 
C 37.32 106.85 37.35 119.07 39.00 128.00
C 39.00 118.00 39.00 108.00 39.00 98.00 Z"/>
</g>
<g fill="None" fill-opacity="0.0" stroke="#52682F" stroke-opacity="1.00" stroke-width="0.3"><path d="
M 121.00 110.00 
C 120.24 106.49 122.82 101.02 119.00 99.00
C 117.79 102.04 116.18 109.57 121.00 110.00 Z"/>
</g>
<g fill="None" fill-opacity="0.0" stroke="#7B8B66" stroke-opacity="1.00" stroke-width="0.3"><path d="
M 198.00 133.00 
C 199.23 122.19 199.97 109.44 198.00 99.00
C 196.13 109.88 196.71 122.94 198.00 133.00 Z"/>
</g>
<g fill="None" fill-opacity="0.0" stroke="#7C8C65" stroke-opacity="1.00" stroke-width="0.3"><path d="
M 28.00 126.00 
C 27.87 124.27 27.87 121.67 28.00 120.00
C 27.37 113.49 29.28 105.75 27.00 100.00
C 25.80 111.30 24.76 124.58 28.00 135.00
C 28.00 132.00 28.00 129.00 28.00 126.00 Z"/>
</g>
<g fill="None" fill-opacity="0.0" stroke="#9A8D4B" stroke-opacity="1.00" stroke-width="0.3"><path d="
M 123.00 109.00 
C 124.38 106.32 124.41 102.72 123.00 100.00
C 123.56 101.67 123.56 107.33 123.00 109.00 Z"/>
</g>
<g fill="None" fill-opacity="0.0" stroke="#93A183" stroke-opacity="1.00" stroke-width="0.3"><path d="
M 35.00 101.00 
C 31.61 103.75 38.14 104.80 35.00 101.00 Z"/>
</g>
<g fill="None" fill-opacity="0.0" stroke="#8C997A" stroke-opacity="1.00" stroke-width="0.3"><path d="
M 41.00 106.00 
C 40.94 110.59 41.45 117.32 41.00 122.00
C 41.00 125.00 41.00 128.00 41.00 131.00
C 42.44 130.94 41.74 132.92 43.00 133.00
C 42.75 123.01 43.34 112.99 43.00 103.00
C 43.06 102.82 41.34 103.17 41.00 106.00 Z"/>
</g>
<g fill="None" fill-opacity="0.0" stroke="#97A385" stroke-opacity="1.00" stroke-width="0.3"><path d="
M 49.00 125.00 
C 48.59 119.67 49.35 111.17 49.00 106.00
C 49.00 105.00 49.00 104.00 49.00 103.00
C 45.06 110.62 46.96 123.55 48.00 132.00
C 49.79 130.61 48.96 127.20 49.00 125.00 Z"/>
</g>
<g fill="None" fill-opacity="0.0" stroke="#CED4C7" stroke-opacity="1.00" stroke-width="0.3"><path d="
M 24.00 114.00 
C 24.00 118.33 24.00 122.67 24.00 127.00
C 22.38 122.41 22.30 114.52 24.00 110.00
C 26.22 108.75 23.88 105.26 23.00 104.00
C 24.03 110.87 17.96 123.90 25.00 129.00
C 25.64 123.99 24.59 118.31 24.00 114.00 Z"/>
</g>
<g fill="None" fill-opacity="0.0" stroke="#345103" stroke-opacity="1.00" stroke-width="0.3"><path d="
M 184.00 120.00 
C 184.00 114.91 184.84 109.01 184.00 104.00
C 184.26 108.66 181.87 114.99 184.00 120.00 Z"/>
</g>
<g fill="None" fill-opacity="0.0" stroke="#3B5715" stroke-opacity="1.00" stroke-width="0.3"><path d="
M 191.00 104.00 
C 189.32 111.85 189.35 123.08 191.00 131.00
C 191.00 122.00 191.00 113.00 191.00 104.00 Z"/>
</g>
<g fill="None" fill-opacity="0.0" stroke="#C0C6B8" stroke-opacity="1.00" stroke-width="0.3"><path d="
M 194.00 106.00 
C 195.16 109.28 196.29 116.90 194.00 120.00
C 194.00 120.00 194.00 120.50 194.00 121.00
C 196.20 123.97 193.72 127.53 194.00 130.00
C 195.27 134.60 196.00 121.12 196.00 119.00 C 196.00 116.88 195.53 102.85 194.00 106.00 Z"/>
</g>
<g fill="None" fill-opacity="0.0" stroke="#A4AE95" stroke-opacity="1.00" stroke-width="0.3"><path d="
M 34.00 111.00 
C 34.00 116.71 36.22 124.55 35.00 131.00
C 37.33 123.66 35.34 114.17 36.00 106.00
C 33.02 105.64 34.18 109.21 34.00 111.00 Z"/>
</g>
<g fill="None" fill-opacity="0.0" stroke="#5F7342" stroke-opacity="1.00" stroke-width="0.3"><path d="
M 41.00 122.00 
C 41.45 117.32 40.94 110.59 41.00 106.00
C 40.39 111.17 41.00 116.79 41.00 122.00 Z"/>
</g>
<g fill="None" fill-opacity="0.0" stroke="#2F4E00" stroke-opacity="1.00" stroke-width="0.3"><path d="
M 194.00 120.00 
C 196.29 116.90 195.16 109.28 194.00 106.00
C 192.53 109.03 194.00 116.56 194.00 120.00 Z"/>
</g>
<g fill="None" fill-opacity="0.0" stroke="#36530C" stroke-opacity="1.00" stroke-width="0.3"><path d="
M 30.00 132.00 
C 28.82 125.18 32.97 114.72 31.00 107.00
C 30.90 113.63 27.69 124.79 30.00 132.00 Z"/>
</g>
<g fill="None" fill-opacity="0.0" stroke="#C4CABB" stroke-opacity="1.00" stroke-width="0.3"><path d="
M 30.00 132.00 
C 30.13 133.03 31.17 133.59 32.00 134.00
C 31.35 125.16 33.31 115.09 31.00 107.00
C 32.97 114.72 28.82 125.18 30.00 132.00 Z"/>
</g>
<g fill="None" fill-opacity="0.0" stroke="#3B560F" stroke-opacity="1.00" stroke-width="0.3"><path d="
M 201.00 126.00 
C 202.60 122.95 202.23 117.80 202.00 114.00
C 201.66 112.44 202.75 109.83 201.00 109.00
C 202.65 113.89 198.81 121.37 201.00 126.00 Z"/>
</g>
<g fill="None" fill-opacity="0.0" stroke="#9BA58D" stroke-opacity="1.00" stroke-width="0.3"><path d="
M 206.00 110.00 
C 204.95 113.22 206.01 118.58 206.00 122.00
C 206.21 120.27 206.35 108.93 206.00 110.00 Z"/>
</g>
<g fill="None" fill-opacity="0.0" stroke="#BBC3B1" stroke-opacity="1.00" stroke-width="0.3"><path d="
M 19.00 124.00 
C 18.50 120.03 20.24 114.78 19.00 111.00
C 17.70 109.70 18.39 122.12 19.00 124.00 Z"/>
</g>
<g fill="None" fill-opacity="0.0" stroke="#335106" stroke-opacity="1.00" stroke-width="0.3"><path d="
M 24.00 114.00 
C 24.00 112.69 23.88 111.31 24.00 110.00
C 22.30 114.52 22.38 122.41 24.00 127.00
C 24.00 122.67 24.00 118.33 24.00 114.00 Z"/>
</g>
<g fill="None" fill-opacity="0.0" stroke="#5E7241" stroke-opacity="1.00" stroke-width="0.3"><path d="
M 206.00 122.00 
C 206.01 118.58 204.95 113.22 206.00 110.00
C 204.30 114.52 204.38 122.41 206.00 127.00
C 207.05 124.99 205.99 123.92 206.00 122.00 Z"/>
</g>
<g fill="None" fill-opacity="0.0" stroke="#435C18" stroke-opacity="1.00" stroke-width="0.3"><path d="
M 19.00 124.00 
C 19.22 124.95 18.61 126.74 20.00 127.00
C 18.58 122.64 22.34 114.34 19.00 111.00
C 20.24 114.78 18.50 120.03 19.00 124.00 Z"/>
</g>
<g fill="None" fill-opacity="0.0" stroke="#486020" stroke-opacity="1.00" stroke-width="0.3"><path d="
M 35.00 131.00 
C 36.22 124.55 34.00 116.71 34.00 111.00
C 33.65 114.42 34.38 120.88 34.00 124.00 C 33.62 127.12 34.35 134.47 35.00 131.00 Z"/>
</g>
<g fill="None" fill-opacity="0.0" stroke="#AEB7A4" stroke-opacity="1.00" stroke-width="0.3"><path d="
M 209.00 121.00 
C 208.50 118.36 208.57 113.87 210.00 112.00
C 208.45 108.80 208.08 119.15 209.00 121.00 Z"/>
</g>
<g fill="None" fill-opacity="0.0" stroke="#3A5615" stroke-opacity="1.00" stroke-width="0.3"><path d="
M 209.00 121.00 
C 209.83 125.39 210.82 113.69 210.00 112.00
C 208.57 113.87 208.50 118.36 209.00 121.00 Z"/>
</g>
<g fill="None" fill-opacity="0.0" stroke="#81916D" stroke-opacity="1.00" stroke-width="0.3"><path d="
M 217.00 121.00 
C 214.40 120.29 217.02 116.63 217.00 116.00
C 216.72 114.75 217.60 112.53 216.00 112.00
C 212.76 113.49 216.35 122.98 217.00 121.00 Z"/>
</g>
<g fill="None" fill-opacity="0.0" stroke="#808F6B" stroke-opacity="1.00" stroke-width="0.3"><path d="
M 9.00 113.00 
C 7.28 115.21 7.46 120.72 9.00 123.00
C 10.49 120.10 10.58 115.91 9.00 113.00 Z"/>
</g>
<g fill="None" fill-opacity="0.0" stroke="#788860" stroke-opacity="1.00" stroke-width="0.3"><path d="
M 16.00 125.00 
C 16.93 121.40 18.09 116.19 16.00 113.00
C 14.29 115.87 14.43 122.06 16.00 125.00 Z"/>
</g>
<g fill="None" fill-opacity="0.0" stroke="#869473" stroke-opacity="1.00" stroke-width="0.3"><path d="
M 213.00 113.00 
C 211.47 115.23 210.83 121.41 214.00 123.00
C 213.12 119.37 214.39 116.14 213.00 113.00 Z"/>
</g>
<g fill="None" fill-opacity="0.0" stroke="#9CA68E" stroke-opacity="1.00" stroke-width="0.3"><path d="
M 201.00 126.00 
C 202.32 128.78 202.25 115.34 202.00 114.00
C 202.23 117.80 202.60 122.95 201.00 126.00 Z"/>
</g>
<g fill="None" fill-opacity="0.0" stroke="#6B7E50" stroke-opacity="1.00" stroke-width="0.3"><path d="
M 12.00 123.00 
C 13.72 121.43 13.50 116.64 12.00 115.00
C 11.37 118.03 11.32 120.03 12.00 123.00 Z"/>
</g>
<g fill="None" fill-opacity="0.0" stroke="#E6BA6A" stroke-opacity="1.00" stroke-width="0.3"><path d="
M 88.00 117.00 
C 87.60 117.92 87.47 124.19 88.00 125.00
C 95.37 132.37 93.78 108.53 88.00 117.00
M 90.00 125.00 
C 88.77 122.87 88.12 118.70 90.00 117.00
C 91.50 118.64 91.72 123.43 90.00 125.00 Z"/>
</g>
<g fill="None" fill-opacity="0.0" stroke="#E8BD6C" stroke-opacity="1.00" stroke-width="0.3"><path d="
M 99.00 115.00 
C 92.77 113.43 94.72 123.13 96.00 126.00
C 94.43 122.08 98.85 122.63 99.00 120.00
C 93.16 119.98 98.24 116.81 99.00 115.00 Z"/>
</g>
<g fill="None" fill-opacity="0.0" stroke="#D6B264" stroke-opacity="1.00" stroke-width="0.3"><path d="
M 108.00 117.00 
C 113.51 118.09 111.02 113.81 107.00 115.00
C 107.00 119.00 107.00 123.00 107.00 127.00
C 109.73 128.28 114.14 124.38 109.00 125.00
C 111.49 120.33 109.20 121.14 108.00 117.00 Z"/>
</g>
<g fill="None" fill-opacity="0.0" stroke="#D7B264" stroke-opacity="1.00" stroke-width="0.3"><path d="
M 117.00 115.00 
C 114.38 117.68 114.13 122.21 114.00 126.00
C 117.17 122.46 117.51 126.08 120.00 127.00
C 118.69 123.06 118.49 118.86 117.00 115.00 Z"/>
</g>
<g fill="None" fill-opacity="0.0" stroke="#C8A95E" stroke-opacity="1.00" stroke-width="0.3"><path d="
M 126.00 127.00 
C 125.59 122.52 128.16 114.08 121.00 115.00
C 121.00 119.00 121.00 123.00 121.00 127.00
C 124.87 122.39 122.16 122.24 126.00 127.00 Z"/>
</g>
<g fill="None" fill-opacity="0.0" stroke="#E2BA69" stroke-opacity="1.00" stroke-width="0.3"><path d="
M 130.00 117.00 
C 130.37 119.33 130.98 123.84 132.00 126.00
C 132.30 122.31 130.58 116.92 135.00 116.00
C 132.30 114.85 133.59 115.10 130.04 115.03 C 126.49 114.97 130.00 116.98 130.00 117.00 Z"/>
</g>
<g fill="None" fill-opacity="0.0" stroke="#D5B163" stroke-opacity="1.00" stroke-width="0.3"><path d="
M 141.00 115.00 
C 136.85 120.54 140.07 118.49 136.00 115.00
C 136.00 118.67 136.00 122.33 136.00 126.00
C 140.11 122.28 137.13 122.67 141.00 127.00
C 141.00 123.00 141.00 119.00 141.00 115.00 Z"/>
</g>
<g fill="None" fill-opacity="0.0" stroke="#566B35" stroke-opacity="1.00" stroke-width="0.3"><path d="
M 217.00 121.00 
C 217.40 119.76 217.10 117.31 217.00 116.00
C 217.02 116.63 214.40 120.29 217.00 121.00 Z"/>
</g>
<g fill="None" fill-opacity="0.0" stroke="#8E9E80" stroke-opacity="1.00" stroke-width="0.3"><path d="
M 7.00 117.00 
C 1.73 118.19 8.56 123.97 7.00 117.00 Z"/>
</g>
<g fill="None" fill-opacity="0.0" stroke="#978C4A" stroke-opacity="1.00" stroke-width="0.3"><path d="
M 88.00 125.00 
C 87.47 124.19 87.60 117.92 88.00 117.00
C 86.73 118.85 86.16 123.16 88.00 125.00 Z"/>
</g>
<g fill="None" fill-opacity="0.0" stroke="#546930" stroke-opacity="1.00" stroke-width="0.3"><path d="
M 90.00 125.00 
C 91.72 123.43 91.50 118.64 90.00 117.00
C 88.12 118.70 88.77 122.87 90.00 125.00 Z"/>
</g>
<g fill="None" fill-opacity="0.0" stroke="#9A8D4B" stroke-opacity="1.00" stroke-width="0.3"><path d="
M 132.00 126.00 
C 130.98 123.84 130.37 119.33 130.00 117.00
C 130.00 118.12 130.62 128.91 132.00 126.00 Z"/>
</g>
<g fill="None" fill-opacity="0.0" stroke="#909D7F" stroke-opacity="1.00" stroke-width="0.3"><path d="
M 3.00 118.00 
C 2.10 117.10 -0.10 119.50 1.29 120.63 C 2.69 121.77 3.81 118.81 3.00 118.00 Z"/>
</g>
<g fill="None" fill-opacity="0.0" stroke="#435D14" stroke-opacity="1.00" stroke-width="0.3"><path d="
M 28.00 126.00 
C 28.00 124.00 28.00 122.00 28.00 120.00
C 27.87 121.67 27.87 124.27 28.00 126.00 Z"/>
</g>
<g fill="None" fill-opacity="0.0" stroke="#9BA68B" stroke-opacity="1.00" stroke-width="0.3"><path d="
M 161.00 129.00 
C 161.00 130.33 161.00 131.67 161.00 133.00
C 161.13 133.22 162.00 133.00 162.00 133.00
C 163.51 130.27 162.10 126.26 164.00 124.00
C 164.38 126.62 163.10 130.10 165.00 132.00
C 164.95 127.85 165.65 123.42 163.00 120.00
C 162.03 122.13 161.31 126.72 161.00 129.00 Z"/>
</g>
<g fill="None" fill-opacity="0.0" stroke="#304E00" stroke-opacity="1.00" stroke-width="0.3"><path d="
M 194.00 130.00 
C 193.72 127.53 196.20 123.97 194.00 121.00
C 194.00 123.67 193.30 127.45 194.00 130.00 Z"/>
</g>
<g fill="None" fill-opacity="0.0" stroke="#B4BDAA" stroke-opacity="1.00" stroke-width="0.3"><path d="
M 62.00 123.00 
C 61.86 123.04 62.00 124.50 62.00 125.00
C 62.00 128.56 62.71 131.73 63.00 135.00
C 63.11 135.21 64.00 135.00 64.00 135.00
C 64.00 133.67 64.00 132.33 64.00 131.00
C 63.84 129.79 62.62 121.87 62.00 123.00 Z"/>
</g>
<g fill="None" fill-opacity="0.0" stroke="#475F1B" stroke-opacity="1.00" stroke-width="0.3"><path d="
M 184.00 129.00 
C 184.00 126.67 184.00 124.33 184.00 122.00
C 182.81 124.81 183.75 126.39 184.00 129.00 Z"/>
</g>
<g fill="None" fill-opacity="0.0" stroke="#798863" stroke-opacity="1.00" stroke-width="0.3"><path d="
M 62.00 125.00 
C 62.00 124.50 61.86 123.04 62.00 123.00
C 59.98 123.59 60.85 125.73 59.00 123.00
C 59.57 126.84 57.81 131.91 60.00 135.00
C 61.51 131.84 60.74 127.95 62.00 125.00 Z"/>
</g>
<g fill="None" fill-opacity="0.0" stroke="#B1BAA3" stroke-opacity="1.00" stroke-width="0.3"><path d="
M 174.00 130.00 
C 173.82 127.92 172.95 127.32 174.00 125.00
C 174.00 124.50 174.03 123.50 174.00 123.00
C 174.00 123.00 173.11 122.79 173.00 123.00
C 171.74 127.93 171.13 134.12 173.00 139.00
C 174.79 136.98 174.00 132.84 174.00 130.00 Z"/>
</g>
<g fill="None" fill-opacity="0.0" stroke="#768660" stroke-opacity="1.00" stroke-width="0.3"><path d="
M 158.00 126.00 
C 158.62 131.84 156.73 138.91 159.00 144.00
C 158.76 141.07 162.77 127.95 160.00 125.00
C 159.69 125.33 158.23 125.49 158.00 126.00 Z"/>
</g>
<g fill="None" fill-opacity="0.0" stroke="#35530E" stroke-opacity="1.00" stroke-width="0.3"><path d="
M 174.00 130.00 
C 174.00 128.33 174.00 126.67 174.00 125.00
C 172.95 127.32 173.82 127.92 174.00 130.00 Z"/>
</g>
<g fill="None" fill-opacity="0.0" stroke="#A6AF98" stroke-opacity="1.00" stroke-width="0.3"><path d="
M 67.00 145.00 
C 63.19 140.69 69.09 130.09 65.00 126.00
C 65.79 128.41 65.17 135.72 65.00 138.00 C 64.83 140.28 65.97 147.17 67.00 145.00 Z"/>
</g>
<g fill="None" fill-opacity="0.0" stroke="#B5BDAC" stroke-opacity="1.00" stroke-width="0.3"><path d="
M 52.00 132.00 
C 54.61 131.24 52.07 127.85 52.00 127.00
C 52.00 128.67 52.00 130.33 52.00 132.00 Z"/>
</g>
<g fill="None" fill-opacity="0.0" stroke="#939F82" stroke-opacity="1.00" stroke-width="0.3"><path d="
M 57.00 141.00 
C 56.71 137.24 55.46 130.83 55.00 127.00
C 55.63 133.84 53.71 141.91 56.00 148.00
C 57.79 146.61 56.96 143.20 57.00 141.00 Z"/>
</g>
<g fill="None" fill-opacity="0.0" stroke="#A0AA91" stroke-opacity="1.00" stroke-width="0.3"><path d="
M 151.00 131.00 
C 152.09 133.18 152.98 129.20 154.00 129.00
C 153.02 130.97 154.92 133.74 155.00 135.00
C 155.09 134.52 154.78 133.37 155.00 133.00
C 155.24 132.58 155.90 131.49 156.00 131.00
C 154.46 130.33 154.43 127.36 152.00 128.00
C 151.78 128.95 152.39 130.74 151.00 131.00 Z"/>
</g>
<g fill="None" fill-opacity="0.0" stroke="#CDD2C7" stroke-opacity="1.00" stroke-width="0.3"><path d="
M 38.00 131.00 
C 37.99 131.05 38.05 141.01 38.00 139.00
C 36.26 139.39 38.25 140.78 39.00 141.00
C 40.99 137.44 39.58 132.98 40.00 129.00
C 39.17 129.16 38.15 130.13 38.00 131.00 Z"/>
</g>
<g fill="None" fill-opacity="0.0" stroke="#E8EAE5" stroke-opacity="1.00" stroke-width="0.3"><path d="
M 137.00 134.00 
C 143.23 129.78 133.86 127.71 137.00 134.00 Z"/>
</g>
<g fill="None" fill-opacity="0.0" stroke="#798962" stroke-opacity="1.00" stroke-width="0.3"><path d="
M 170.00 129.00 
C 169.92 129.19 168.08 128.81 168.00 129.00
C 167.50 135.57 169.10 141.26 168.00 147.00
C 171.60 143.85 170.00 134.56 170.00 129.00 Z"/>
</g>
<g fill="None" fill-opacity="0.0" stroke="#355208" stroke-opacity="1.00" stroke-width="0.3"><path d="
M 187.00 129.00 
C 185.28 130.89 185.48 136.04 187.00 138.00
C 187.00 135.00 187.00 132.00 187.00 129.00 Z"/>
</g>
<g fill="None" fill-opacity="0.0" stroke="#D9DDD3" stroke-opacity="1.00" stroke-width="0.3"><path d="
M 89.00 135.00 
C 90.54 126.31 81.11 134.04 89.00 135.00 Z"/>
</g>
<g fill="None" fill-opacity="0.0" stroke="#415C21" stroke-opacity="1.00" stroke-width="0.3"><path d="
M 38.00 139.00 
C 38.05 141.01 37.99 131.05 38.00 131.00
C 37.41 132.86 37.69 137.06 38.00 139.00 Z"/>
</g>
<g fill="None" fill-opacity="0.0" stroke="#7C8C67" stroke-opacity="1.00" stroke-width="0.3"><path d="
M 71.00 133.00 
C 70.92 132.79 69.17 132.36 69.00 132.00
C 71.12 135.09 66.35 140.79 71.00 143.00
C 69.13 139.75 72.14 136.06 71.00 133.00 Z"/>
</g>
<g fill="None" fill-opacity="0.0" stroke="#ADB6A1" stroke-opacity="1.00" stroke-width="0.3"><path d="
M 52.00 141.00 
C 53.23 138.80 53.81 134.83 52.00 133.00
C 50.77 135.20 50.19 139.17 52.00 141.00 Z"/>
</g>
<g fill="None" fill-opacity="0.0" stroke="#617644" stroke-opacity="1.00" stroke-width="0.3"><path d="
M 155.00 135.00 
C 155.85 137.10 152.53 139.61 155.00 141.00
C 157.82 139.42 155.01 134.65 155.00 133.00
C 154.78 133.37 155.09 134.52 155.00 135.00 Z"/>
</g>
<g fill="None" fill-opacity="0.0" stroke="#576C37" stroke-opacity="1.00" stroke-width="0.3"><path d="
M 162.00 133.00 
C 162.00 133.00 161.13 133.22 161.00 133.00
C 161.50 135.85 159.92 139.90 162.00 142.00
C 162.20 139.02 161.74 135.98 162.00 133.00 Z"/>
</g>
<g fill="None" fill-opacity="0.0" stroke="#7F8D6B" stroke-opacity="1.00" stroke-width="0.3"><path d="
M 43.00 135.00 
C 42.64 134.94 41.17 134.35 41.00 134.00
C 41.00 135.33 41.00 136.67 41.00 138.00
C 43.38 138.45 42.75 136.39 43.00 135.00 Z"/>
</g>
<g fill="None" fill-opacity="0.0" stroke="#8B9A77" stroke-opacity="1.00" stroke-width="0.3"><path d="
M 166.00 140.00 
C 167.06 132.17 162.20 134.64 166.00 140.00 Z"/>
</g>
<g fill="None" fill-opacity="0.0" stroke="#395719" stroke-opacity="1.00" stroke-width="0.3"><path d="
M 64.00 135.00 
C 64.00 135.00 63.11 135.21 63.00 135.00
C 63.47 137.52 61.97 141.23 64.00 143.00
C 64.00 140.33 64.00 137.67 64.00 135.00 Z"/>
</g>
<g fill="None" fill-opacity="0.0" stroke="#9FAA90" stroke-opacity="1.00" stroke-width="0.3"><path d="
M 131.00 141.00 
C 131.08 140.81 132.60 140.80 133.00 141.00
C 131.30 139.36 132.88 136.25 131.00 135.00
C 130.94 137.00 131.08 139.00 131.00 141.00 Z"/>
</g>
<g fill="None" fill-opacity="0.0" stroke="#8C9978" stroke-opacity="1.00" stroke-width="0.3"><path d="
M 61.00 136.00 
C 56.26 139.21 60.95 144.25 61.00 136.00 Z"/>
</g>
<g fill="None" fill-opacity="0.0" stroke="#9FAA8F" stroke-opacity="1.00" stroke-width="0.3"><path d="
M 109.00 139.00 
C 114.89 138.99 107.95 133.11 109.00 139.00 Z"/>
</g>
<g fill="None" fill-opacity="0.0" stroke="#8E9B7C" stroke-opacity="1.00" stroke-width="0.3"><path d="
M 93.00 142.00 
C 93.00 142.00 94.00 141.96 94.00 142.00
C 93.66 140.44 94.75 137.83 93.00 137.00
C 93.13 138.65 92.82 140.35 93.00 142.00 Z"/>
</g>
<g fill="None" fill-opacity="0.0" stroke="#4A6222" stroke-opacity="1.00" stroke-width="0.3"><path d="
M 149.00 140.00 
C 147.29 142.87 147.43 149.06 149.00 152.00
C 149.00 148.00 149.00 144.00 149.00 140.00 Z"/>
</g>
<g fill="None" fill-opacity="0.0" stroke="#37530D" stroke-opacity="1.00" stroke-width="0.3"><path d="
M 77.00 142.00 
C 75.28 144.54 75.44 150.39 77.00 153.00
C 77.00 149.33 77.00 145.67 77.00 142.00 Z"/>
</g>
<g fill="None" fill-opacity="0.0" stroke="#C4CABB" stroke-opacity="1.00" stroke-width="0.3"><path d="
M 125.00 148.00 
C 127.10 151.27 127.76 144.45 128.00 144.00
C 127.10 145.22 126.03 146.84 125.00 148.00 Z"/>
</g>
<g fill="None" fill-opacity="0.0" stroke="#919E80" stroke-opacity="1.00" stroke-width="0.3"><path d="
M 134.00 148.00 
C 130.87 152.55 137.16 153.79 134.00 148.00 Z"/>
</g>
<g fill="None" fill-opacity="0.0" stroke="#94A182" stroke-opacity="1.00" stroke-width="0.3"><path d="
M 92.00 150.00 
C 87.23 152.37 93.45 156.19 92.00 150.00 Z"/>
</g>
<g fill="None" fill-opacity="0.0" stroke="#95A185" stroke-opacity="1.00" stroke-width="0.3"><path d="
M 109.00 159.00 
C 109.00 159.00 108.00 159.04 108.00 159.00
C 108.34 160.56 107.25 163.17 109.00 164.00
C 109.20 162.37 108.73 160.62 109.00 159.00 Z"/>
</g>
<g fill="#FDFDFD" fill-opacity="1.00" stroke="None">
<path d="
M 0.00 225.00 
L 225.00 225.00
L 225.00 0.00
L 0.00 0.00
L 0.00 225.00
M 116.00 64.00 
C 116.40 65.48 117.26 66.88 117.00 69.00
C 116.94 69.49 117.00 70.00 117.00 70.00
C 117.00 71.86 116.62 74.18 117.00 76.00
C 117.02 76.10 118.00 76.00 118.00 76.00
C 118.00 73.03 118.77 69.89 121.00 68.00
C 121.44 70.33 119.76 72.02 119.00 74.00
C 119.20 73.76 120.00 74.00 120.00 74.00
C 122.38 72.52 124.61 73.77 126.00 76.00
C 126.39 76.21 127.00 76.00 127.00 76.00
C 127.30 73.72 126.87 71.30 127.00 69.00
C 127.09 67.34 126.93 65.66 127.00 64.00
C 128.75 64.83 127.66 67.44 128.00 69.00
C 128.31 74.03 127.24 79.33 129.00 84.00
C 131.08 81.90 129.50 77.85 130.00 75.00
C 133.23 77.75 128.17 85.88 133.00 87.00
C 133.75 84.09 133.10 82.10 133.00 79.00
C 136.47 78.86 134.44 83.85 135.00 86.00
C 137.56 79.34 137.19 88.13 142.00 88.00
C 140.35 86.08 139.12 81.43 143.00 84.00
C 143.56 81.48 141.81 77.70 144.00 76.00
C 145.96 78.51 145.04 80.92 147.00 84.00
C 149.34 83.40 146.68 76.31 149.00 78.00
C 152.01 81.01 148.93 88.02 149.00 91.00
C 149.28 93.30 148.13 96.96 152.00 96.00
C 148.62 90.83 153.46 94.42 155.00 97.00
C 155.00 91.33 155.00 85.67 155.00 80.00
C 157.90 87.02 154.11 96.67 157.00 104.00
C 159.92 95.98 156.09 85.33 159.00 77.00
C 161.24 85.55 159.08 94.78 160.00 104.00
C 162.59 102.36 159.34 97.57 162.00 96.00
C 163.99 107.05 165.83 95.85 165.00 90.00
C 167.60 95.10 164.52 102.52 167.00 108.00
C 170.85 108.52 167.39 102.94 170.00 102.00
C 169.41 104.91 171.59 107.06 171.00 110.00
C 175.06 109.07 172.08 102.30 173.00 99.00
C 175.45 101.45 172.63 106.20 175.00 109.00
C 176.23 107.27 176.91 104.00 176.00 102.00
C 179.31 107.96 179.33 124.04 176.00 130.00
C 176.70 125.88 176.52 119.89 175.00 116.00
C 173.41 117.97 174.20 120.66 174.00 123.00
C 174.03 123.50 174.00 124.50 174.00 125.00
C 174.00 126.67 174.00 128.33 174.00 130.00
C 174.00 132.84 174.79 136.98 173.00 139.00
C 171.13 134.12 171.74 127.93 173.00 123.00
C 173.22 120.55 173.62 116.65 172.00 115.00
C 169.46 119.03 169.93 124.11 170.00 129.00
C 170.00 134.56 171.60 143.85 168.00 147.00
C 169.10 141.26 167.50 135.57 168.00 129.00
C 168.00 124.83 168.82 119.34 167.00 116.00
C 165.40 120.53 167.06 130.23 165.00 132.00
C 163.10 130.10 164.38 126.62 164.00 124.00
C 162.10 126.26 163.51 130.27 162.00 133.00
C 161.74 135.98 162.20 139.02 162.00 142.00
C 159.92 139.90 161.50 135.85 161.00 133.00
C 161.00 131.67 161.00 130.33 161.00 129.00
C 160.99 125.90 162.10 122.77 160.00 125.00
C 162.77 127.95 158.76 141.07 159.00 144.00
C 156.73 138.91 158.62 131.84 158.00 126.00
C 157.82 124.21 158.98 120.64 156.00 121.00
C 156.00 124.33 156.00 127.67 156.00 131.00
C 155.90 131.49 155.24 132.58 155.00 133.00
C 155.01 134.65 157.82 139.42 155.00 141.00
C 152.53 139.61 155.85 137.10 155.00 135.00
C 154.92 133.74 153.02 130.97 154.00 129.00
C 152.98 129.20 152.09 133.18 151.00 131.00
C 151.02 131.00 151.18 126.53 149.00 128.00
C 149.00 131.00 149.00 134.00 149.00 137.00
C 144.04 135.39 146.46 148.36 145.00 153.00
C 144.34 149.15 141.76 144.92 143.00 141.00
C 140.86 139.83 136.60 138.89 140.00 136.00
C 133.44 130.43 135.46 143.63 133.00 141.00
C 132.60 140.80 131.08 140.81 131.00 141.00
C 130.84 144.99 131.12 149.00 131.00 153.00
C 128.81 149.91 130.57 144.84 130.00 141.00
C 127.97 140.36 127.94 142.69 128.00 144.00
C 127.76 144.45 127.10 151.27 125.00 148.00
C 123.25 145.28 128.31 138.69 124.00 137.00
C 120.39 143.63 121.93 150.67 121.00 158.00
C 120.16 153.85 117.42 150.86 118.00 146.00
C 115.74 150.75 117.62 157.49 117.00 163.00
C 115.68 158.92 114.87 153.33 116.00 149.00
C 113.44 150.76 113.95 154.25 110.00 152.00
C 110.67 154.61 108.66 156.45 109.00 159.00
C 108.73 160.62 109.20 162.37 109.00 164.00
C 107.25 163.17 108.34 160.56 108.00 159.00
C 107.75 155.02 108.18 150.99 108.00 147.00
C 107.24 151.53 104.67 154.93 105.00 160.00
C 102.56 153.24 105.02 145.18 101.00 139.00
C 98.41 140.77 99.60 144.99 100.00 148.00
C 97.50 147.02 96.55 144.54 97.00 142.00
C 92.96 144.62 95.90 150.87 95.00 155.00
C 92.79 151.58 94.58 146.18 94.00 142.00
C 94.00 141.96 93.00 142.00 93.00 142.00
C 89.77 141.04 92.23 137.42 90.00 136.00
C 82.90 138.44 81.44 146.41 81.00 154.00
C 77.94 149.69 82.47 133.57 76.00 139.00
C 75.68 135.66 76.84 131.94 75.00 129.00
C 73.73 130.62 73.29 134.97 73.00 130.00
C 70.97 129.36 70.94 131.69 71.00 133.00
C 72.14 136.06 69.13 139.75 71.00 143.00
C 66.35 140.79 71.12 135.09 69.00 132.00
C 68.92 128.81 69.86 124.36 68.00 122.00
C 65.75 129.17 67.61 137.41 67.00 145.00
C 65.97 147.17 64.83 140.28 65.00 138.00 C 65.17 135.72 65.79 128.41 65.00 126.00
C 63.41 124.41 64.00 129.69 64.00 131.00
C 64.00 132.33 64.00 133.67 64.00 135.00
C 64.00 137.67 64.00 140.33 64.00 143.00
C 61.97 141.23 63.47 137.52 63.00 135.00
C 62.71 131.73 62.00 128.56 62.00 125.00
C 60.74 127.95 61.51 131.84 60.00 135.00
C 57.81 131.91 59.57 126.84 59.00 123.00
C 58.79 121.09 58.13 118.32 57.00 117.00
C 57.00 125.00 57.00 133.00 57.00 141.00
C 56.96 143.20 57.79 146.61 56.00 148.00
C 53.71 141.91 55.63 133.84 55.00 127.00
C 54.92 122.94 54.75 119.55 53.00 116.00
C 50.84 118.76 52.55 123.49 52.00 127.00
C 52.07 127.85 54.61 131.24 52.00 132.00
C 49.27 127.95 52.70 121.38 50.00 117.00
C 47.97 118.77 49.47 122.48 49.00 125.00
C 48.96 127.20 49.79 130.61 48.00 132.00
C 46.96 123.55 45.06 110.62 49.00 103.00
C 49.00 104.00 49.00 105.00 49.00 106.00
C 50.69 110.24 49.54 112.24 51.00 106.00
C 53.09 107.20 50.76 111.44 54.00 112.00
C 54.90 108.17 54.28 103.23 56.00 100.00
C 56.21 103.01 57.56 105.77 57.00 109.00
C 61.30 105.12 57.93 97.41 59.00 92.00
C 59.83 86.01 60.77 102.54 61.00 103.00
C 63.74 105.69 62.95 99.38 63.00 98.00
C 65.03 99.77 63.53 103.48 64.00 106.00
C 67.11 97.19 63.61 87.55 66.00 79.00
C 68.96 86.59 65.03 97.48 68.00 105.00
C 70.96 98.08 67.03 87.85 70.00 81.00
C 69.90 86.43 71.71 91.40 71.00 97.00
C 72.26 96.92 71.56 94.94 73.00 95.00
C 70.77 92.24 72.60 88.88 73.00 86.00
C 73.27 84.04 72.79 81.97 73.00 80.00
C 74.87 81.14 73.61 84.13 74.00 86.00
C 73.79 89.47 73.79 91.48 74.00 95.00
C 74.21 95.77 74.25 97.31 76.00 97.00
C 76.00 91.00 76.00 85.00 76.00 79.00
C 78.33 80.23 75.52 88.46 79.00 84.00
C 79.89 81.29 78.34 77.78 79.00 75.00
C 80.98 75.47 78.89 78.60 81.00 79.00
C 81.68 79.95 83.56 82.90 82.00 87.00
C 84.41 82.75 85.61 85.42 84.00 89.00
C 85.77 87.48 88.76 87.01 88.00 84.00
C 89.70 87.64 91.78 83.54 91.00 81.00
C 93.50 82.33 90.43 86.74 93.00 88.00
C 95.19 84.91 93.43 79.84 94.00 76.00
C 96.72 78.28 93.23 83.79 96.00 86.00
C 97.77 81.06 96.72 75.33 97.00 70.00
C 97.10 68.34 96.92 66.66 97.00 65.00
C 98.59 67.99 99.12 72.21 99.00 76.00
C 100.29 72.96 100.68 68.96 103.00 74.00
C 104.10 74.62 104.15 76.48 106.00 76.00
C 106.65 70.22 106.43 76.75 108.00 78.00
C 107.67 72.48 108.21 67.24 109.00 62.00
C 111.22 65.75 109.41 71.49 110.00 76.00
C 112.81 76.87 111.19 71.63 114.00 74.00
C 116.27 70.27 114.37 64.49 115.00 60.00
C 116.60 60.53 115.72 62.75 116.00 64.00
M 114.00 66.00 
C 113.98 66.09 112.90 68.03 113.00 68.00
C 112.96 69.22 114.99 71.64 112.00 72.00
C 112.00 71.00 112.00 70.00 112.00 69.00
C 109.72 68.73 111.66 65.59 112.00 65.00
C 111.85 64.29 113.41 63.03 114.00 63.00
C 114.00 64.00 114.00 65.00 114.00 66.00
M 152.00 82.00 
C 152.05 82.96 151.82 84.06 152.00 85.00
C 152.37 86.99 154.93 91.95 151.00 92.00
C 151.49 89.33 151.46 87.73 151.00 85.00
C 150.94 83.02 150.91 80.98 151.00 79.00
C 151.08 77.34 150.94 75.66 151.00 74.00
C 151.90 75.88 154.28 80.16 152.00 82.00
M 169.00 84.00 
C 171.59 89.42 168.75 95.67 170.00 101.00
C 166.83 96.47 167.91 88.95 169.00 84.00
M 57.00 87.00 
C 57.56 88.49 57.02 91.39 57.00 93.00
C 56.97 95.20 57.78 98.61 56.00 100.00
C 55.68 96.83 52.88 86.07 57.00 87.00
M 181.00 95.00 
C 183.10 97.35 183.61 101.68 184.00 104.00
C 184.84 109.01 184.00 114.91 184.00 120.00
C 184.00 120.50 184.00 121.50 184.00 122.00
C 184.00 124.33 184.00 126.67 184.00 129.00
C 184.00 131.67 184.00 134.33 184.00 137.00
C 181.72 137.46 179.24 136.89 180.00 134.00
C 178.77 130.01 180.64 124.07 180.00 120.00 C 179.36 115.93 180.56 108.67 180.00 105.00 C 179.44 101.33 180.43 91.95 181.00 95.00
M 44.00 135.00 
C 43.99 134.92 43.00 135.00 43.00 135.00
C 42.75 136.39 43.38 138.45 41.00 138.00
C 41.00 136.67 41.00 135.33 41.00 134.00
C 40.97 133.00 41.00 132.00 41.00 131.00
C 41.00 128.00 41.00 125.00 41.00 122.00
C 41.00 116.79 40.39 111.17 41.00 106.00
C 41.34 103.17 43.06 102.82 43.00 103.00
C 42.94 101.12 41.25 97.15 44.00 96.00
C 43.18 98.50 46.11 108.72 45.00 115.00 C 43.89 121.28 45.84 131.38 45.00 138.00
C 43.61 137.74 44.22 135.95 44.00 135.00
M 187.00 124.00 
C 186.45 126.93 185.21 116.75 186.00 113.00 C 186.79 109.25 184.79 100.95 186.00 97.00
C 186.21 95.71 186.24 94.76 188.00 95.00
C 187.33 104.50 189.33 115.33 187.00 124.00
M 39.00 98.00 
C 39.00 108.00 39.00 118.00 39.00 128.00
C 37.35 119.07 37.32 106.85 39.00 98.00
M 198.00 133.00 
C 196.71 122.94 196.13 109.88 198.00 99.00
C 199.97 109.44 199.23 122.19 198.00 133.00
M 28.00 120.00 
C 28.00 122.00 28.00 124.00 28.00 126.00
C 28.00 129.00 28.00 132.00 28.00 135.00
C 24.76 124.58 25.80 111.30 27.00 100.00
C 29.28 105.75 27.37 113.49 28.00 120.00
M 35.00 101.00 
C 38.14 104.80 31.61 103.75 35.00 101.00
M 24.00 110.00 
C 23.88 111.31 24.00 112.69 24.00 114.00
C 24.59 118.31 25.64 123.99 25.00 129.00
C 17.96 123.90 24.03 110.87 23.00 104.00
C 23.88 105.26 26.22 108.75 24.00 110.00
M 191.00 104.00 
C 191.00 113.00 191.00 122.00 191.00 131.00
C 189.35 123.08 189.32 111.85 191.00 104.00
M 194.00 130.00 
C 193.30 127.45 194.00 123.67 194.00 121.00
C 194.00 120.50 194.00 120.00 194.00 120.00
C 194.00 116.56 192.53 109.03 194.00 106.00
C 195.53 102.85 196.00 116.88 196.00 119.00 C 196.00 121.12 195.27 134.60 194.00 130.00
M 35.00 131.00 
C 34.35 134.47 33.62 127.12 34.00 124.00 C 34.38 120.88 33.65 114.42 34.00 111.00
C 34.18 109.21 33.02 105.64 36.00 106.00
C 35.34 114.17 37.33 123.66 35.00 131.00
M 30.00 132.00 
C 27.69 124.79 30.90 113.63 31.00 107.00
C 33.31 115.09 31.35 125.16 32.00 134.00
C 31.17 133.59 30.13 133.03 30.00 132.00
M 202.00 114.00 
C 202.25 115.34 202.32 128.78 201.00 126.00
C 198.81 121.37 202.65 113.89 201.00 109.00
C 202.75 109.83 201.66 112.44 202.00 114.00
M 206.00 122.00 
C 205.99 123.92 207.05 124.99 206.00 127.00
C 204.38 122.41 204.30 114.52 206.00 110.00
C 206.35 108.93 206.21 120.27 206.00 122.00
M 19.00 111.00 
C 22.34 114.34 18.58 122.64 20.00 127.00
C 18.61 126.74 19.22 124.95 19.00 124.00
C 18.39 122.12 17.70 109.70 19.00 111.00
M 210.00 112.00 
C 210.82 113.69 209.83 125.39 209.00 121.00
C 208.08 119.15 208.45 108.80 210.00 112.00
M 217.00 116.00 
C 217.10 117.31 217.40 119.76 217.00 121.00
C 216.35 122.98 212.76 113.49 216.00 112.00
C 217.60 112.53 216.72 114.75 217.00 116.00
M 9.00 113.00 
C 10.58 115.91 10.49 120.10 9.00 123.00
C 7.46 120.72 7.28 115.21 9.00 113.00
M 16.00 125.00 
C 14.43 122.06 14.29 115.87 16.00 113.00
C 18.09 116.19 16.93 121.40 16.00 125.00
M 213.00 113.00 
C 214.39 116.14 213.12 119.37 214.00 123.00
C 210.83 121.41 211.47 115.23 213.00 113.00
M 12.00 123.00 
C 11.32 120.03 11.37 118.03 12.00 115.00
C 13.50 116.64 13.72 121.43 12.00 123.00
M 7.00 117.00 
C 8.56 123.97 1.73 118.19 7.00 117.00
M 3.00 118.00 
C 3.81 118.81 2.69 121.77 1.29 120.63 C -0.10 119.50 2.10 117.10 3.00 118.00
M 38.00 139.00 
C 37.69 137.06 37.41 132.86 38.00 131.00
C 38.15 130.13 39.17 129.16 40.00 129.00
C 39.58 132.98 40.99 137.44 39.00 141.00
C 38.25 140.78 36.26 139.39 38.00 139.00
M 187.00 129.00 
C 187.00 132.00 187.00 135.00 187.00 138.00
C 185.48 136.04 185.28 130.89 187.00 129.00
M 52.00 141.00 
C 50.19 139.17 50.77 135.20 52.00 133.00
C 53.81 134.83 53.23 138.80 52.00 141.00
M 166.00 140.00 
C 162.20 134.64 167.06 132.17 166.00 140.00
M 61.00 136.00 
C 60.95 144.25 56.26 139.21 61.00 136.00
M 149.00 140.00 
C 149.00 144.00 149.00 148.00 149.00 152.00
C 147.43 149.06 147.29 142.87 149.00 140.00
M 77.00 142.00 
C 77.00 145.67 77.00 149.33 77.00 153.00
C 75.44 150.39 75.28 144.54 77.00 142.00
M 134.00 148.00 
C 137.16 153.79 130.87 152.55 134.00 148.00
M 92.00 150.00 
C 93.45 156.19 87.23 152.37 92.00 150.00 Z"/>
</g>
<g fill="#A1AB93" fill-opacity="1.00" stroke="None">
<path d="
M 114.00 74.00 
C 114.90 73.40 116.20 73.21 117.00 70.00
C 117.00 70.00 116.94 69.49 117.00 69.00
C 115.61 67.56 116.25 66.01 116.00 64.00
C 115.72 62.75 116.60 60.53 115.00 60.00
C 114.37 64.49 116.27 70.27 114.00 74.00 Z"/>
</g>
<g fill="#536932" fill-opacity="1.00" stroke="None">
<path d="
M 103.00 74.00 
C 103.04 76.60 99.63 77.69 98.00 78.00
C 97.44 75.48 99.19 71.70 97.00 70.00
C 96.72 75.33 97.77 81.06 96.00 86.00
C 93.23 83.79 96.72 78.28 94.00 76.00
C 93.43 79.84 95.19 84.91 93.00 88.00
C 90.43 86.74 93.50 82.33 91.00 81.00
C 91.78 83.54 89.70 87.64 88.00 84.00
C 88.76 87.01 85.77 87.48 84.00 89.00
C 85.61 85.42 84.41 82.75 82.00 87.00
C 83.56 82.90 81.68 79.95 81.00 79.00
C 81.02 80.31 79.71 83.14 79.00 84.00
C 75.52 88.46 78.33 80.23 76.00 79.00
C 76.00 85.00 76.00 91.00 76.00 97.00
C 74.25 97.31 74.21 95.77 74.00 95.00
C 73.97 94.87 73.00 95.00 73.00 95.00
C 71.56 94.94 72.26 96.92 71.00 97.00
C 71.71 91.40 69.90 86.43 70.00 81.00
C 67.03 87.85 70.96 98.08 68.00 105.00
C 65.03 97.48 68.96 86.59 66.00 79.00
C 63.61 87.55 67.11 97.19 64.00 106.00
C 63.53 103.48 65.03 99.77 63.00 98.00
C 62.95 99.38 63.74 105.69 61.00 103.00
C 59.91 101.93 58.84 93.15 59.00 92.00
C 57.93 97.41 61.30 105.12 57.00 109.00
C 57.56 105.77 56.21 103.01 56.00 100.00
C 54.28 103.23 54.90 108.17 54.00 112.00
C 50.76 111.44 53.09 107.20 51.00 106.00
C 49.54 112.24 50.69 110.24 49.00 106.00
C 49.35 111.17 48.59 119.67 49.00 125.00
C 49.47 122.48 47.97 118.77 50.00 117.00
C 52.70 121.38 49.27 127.95 52.00 132.00
C 52.00 130.33 52.00 128.67 52.00 127.00
C 52.55 123.49 50.84 118.76 53.00 116.00
C 54.75 119.55 54.92 122.94 55.00 127.00
C 55.46 130.83 56.71 137.24 57.00 141.00
C 57.00 133.00 57.00 125.00 57.00 117.00
C 58.13 118.32 58.79 121.09 59.00 123.00
C 60.85 125.73 59.98 123.59 62.00 123.00
C 62.62 121.87 63.84 129.79 64.00 131.00
C 64.00 129.69 63.41 124.41 65.00 126.00
C 69.09 130.09 63.19 140.69 67.00 145.00
C 67.61 137.41 65.75 129.17 68.00 122.00
C 69.86 124.36 68.92 128.81 69.00 132.00
C 69.17 132.36 70.92 132.79 71.00 133.00
C 70.94 131.69 70.97 129.36 73.00 130.00
C 73.29 134.97 73.73 130.62 75.00 129.00
C 76.84 131.94 75.68 135.66 76.00 139.00
C 82.47 133.57 77.94 149.69 81.00 154.00
C 81.44 146.41 82.90 138.44 90.00 136.00
C 92.23 137.42 89.77 141.04 93.00 142.00
C 92.82 140.35 93.13 138.65 93.00 137.00
C 94.75 137.83 93.66 140.44 94.00 142.00
C 94.58 146.18 92.79 151.58 95.00 155.00
C 95.90 150.87 92.96 144.62 97.00 142.00
C 96.55 144.54 97.50 147.02 100.00 148.00
C 99.60 144.99 98.41 140.77 101.00 139.00
C 105.02 145.18 102.56 153.24 105.00 160.00
C 104.67 154.93 107.24 151.53 108.00 147.00
C 108.18 150.99 107.75 155.02 108.00 159.00
C 108.00 159.04 109.00 159.00 109.00 159.00
C 108.66 156.45 110.67 154.61 110.00 152.00
C 113.95 154.25 113.44 150.76 116.00 149.00
C 114.87 153.33 115.68 158.92 117.00 163.00
C 117.62 157.49 115.74 150.75 118.00 146.00
C 117.42 150.86 120.16 153.85 121.00 158.00
C 121.93 150.67 120.39 143.63 124.00 137.00
C 128.31 138.69 123.25 145.28 125.00 148.00
C 126.03 146.84 127.10 145.22 128.00 144.00
C 127.94 142.69 127.97 140.36 130.00 141.00
C 130.57 144.84 128.81 149.91 131.00 153.00
C 131.12 149.00 130.84 144.99 131.00 141.00
C 131.08 139.00 130.94 137.00 131.00 135.00
C 132.88 136.25 131.30 139.36 133.00 141.00
C 135.46 143.63 133.44 130.43 140.00 136.00
C 136.60 138.89 140.86 139.83 143.00 141.00
C 141.76 144.92 144.34 149.15 145.00 153.00
C 146.46 148.36 144.04 135.39 149.00 137.00
C 149.00 134.00 149.00 131.00 149.00 128.00
C 151.18 126.53 151.02 131.00 151.00 131.00
C 152.39 130.74 151.78 128.95 152.00 128.00
C 154.43 127.36 154.46 130.33 156.00 131.00
C 156.00 127.67 156.00 124.33 156.00 121.00
C 158.98 120.64 157.82 124.21 158.00 126.00
C 158.23 125.49 159.69 125.33 160.00 125.00
C 162.10 122.77 160.99 125.90 161.00 129.00
C 161.31 126.72 162.03 122.13 163.00 120.00
C 165.65 123.42 164.95 127.85 165.00 132.00
C 167.06 130.23 165.40 120.53 167.00 116.00
C 168.82 119.34 168.00 124.83 168.00 129.00
C 168.08 128.81 169.92 129.19 170.00 129.00
C 169.93 124.11 169.46 119.03 172.00 115.00
C 173.62 116.65 173.22 120.55 173.00 123.00
C 173.11 122.79 174.00 123.00 174.00 123.00
C 174.20 120.66 173.41 117.97 175.00 116.00
C 176.52 119.89 176.70 125.88 176.00 130.00
C 179.33 124.04 179.31 107.96 176.00 102.00
C 176.91 104.00 176.23 107.27 175.00 109.00
C 172.63 106.20 175.45 101.45 173.00 99.00
C 172.08 102.30 175.06 109.07 171.00 110.00
C 171.59 107.06 169.41 104.91 170.00 102.00
C 167.39 102.94 170.85 108.52 167.00 108.00
C 164.52 102.52 167.60 95.10 165.00 90.00
C 165.83 95.85 163.99 107.05 162.00 96.00
C 159.34 97.57 162.59 102.36 160.00 104.00
C 159.08 94.78 161.24 85.55 159.00 77.00
C 156.09 85.33 159.92 95.98 157.00 104.00
C 154.11 96.67 157.90 87.02 155.00 80.00
C 155.00 85.67 155.00 91.33 155.00 97.00
C 153.46 94.42 148.62 90.83 152.00 96.00
C 148.13 96.96 149.28 93.30 149.00 91.00
C 148.52 87.03 150.23 81.77 149.00 78.00
C 146.68 76.31 149.34 83.40 147.00 84.00
C 145.04 80.92 145.96 78.51 144.00 76.00
C 141.81 77.70 143.56 81.48 143.00 84.00
C 139.12 81.43 140.35 86.08 142.00 88.00
C 137.19 88.13 137.56 79.34 135.00 86.00
C 134.44 83.85 136.47 78.86 133.00 79.00
C 133.10 82.10 133.75 84.09 133.00 87.00
C 128.17 85.88 133.23 77.75 130.00 75.00
C 129.50 77.85 131.08 81.90 129.00 84.00
C 127.24 79.33 128.31 74.03 128.00 69.00
C 128.00 68.96 127.00 69.00 127.00 69.00
C 126.87 71.30 127.30 73.72 127.00 76.00
C 124.71 77.11 123.51 78.88 122.00 81.00
C 120.75 77.34 122.02 74.22 126.00 76.00
C 124.61 73.77 122.38 72.52 120.00 74.00
C 119.94 76.71 119.55 79.67 121.00 82.00
C 117.53 82.07 120.19 76.87 117.00 76.00
C 116.62 74.18 117.00 71.86 117.00 70.00
C 116.20 73.21 114.90 73.40 114.00 74.00
C 111.19 71.63 112.81 76.87 110.00 76.00
C 109.41 71.49 111.22 65.75 109.00 62.00
C 108.21 67.24 107.67 72.48 108.00 78.00
C 106.43 76.75 106.65 70.22 106.00 76.00
C 104.15 76.48 104.10 74.62 103.00 74.00
M 114.00 84.00 
C 115.34 91.83 108.58 85.94 114.00 84.00
M 140.00 93.00 
C 134.66 89.34 139.66 86.09 140.00 93.00
M 88.00 89.00 
C 88.26 96.03 82.66 92.78 88.00 89.00
M 94.00 112.00 
C 85.88 119.08 84.59 99.28 88.00 97.00
C 89.38 96.08 92.47 97.70 94.00 97.00
C 91.56 98.26 86.54 104.56 94.00 104.00
C 94.49 107.34 88.42 104.68 90.00 109.00
C 90.70 110.93 94.66 108.85 94.00 112.00
M 104.00 103.00 
C 99.30 95.59 98.23 104.06 99.00 110.00
C 102.73 104.87 106.65 110.82 100.97 111.97 C 95.29 113.12 96.57 104.10 97.00 100.00 C 97.43 95.90 106.71 97.11 104.00 103.00
M 108.00 104.00 
C 113.17 105.34 109.33 98.49 112.00 97.00
C 113.61 101.26 113.70 108.81 112.00 113.00
C 111.23 106.22 108.28 104.11 107.00 112.00
C 105.40 108.07 105.30 100.86 107.00 97.00
C 108.96 98.45 107.56 101.80 108.00 104.00
M 123.00 100.00 
C 124.41 102.72 124.38 106.32 123.00 109.00
C 114.36 125.73 114.77 84.07 123.00 100.00
M 132.00 97.00 
C 129.56 98.26 124.54 104.56 132.00 104.00
C 127.37 107.00 127.47 109.30 133.00 112.00
C 123.19 119.18 122.27 93.07 132.00 97.00
M 138.00 99.00 
C 134.14 104.75 143.77 103.03 142.64 108.70 C 141.52 114.36 133.57 113.24 135.00 107.00
C 136.81 107.76 139.98 112.84 140.00 107.00
C 134.64 107.28 132.59 96.40 139.03 97.03 C 145.46 97.65 141.14 107.22 138.00 99.00
M 88.00 125.00 
C 86.16 123.16 86.73 118.85 88.00 117.00
C 93.78 108.53 95.37 132.37 88.00 125.00
M 99.00 115.00 
C 98.24 116.81 93.16 119.98 99.00 120.00
C 98.85 122.63 94.43 122.08 96.00 126.00
C 94.72 123.13 92.77 113.43 99.00 115.00
M 108.00 117.00 
C 109.20 121.14 111.49 120.33 109.00 125.00
C 114.14 124.38 109.73 128.28 107.00 127.00
C 107.00 123.00 107.00 119.00 107.00 115.00
C 111.02 113.81 113.51 118.09 108.00 117.00
M 117.00 115.00 
C 118.49 118.86 118.69 123.06 120.00 127.00
C 117.51 126.08 117.17 122.46 114.00 126.00
C 114.13 122.21 114.38 117.68 117.00 115.00
M 126.00 127.00 
C 122.16 122.24 124.87 122.39 121.00 127.00
C 121.00 123.00 121.00 119.00 121.00 115.00
C 128.16 114.08 125.59 122.52 126.00 127.00
M 132.00 126.00 
C 130.62 128.91 130.00 118.12 130.00 117.00
C 130.00 116.98 126.49 114.97 130.04 115.03 C 133.59 115.10 132.30 114.85 135.00 116.00
C 130.58 116.92 132.30 122.31 132.00 126.00
M 141.00 115.00 
C 141.00 119.00 141.00 123.00 141.00 127.00
C 137.13 122.67 140.11 122.28 136.00 126.00
C 136.00 122.33 136.00 118.67 136.00 115.00
C 140.07 118.49 136.85 120.54 141.00 115.00
M 137.00 134.00 
C 133.86 127.71 143.23 129.78 137.00 134.00
M 89.00 135.00 
C 81.11 134.04 90.54 126.31 89.00 135.00
M 109.00 139.00 
C 107.95 133.11 114.89 138.99 109.00 139.00 Z"/>
</g>
<g fill="#647845" fill-opacity="1.00" stroke="None">
<path d="
M 112.00 65.00 
C 112.30 66.37 113.65 65.30 114.00 66.00
C 114.00 65.00 114.00 64.00 114.00 63.00
C 113.41 63.03 111.85 64.29 112.00 65.00 Z"/>
</g>
<g fill="#435D1F" fill-opacity="1.00" stroke="None">
<path d="
M 117.00 69.00 
C 117.26 66.88 116.40 65.48 116.00 64.00
C 116.25 66.01 115.61 67.56 117.00 69.00 Z"/>
</g>
<g fill="#859371" fill-opacity="1.00" stroke="None">
<path d="
M 127.00 69.00 
C 127.00 69.00 128.00 68.96 128.00 69.00
C 127.66 67.44 128.75 64.83 127.00 64.00
C 126.93 65.66 127.09 67.34 127.00 69.00 Z"/>
</g>
<g fill="#9FAA90" fill-opacity="1.00" stroke="None">
<path d="
M 97.00 70.00 
C 99.19 71.70 97.44 75.48 98.00 78.00
C 99.63 77.69 103.04 76.60 103.00 74.00
C 100.68 68.96 100.29 72.96 99.00 76.00
C 99.12 72.21 98.59 67.99 97.00 65.00
C 96.92 66.66 97.10 68.34 97.00 70.00 Z"/>
</g>
<g fill="#9FA991" fill-opacity="1.00" stroke="None">
<path d="
M 112.00 69.00 
C 112.02 68.66 112.65 68.09 113.00 68.00
C 112.90 68.03 113.98 66.09 114.00 66.00
C 113.65 65.30 112.30 66.37 112.00 65.00
C 111.66 65.59 109.72 68.73 112.00 69.00 Z"/>
</g>
<g fill="#596E38" fill-opacity="1.00" stroke="None">
<path d="
M 112.00 69.00 
C 112.00 70.00 112.00 71.00 112.00 72.00
C 114.99 71.64 112.96 69.22 113.00 68.00
C 112.65 68.09 112.02 68.66 112.00 69.00 Z"/>
</g>
<g fill="#657949" fill-opacity="1.00" stroke="None">
<path d="
M 118.00 76.00 
C 119.18 75.89 118.70 74.71 119.00 74.00
C 119.76 72.02 121.44 70.33 121.00 68.00
C 118.77 69.89 118.00 73.03 118.00 76.00 Z"/>
</g>
<g fill="#B5BEAA" fill-opacity="1.00" stroke="None">
<path d="
M 118.00 76.00 
C 118.00 76.00 117.02 76.10 117.00 76.00
C 120.19 76.87 117.53 82.07 121.00 82.00
C 119.55 79.67 119.94 76.71 120.00 74.00
C 120.00 74.00 119.20 73.76 119.00 74.00
C 118.70 74.71 119.18 75.89 118.00 76.00 Z"/>
</g>
<g fill="#8C9A7B" fill-opacity="1.00" stroke="None">
<path d="
M 151.00 79.00 
C 151.15 79.73 151.93 80.72 152.00 82.00
C 154.28 80.16 151.90 75.88 151.00 74.00
C 150.94 75.66 151.08 77.34 151.00 79.00 Z"/>
</g>
<g fill="#A5AF98" fill-opacity="1.00" stroke="None">
<path d="
M 79.00 84.00 
C 79.71 83.14 81.02 80.31 81.00 79.00
C 78.89 78.60 80.98 75.47 79.00 75.00
C 78.34 77.78 79.89 81.29 79.00 84.00 Z"/>
</g>
<g fill="#8D9B7A" fill-opacity="1.00" stroke="None">
<path d="
M 127.00 76.00 
C 127.00 76.00 126.39 76.21 126.00 76.00
C 122.02 74.22 120.75 77.34 122.00 81.00
C 123.51 78.88 124.71 77.11 127.00 76.00 Z"/>
</g>
<g fill="#9EA890" fill-opacity="1.00" stroke="None">
<path d="
M 149.00 91.00 
C 148.93 88.02 152.01 81.01 149.00 78.00
C 150.23 81.77 148.52 87.03 149.00 91.00 Z"/>
</g>
<g fill="#486022" fill-opacity="1.00" stroke="None">
<path d="
M 151.00 85.00 
C 151.02 85.10 152.00 85.00 152.00 85.00
C 151.82 84.06 152.05 82.96 152.00 82.00
C 151.93 80.72 151.15 79.73 151.00 79.00
C 150.91 80.98 150.94 83.02 151.00 85.00 Z"/>
</g>
<g fill="#3A5608" fill-opacity="1.00" stroke="None">
<path d="
M 73.00 86.00 
C 73.11 85.79 74.00 86.00 74.00 86.00
C 73.61 84.13 74.87 81.14 73.00 80.00
C 72.79 81.97 73.27 84.04 73.00 86.00 Z"/>
</g>
<g fill="#D1D6CA" fill-opacity="1.00" stroke="None">
<path d="
M 114.00 84.00 
C 108.58 85.94 115.34 91.83 114.00 84.00 Z"/>
</g>
<g fill="#808F6B" fill-opacity="1.00" stroke="None">
<path d="
M 169.00 84.00 
C 167.91 88.95 166.83 96.47 170.00 101.00
C 168.75 95.67 171.59 89.42 169.00 84.00 Z"/>
</g>
<g fill="#81906C" fill-opacity="1.00" stroke="None">
<path d="
M 152.00 85.00 
C 152.00 85.00 151.02 85.10 151.00 85.00
C 151.46 87.73 151.49 89.33 151.00 92.00
C 154.93 91.95 152.37 86.99 152.00 85.00 Z"/>
</g>
<g fill="#879673" fill-opacity="1.00" stroke="None">
<path d="
M 57.00 93.00 
C 56.94 91.90 54.30 88.02 57.00 87.00
C 52.88 86.07 55.68 96.83 56.00 100.00
C 57.78 98.61 56.97 95.20 57.00 93.00 Z"/>
</g>
<g fill="#8E9D7C" fill-opacity="1.00" stroke="None">
<path d="
M 73.00 95.00 
C 73.00 95.00 73.97 94.87 74.00 95.00
C 73.79 91.48 73.79 89.47 74.00 86.00
C 74.00 86.00 73.11 85.79 73.00 86.00
C 72.60 88.88 70.77 92.24 73.00 95.00 Z"/>
</g>
<g fill="#3D5812" fill-opacity="1.00" stroke="None">
<path d="
M 57.00 93.00 
C 57.02 91.39 57.56 88.49 57.00 87.00
C 54.30 88.02 56.94 91.90 57.00 93.00 Z"/>
</g>
<g fill="#D3D8CC" fill-opacity="1.00" stroke="None">
<path d="
M 140.00 93.00 
C 139.66 86.09 134.66 89.34 140.00 93.00 Z"/>
</g>
<g fill="#D7DBD1" fill-opacity="1.00" stroke="None">
<path d="
M 88.00 89.00 
C 82.66 92.78 88.26 96.03 88.00 89.00 Z"/>
</g>
<g fill="#9FA98F" fill-opacity="1.00" stroke="None">
<path d="
M 59.00 92.00 
C 58.84 93.15 59.91 101.93 61.00 103.00
C 60.77 102.54 59.83 86.01 59.00 92.00 Z"/>
</g>
<g fill="#38540C" fill-opacity="1.00" stroke="None">
<path d="
M 180.00 134.00 
C 178.95 129.05 182.37 121.07 181.00 115.00 C 179.63 108.93 182.17 101.19 181.00 95.00
C 180.43 91.95 179.44 101.33 180.00 105.00 C 180.56 108.67 179.36 115.93 180.00 120.00 C 180.64 124.07 178.77 130.01 180.00 134.00 Z"/>
</g>
<g fill="#355207" fill-opacity="1.00" stroke="None">
<path d="
M 44.00 96.00 
C 42.09 101.83 44.89 108.80 44.00 115.00 C 43.11 121.20 44.57 128.68 44.00 135.00
C 44.22 135.95 43.61 137.74 45.00 138.00
C 45.84 131.38 43.89 121.28 45.00 115.00 C 46.11 108.72 43.18 98.50 44.00 96.00 Z"/>
</g>
<g fill="#ADB6A0" fill-opacity="1.00" stroke="None">
<path d="
M 180.00 134.00 
C 179.24 136.89 181.72 137.46 184.00 137.00
C 184.00 134.33 184.00 131.67 184.00 129.00
C 183.75 126.39 182.81 124.81 184.00 122.00
C 184.00 121.50 184.00 120.50 184.00 120.00
C 181.87 114.99 184.26 108.66 184.00 104.00
C 183.61 101.68 183.10 97.35 181.00 95.00
C 182.17 101.19 179.63 108.93 181.00 115.00 C 182.37 121.07 178.95 129.05 180.00 134.00 Z"/>
</g>
<g fill="#B6BEAD" fill-opacity="1.00" stroke="None">
<path d="
M 186.00 97.00 
C 184.79 104.55 188.60 115.49 187.00 124.00
C 189.33 115.33 187.33 104.50 188.00 95.00
C 186.24 94.76 186.21 95.71 186.00 97.00 Z"/>
</g>
<g fill="#D0D5C9" fill-opacity="1.00" stroke="None">
<path d="
M 43.00 103.00 
C 43.34 112.99 42.75 123.01 43.00 133.00
C 41.74 132.92 42.44 130.94 41.00 131.00
C 41.00 132.00 40.97 133.00 41.00 134.00
C 41.17 134.35 42.64 134.94 43.00 135.00
C 43.00 135.00 43.99 134.92 44.00 135.00
C 44.57 128.68 43.11 121.20 44.00 115.00 C 44.89 108.80 42.09 101.83 44.00 96.00
C 41.25 97.15 42.94 101.12 43.00 103.00 Z"/>
</g>
<g fill="#9C8E4C" fill-opacity="1.00" stroke="None">
<path d="
M 94.00 112.00 
C 92.00 112.00 90.00 112.00 88.00 112.00
C 88.00 107.00 88.00 102.00 88.00 97.00
C 84.59 99.28 85.88 119.08 94.00 112.00 Z"/>
</g>
<g fill="#E8BC6B" fill-opacity="1.00" stroke="None">
<path d="
M 94.00 112.00 
C 94.66 108.85 90.70 110.93 90.00 109.00
C 88.42 104.68 94.49 107.34 94.00 104.00
C 86.54 104.56 91.56 98.26 94.00 97.00
C 92.47 97.70 89.38 96.08 88.00 97.00
C 88.00 102.00 88.00 107.00 88.00 112.00
C 90.00 112.00 92.00 112.00 94.00 112.00 Z"/>
</g>
<g fill="#EBBD6C" fill-opacity="1.00" stroke="None">
<path d="
M 104.00 103.00 
C 106.71 97.11 97.43 95.90 97.00 100.00 C 96.57 104.10 95.29 113.12 100.97 111.97 C 106.65 110.82 102.73 104.87 99.00 110.00
C 98.23 104.06 99.30 95.59 104.00 103.00 Z"/>
</g>
<g fill="#ECBE6D" fill-opacity="1.00" stroke="None">
<path d="
M 108.00 104.00 
C 107.56 101.80 108.96 98.45 107.00 97.00
C 105.30 100.86 105.40 108.07 107.00 112.00
C 108.28 104.11 111.23 106.22 112.00 113.00
C 113.70 108.81 113.61 101.26 112.00 97.00
C 109.33 98.49 113.17 105.34 108.00 104.00 Z"/>
</g>
<g fill="#E5BA6A" fill-opacity="1.00" stroke="None">
<path d="
M 123.00 109.00 
C 123.56 107.33 123.56 101.67 123.00 100.00
C 114.77 84.07 114.36 125.73 123.00 109.00
M 121.00 110.00 
C 116.18 109.57 117.79 102.04 119.00 99.00
C 122.82 101.02 120.24 106.49 121.00 110.00 Z"/>
</g>
<g fill="#E6BB6A" fill-opacity="1.00" stroke="None">
<path d="
M 132.00 97.00 
C 122.27 93.07 123.19 119.18 133.00 112.00
C 127.47 109.30 127.37 107.00 132.00 104.00
C 124.54 104.56 129.56 98.26 132.00 97.00 Z"/>
</g>
<g fill="#DDB566" fill-opacity="1.00" stroke="None">
<path d="
M 138.00 99.00 
C 141.14 107.22 145.46 97.65 139.03 97.03 C 132.59 96.40 134.64 107.28 140.00 107.00
C 139.98 112.84 136.81 107.76 135.00 107.00
C 133.57 113.24 141.52 114.36 142.64 108.70 C 143.77 103.03 134.14 104.75 138.00 99.00 Z"/>
</g>
<g fill="#314F03" fill-opacity="1.00" stroke="None">
<path d="
M 187.00 124.00 
C 188.60 115.49 184.79 104.55 186.00 97.00
C 184.79 100.95 186.79 109.25 186.00 113.00 C 185.21 116.75 186.45 126.93 187.00 124.00 Z"/>
</g>
<g fill="#355209" fill-opacity="1.00" stroke="None">
<path d="
M 39.00 98.00 
C 37.32 106.85 37.35 119.07 39.00 128.00
C 39.00 118.00 39.00 108.00 39.00 98.00 Z"/>
</g>
<g fill="#52682F" fill-opacity="1.00" stroke="None">
<path d="
M 121.00 110.00 
C 120.24 106.49 122.82 101.02 119.00 99.00
C 117.79 102.04 116.18 109.57 121.00 110.00 Z"/>
</g>
<g fill="#7B8B66" fill-opacity="1.00" stroke="None">
<path d="
M 198.00 133.00 
C 199.23 122.19 199.97 109.44 198.00 99.00
C 196.13 109.88 196.71 122.94 198.00 133.00 Z"/>
</g>
<g fill="#7C8C65" fill-opacity="1.00" stroke="None">
<path d="
M 28.00 126.00 
C 27.87 124.27 27.87 121.67 28.00 120.00
C 27.37 113.49 29.28 105.75 27.00 100.00
C 25.80 111.30 24.76 124.58 28.00 135.00
C 28.00 132.00 28.00 129.00 28.00 126.00 Z"/>
</g>
<g fill="#9A8D4B" fill-opacity="1.00" stroke="None">
<path d="
M 123.00 109.00 
C 124.38 106.32 124.41 102.72 123.00 100.00
C 123.56 101.67 123.56 107.33 123.00 109.00 Z"/>
</g>
<g fill="#93A183" fill-opacity="1.00" stroke="None">
<path d="
M 35.00 101.00 
C 31.61 103.75 38.14 104.80 35.00 101.00 Z"/>
</g>
<g fill="#8C997A" fill-opacity="1.00" stroke="None">
<path d="
M 41.00 106.00 
C 40.94 110.59 41.45 117.32 41.00 122.00
C 41.00 125.00 41.00 128.00 41.00 131.00
C 42.44 130.94 41.74 132.92 43.00 133.00
C 42.75 123.01 43.34 112.99 43.00 103.00
C 43.06 102.82 41.34 103.17 41.00 106.00 Z"/>
</g>
<g fill="#97A385" fill-opacity="1.00" stroke="None">
<path d="
M 49.00 125.00 
C 48.59 119.67 49.35 111.17 49.00 106.00
C 49.00 105.00 49.00 104.00 49.00 103.00
C 45.06 110.62 46.96 123.55 48.00 132.00
C 49.79 130.61 48.96 127.20 49.00 125.00 Z"/>
</g>
<g fill="#CED4C7" fill-opacity="1.00" stroke="None">
<path d="
M 24.00 114.00 
C 24.00 118.33 24.00 122.67 24.00 127.00
C 22.38 122.41 22.30 114.52 24.00 110.00
C 26.22 108.75 23.88 105.26 23.00 104.00
C 24.03 110.87 17.96 123.90 25.00 129.00
C 25.64 123.99 24.59 118.31 24.00 114.00 Z"/>
</g>
<g fill="#345103" fill-opacity="1.00" stroke="None">
<path d="
M 184.00 120.00 
C 184.00 114.91 184.84 109.01 184.00 104.00
C 184.26 108.66 181.87 114.99 184.00 120.00 Z"/>
</g>
<g fill="#3B5715" fill-opacity="1.00" stroke="None">
<path d="
M 191.00 104.00 
C 189.32 111.85 189.35 123.08 191.00 131.00
C 191.00 122.00 191.00 113.00 191.00 104.00 Z"/>
</g>
<g fill="#C0C6B8" fill-opacity="1.00" stroke="None">
<path d="
M 194.00 106.00 
C 195.16 109.28 196.29 116.90 194.00 120.00
C 194.00 120.00 194.00 120.50 194.00 121.00
C 196.20 123.97 193.72 127.53 194.00 130.00
C 195.27 134.60 196.00 121.12 196.00 119.00 C 196.00 116.88 195.53 102.85 194.00 106.00 Z"/>
</g>
<g fill="#A4AE95" fill-opacity="1.00" stroke="None">
<path d="
M 34.00 111.00 
C 34.00 116.71 36.22 124.55 35.00 131.00
C 37.33 123.66 35.34 114.17 36.00 106.00
C 33.02 105.64 34.18 109.21 34.00 111.00 Z"/>
</g>
<g fill="#5F7342" fill-opacity="1.00" stroke="None">
<path d="
M 41.00 122.00 
C 41.45 117.32 40.94 110.59 41.00 106.00
C 40.39 111.17 41.00 116.79 41.00 122.00 Z"/>
</g>
<g fill="#2F4E00" fill-opacity="1.00" stroke="None">
<path d="
M 194.00 120.00 
C 196.29 116.90 195.16 109.28 194.00 106.00
C 192.53 109.03 194.00 116.56 194.00 120.00 Z"/>
</g>
<g fill="#36530C" fill-opacity="1.00" stroke="None">
<path d="
M 30.00 132.00 
C 28.82 125.18 32.97 114.72 31.00 107.00
C 30.90 113.63 27.69 124.79 30.00 132.00 Z"/>
</g>
<g fill="#C4CABB" fill-opacity="1.00" stroke="None">
<path d="
M 30.00 132.00 
C 30.13 133.03 31.17 133.59 32.00 134.00
C 31.35 125.16 33.31 115.09 31.00 107.00
C 32.97 114.72 28.82 125.18 30.00 132.00 Z"/>
</g>
<g fill="#3B560F" fill-opacity="1.00" stroke="None">
<path d="
M 201.00 126.00 
C 202.60 122.95 202.23 117.80 202.00 114.00
C 201.66 112.44 202.75 109.83 201.00 109.00
C 202.65 113.89 198.81 121.37 201.00 126.00 Z"/>
</g>
<g fill="#9BA58D" fill-opacity="1.00" stroke="None">
<path d="
M 206.00 110.00 
C 204.95 113.22 206.01 118.58 206.00 122.00
C 206.21 120.27 206.35 108.93 206.00 110.00 Z"/>
</g>
<g fill="#BBC3B1" fill-opacity="1.00" stroke="None">
<path d="
M 19.00 124.00 
C 18.50 120.03 20.24 114.78 19.00 111.00
C 17.70 109.70 18.39 122.12 19.00 124.00 Z"/>
</g>
<g fill="#335106" fill-opacity="1.00" stroke="None">
<path d="
M 24.00 114.00 
C 24.00 112.69 23.88 111.31 24.00 110.00
C 22.30 114.52 22.38 122.41 24.00 127.00
C 24.00 122.67 24.00 118.33 24.00 114.00 Z"/>
</g>
<g fill="#5E7241" fill-opacity="1.00" stroke="None">
<path d="
M 206.00 122.00 
C 206.01 118.58 204.95 113.22 206.00 110.00
C 204.30 114.52 204.38 122.41 206.00 127.00
C 207.05 124.99 205.99 123.92 206.00 122.00 Z"/>
</g>
<g fill="#435C18" fill-opacity="1.00" stroke="None">
<path d="
M 19.00 124.00 
C 19.22 124.95 18.61 126.74 20.00 127.00
C 18.58 122.64 22.34 114.34 19.00 111.00
C 20.24 114.78 18.50 120.03 19.00 124.00 Z"/>
</g>
<g fill="#486020" fill-opacity="1.00" stroke="None">
<path d="
M 35.00 131.00 
C 36.22 124.55 34.00 116.71 34.00 111.00
C 33.65 114.42 34.38 120.88 34.00 124.00 C 33.62 127.12 34.35 134.47 35.00 131.00 Z"/>
</g>
<g fill="#AEB7A4" fill-opacity="1.00" stroke="None">
<path d="
M 209.00 121.00 
C 208.50 118.36 208.57 113.87 210.00 112.00
C 208.45 108.80 208.08 119.15 209.00 121.00 Z"/>
</g>
<g fill="#3A5615" fill-opacity="1.00" stroke="None">
<path d="
M 209.00 121.00 
C 209.83 125.39 210.82 113.69 210.00 112.00
C 208.57 113.87 208.50 118.36 209.00 121.00 Z"/>
</g>
<g fill="#81916D" fill-opacity="1.00" stroke="None">
<path d="
M 217.00 121.00 
C 214.40 120.29 217.02 116.63 217.00 116.00
C 216.72 114.75 217.60 112.53 216.00 112.00
C 212.76 113.49 216.35 122.98 217.00 121.00 Z"/>
</g>
<g fill="#808F6B" fill-opacity="1.00" stroke="None">
<path d="
M 9.00 113.00 
C 7.28 115.21 7.46 120.72 9.00 123.00
C 10.49 120.10 10.58 115.91 9.00 113.00 Z"/>
</g>
<g fill="#788860" fill-opacity="1.00" stroke="None">
<path d="
M 16.00 125.00 
C 16.93 121.40 18.09 116.19 16.00 113.00
C 14.29 115.87 14.43 122.06 16.00 125.00 Z"/>
</g>
<g fill="#869473" fill-opacity="1.00" stroke="None">
<path d="
M 213.00 113.00 
C 211.47 115.23 210.83 121.41 214.00 123.00
C 213.12 119.37 214.39 116.14 213.00 113.00 Z"/>
</g>
<g fill="#9CA68E" fill-opacity="1.00" stroke="None">
<path d="
M 201.00 126.00 
C 202.32 128.78 202.25 115.34 202.00 114.00
C 202.23 117.80 202.60 122.95 201.00 126.00 Z"/>
</g>
<g fill="#6B7E50" fill-opacity="1.00" stroke="None">
<path d="
M 12.00 123.00 
C 13.72 121.43 13.50 116.64 12.00 115.00
C 11.37 118.03 11.32 120.03 12.00 123.00 Z"/>
</g>
<g fill="#E6BA6A" fill-opacity="1.00" stroke="None">
<path d="
M 88.00 117.00 
C 87.60 117.92 87.47 124.19 88.00 125.00
C 95.37 132.37 93.78 108.53 88.00 117.00
M 90.00 125.00 
C 88.77 122.87 88.12 118.70 90.00 117.00
C 91.50 118.64 91.72 123.43 90.00 125.00 Z"/>
</g>
<g fill="#E8BD6C" fill-opacity="1.00" stroke="None">
<path d="
M 99.00 115.00 
C 92.77 113.43 94.72 123.13 96.00 126.00
C 94.43 122.08 98.85 122.63 99.00 120.00
C 93.16 119.98 98.24 116.81 99.00 115.00 Z"/>
</g>
<g fill="#D6B264" fill-opacity="1.00" stroke="None">
<path d="
M 108.00 117.00 
C 113.51 118.09 111.02 113.81 107.00 115.00
C 107.00 119.00 107.00 123.00 107.00 127.00
C 109.73 128.28 114.14 124.38 109.00 125.00
C 111.49 120.33 109.20 121.14 108.00 117.00 Z"/>
</g>
<g fill="#D7B264" fill-opacity="1.00" stroke="None">
<path d="
M 117.00 115.00 
C 114.38 117.68 114.13 122.21 114.00 126.00
C 117.17 122.46 117.51 126.08 120.00 127.00
C 118.69 123.06 118.49 118.86 117.00 115.00 Z"/>
</g>
<g fill="#C8A95E" fill-opacity="1.00" stroke="None">
<path d="
M 126.00 127.00 
C 125.59 122.52 128.16 114.08 121.00 115.00
C 121.00 119.00 121.00 123.00 121.00 127.00
C 124.87 122.39 122.16 122.24 126.00 127.00 Z"/>
</g>
<g fill="#E2BA69" fill-opacity="1.00" stroke="None">
<path d="
M 130.00 117.00 
C 130.37 119.33 130.98 123.84 132.00 126.00
C 132.30 122.31 130.58 116.92 135.00 116.00
C 132.30 114.85 133.59 115.10 130.04 115.03 C 126.49 114.97 130.00 116.98 130.00 117.00 Z"/>
</g>
<g fill="#D5B163" fill-opacity="1.00" stroke="None">
<path d="
M 141.00 115.00 
C 136.85 120.54 140.07 118.49 136.00 115.00
C 136.00 118.67 136.00 122.33 136.00 126.00
C 140.11 122.28 137.13 122.67 141.00 127.00
C 141.00 123.00 141.00 119.00 141.00 115.00 Z"/>
</g>
<g fill="#566B35" fill-opacity="1.00" stroke="None">
<path d="
M 217.00 121.00 
C 217.40 119.76 217.10 117.31 217.00 116.00
C 217.02 116.63 214.40 120.29 217.00 121.00 Z"/>
</g>
<g fill="#8E9E80" fill-opacity="1.00" stroke="None">
<path d="
M 7.00 117.00 
C 1.73 118.19 8.56 123.97 7.00 117.00 Z"/>
</g>
<g fill="#978C4A" fill-opacity="1.00" stroke="None">
<path d="
M 88.00 125.00 
C 87.47 124.19 87.60 117.92 88.00 117.00
C 86.73 118.85 86.16 123.16 88.00 125.00 Z"/>
</g>
<g fill="#546930" fill-opacity="1.00" stroke="None">
<path d="
M 90.00 125.00 
C 91.72 123.43 91.50 118.64 90.00 117.00
C 88.12 118.70 88.77 122.87 90.00 125.00 Z"/>
</g>
<g fill="#9A8D4B" fill-opacity="1.00" stroke="None">
<path d="
M 132.00 126.00 
C 130.98 123.84 130.37 119.33 130.00 117.00
C 130.00 118.12 130.62 128.91 132.00 126.00 Z"/>
</g>
<g fill="#909D7F" fill-opacity="1.00" stroke="None">
<path d="
M 3.00 118.00 
C 2.10 117.10 -0.10 119.50 1.29 120.63 C 2.69 121.77 3.81 118.81 3.00 118.00 Z"/>
</g>
<g fill="#435D14" fill-opacity="1.00" stroke="None">
<path d="
M 28.00 126.00 
C 28.00 124.00 28.00 122.00 28.00 120.00
C 27.87 121.67 27.87 124.27 28.00 126.00 Z"/>
</g>
<g fill="#9BA68B" fill-opacity="1.00" stroke="None">
<path d="
M 161.00 129.00 
C 161.00 130.33 161.00 131.67 161.00 133.00
C 161.13 133.22 162.00 133.00 162.00 133.00
C 163.51 130.27 162.10 126.26 164.00 124.00
C 164.38 126.62 163.10 130.10 165.00 132.00
C 164.95 127.85 165.65 123.42 163.00 120.00
C 162.03 122.13 161.31 126.72 161.00 129.00 Z"/>
</g>
<g fill="#304E00" fill-opacity="1.00" stroke="None">
<path d="
M 194.00 130.00 
C 193.72 127.53 196.20 123.97 194.00 121.00
C 194.00 123.67 193.30 127.45 194.00 130.00 Z"/>
</g>
<g fill="#B4BDAA" fill-opacity="1.00" stroke="None">
<path d="
M 62.00 123.00 
C 61.86 123.04 62.00 124.50 62.00 125.00
C 62.00 128.56 62.71 131.73 63.00 135.00
C 63.11 135.21 64.00 135.00 64.00 135.00
C 64.00 133.67 64.00 132.33 64.00 131.00
C 63.84 129.79 62.62 121.87 62.00 123.00 Z"/>
</g>
<g fill="#475F1B" fill-opacity="1.00" stroke="None">
<path d="
M 184.00 129.00 
C 184.00 126.67 184.00 124.33 184.00 122.00
C 182.81 124.81 183.75 126.39 184.00 129.00 Z"/>
</g>
<g fill="#798863" fill-opacity="1.00" stroke="None">
<path d="
M 62.00 125.00 
C 62.00 124.50 61.86 123.04 62.00 123.00
C 59.98 123.59 60.85 125.73 59.00 123.00
C 59.57 126.84 57.81 131.91 60.00 135.00
C 61.51 131.84 60.74 127.95 62.00 125.00 Z"/>
</g>
<g fill="#B1BAA3" fill-opacity="1.00" stroke="None">
<path d="
M 174.00 130.00 
C 173.82 127.92 172.95 127.32 174.00 125.00
C 174.00 124.50 174.03 123.50 174.00 123.00
C 174.00 123.00 173.11 122.79 173.00 123.00
C 171.74 127.93 171.13 134.12 173.00 139.00
C 174.79 136.98 174.00 132.84 174.00 130.00 Z"/>
</g>
<g fill="#768660" fill-opacity="1.00" stroke="None">
<path d="
M 158.00 126.00 
C 158.62 131.84 156.73 138.91 159.00 144.00
C 158.76 141.07 162.77 127.95 160.00 125.00
C 159.69 125.33 158.23 125.49 158.00 126.00 Z"/>
</g>
<g fill="#35530E" fill-opacity="1.00" stroke="None">
<path d="
M 174.00 130.00 
C 174.00 128.33 174.00 126.67 174.00 125.00
C 172.95 127.32 173.82 127.92 174.00 130.00 Z"/>
</g>
<g fill="#A6AF98" fill-opacity="1.00" stroke="None">
<path d="
M 67.00 145.00 
C 63.19 140.69 69.09 130.09 65.00 126.00
C 65.79 128.41 65.17 135.72 65.00 138.00 C 64.83 140.28 65.97 147.17 67.00 145.00 Z"/>
</g>
<g fill="#B5BDAC" fill-opacity="1.00" stroke="None">
<path d="
M 52.00 132.00 
C 54.61 131.24 52.07 127.85 52.00 127.00
C 52.00 128.67 52.00 130.33 52.00 132.00 Z"/>
</g>
<g fill="#939F82" fill-opacity="1.00" stroke="None">
<path d="
M 57.00 141.00 
C 56.71 137.24 55.46 130.83 55.00 127.00
C 55.63 133.84 53.71 141.91 56.00 148.00
C 57.79 146.61 56.96 143.20 57.00 141.00 Z"/>
</g>
<g fill="#A0AA91" fill-opacity="1.00" stroke="None">
<path d="
M 151.00 131.00 
C 152.09 133.18 152.98 129.20 154.00 129.00
C 153.02 130.97 154.92 133.74 155.00 135.00
C 155.09 134.52 154.78 133.37 155.00 133.00
C 155.24 132.58 155.90 131.49 156.00 131.00
C 154.46 130.33 154.43 127.36 152.00 128.00
C 151.78 128.95 152.39 130.74 151.00 131.00 Z"/>
</g>
<g fill="#CDD2C7" fill-opacity="1.00" stroke="None">
<path d="
M 38.00 131.00 
C 37.99 131.05 38.05 141.01 38.00 139.00
C 36.26 139.39 38.25 140.78 39.00 141.00
C 40.99 137.44 39.58 132.98 40.00 129.00
C 39.17 129.16 38.15 130.13 38.00 131.00 Z"/>
</g>
<g fill="#E8EAE5" fill-opacity="1.00" stroke="None">
<path d="
M 137.00 134.00 
C 143.23 129.78 133.86 127.71 137.00 134.00 Z"/>
</g>
<g fill="#798962" fill-opacity="1.00" stroke="None">
<path d="
M 170.00 129.00 
C 169.92 129.19 168.08 128.81 168.00 129.00
C 167.50 135.57 169.10 141.26 168.00 147.00
C 171.60 143.85 170.00 134.56 170.00 129.00 Z"/>
</g>
<g fill="#355208" fill-opacity="1.00" stroke="None">
<path d="
M 187.00 129.00 
C 185.28 130.89 185.48 136.04 187.00 138.00
C 187.00 135.00 187.00 132.00 187.00 129.00 Z"/>
</g>
<g fill="#D9DDD3" fill-opacity="1.00" stroke="None">
<path d="
M 89.00 135.00 
C 90.54 126.31 81.11 134.04 89.00 135.00 Z"/>
</g>
<g fill="#415C21" fill-opacity="1.00" stroke="None">
<path d="
M 38.00 139.00 
C 38.05 141.01 37.99 131.05 38.00 131.00
C 37.41 132.86 37.69 137.06 38.00 139.00 Z"/>
</g>
<g fill="#7C8C67" fill-opacity="1.00" stroke="None">
<path d="
M 71.00 133.00 
C 70.92 132.79 69.17 132.36 69.00 132.00
C 71.12 135.09 66.35 140.79 71.00 143.00
C 69.13 139.75 72.14 136.06 71.00 133.00 Z"/>
</g>
<g fill="#ADB6A1" fill-opacity="1.00" stroke="None">
<path d="
M 52.00 141.00 
C 53.23 138.80 53.81 134.83 52.00 133.00
C 50.77 135.20 50.19 139.17 52.00 141.00 Z"/>
</g>
<g fill="#617644" fill-opacity="1.00" stroke="None">
<path d="
M 155.00 135.00 
C 155.85 137.10 152.53 139.61 155.00 141.00
C 157.82 139.42 155.01 134.65 155.00 133.00
C 154.78 133.37 155.09 134.52 155.00 135.00 Z"/>
</g>
<g fill="#576C37" fill-opacity="1.00" stroke="None">
<path d="
M 162.00 133.00 
C 162.00 133.00 161.13 133.22 161.00 133.00
C 161.50 135.85 159.92 139.90 162.00 142.00
C 162.20 139.02 161.74 135.98 162.00 133.00 Z"/>
</g>
<g fill="#7F8D6B" fill-opacity="1.00" stroke="None">
<path d="
M 43.00 135.00 
C 42.64 134.94 41.17 134.35 41.00 134.00
C 41.00 135.33 41.00 136.67 41.00 138.00
C 43.38 138.45 42.75 136.39 43.00 135.00 Z"/>
</g>
<g fill="#8B9A77" fill-opacity="1.00" stroke="None">
<path d="
M 166.00 140.00 
C 167.06 132.17 162.20 134.64 166.00 140.00 Z"/>
</g>
<g fill="#395719" fill-opacity="1.00" stroke="None">
<path d="
M 64.00 135.00 
C 64.00 135.00 63.11 135.21 63.00 135.00
C 63.47 137.52 61.97 141.23 64.00 143.00
C 64.00 140.33 64.00 137.67 64.00 135.00 Z"/>
</g>
<g fill="#9FAA90" fill-opacity="1.00" stroke="None">
<path d="
M 131.00 141.00 
C 131.08 140.81 132.60 140.80 133.00 141.00
C 131.30 139.36 132.88 136.25 131.00 135.00
C 130.94 137.00 131.08 139.00 131.00 141.00 Z"/>
</g>
<g fill="#8C9978" fill-opacity="1.00" stroke="None">
<path d="
M 61.00 136.00 
C 56.26 139.21 60.95 144.25 61.00 136.00 Z"/>
</g>
<g fill="#9FAA8F" fill-opacity="1.00" stroke="None">
<path d="
M 109.00 139.00 
C 114.89 138.99 107.95 133.11 109.00 139.00 Z"/>
</g>
<g fill="#8E9B7C" fill-opacity="1.00" stroke="None">
<path d="
M 93.00 142.00 
C 93.00 142.00 94.00 141.96 94.00 142.00
C 93.66 140.44 94.75 137.83 93.00 137.00
C 93.13 138.65 92.82 140.35 93.00 142.00 Z"/>
</g>
<g fill="#4A6222" fill-opacity="1.00" stroke="None">
<path d="
M 149.00 140.00 
C 147.29 142.87 147.43 149.06 149.00 152.00
C 149.00 148.00 149.00 144.00 149.00 140.00 Z"/>
</g>
<g fill="#37530D" fill-opacity="1.00" stroke="None">
<path d="
M 77.00 142.00 
C 75.28 144.54 75.44 150.39 77.00 153.00
C 77.00 149.33 77.00 145.67 77.00 142.00 Z"/>
</g>
<g fill="#C4CABB" fill-opacity="1.00" stroke="None">
<path d="
M 125.00 148.00 
C 127.10 151.27 127.76 144.45 128.00 144.00
C 127.10 145.22 126.03 146.84 125.00 148.00 Z"/>
</g>
<g fill="#919E80" fill-opacity="1.00" stroke="None">
<path d="
M 134.00 148.00 
C 130.87 152.55 137.16 153.79 134.00 148.00 Z"/>
</g>
<g fill="#94A182" fill-opacity="1.00" stroke="None">
<path d="
M 92.00 150.00 
C 87.23 152.37 93.45 156.19 92.00 150.00 Z"/>
</g>
<g fill="#95A185" fill-opacity="1.00" stroke="None">
<path d="
M 109.00 159.00 
C 109.00 159.00 108.00 159.04 108.00 159.00
C 108.34 160.56 107.25 163.17 109.00 164.00
C 109.20 162.37 108.73 160.62 109.00 159.00 Z"/>
</g>
</svg>