<?xml version="1.0" standalone="no"?>
<!DOCTYPE svg PUBLIC "-//W3C//DTD SVG 20010904//EN"
 "http://www.w3.org/TR/2001/REC-SVG-20010904/DTD/svg10.dtd">
<svg version="1.0" xmlns="http://www.w3.org/2000/svg"
 width="60.000000pt" height="60.000000pt" viewBox="0 0 60.000000 60.000000"
 preserveAspectRatio="xMidYMid meet">

<g transform="translate(0.000000,60.000000) scale(0.100000,-0.100000)"
fill="#000000" stroke="none">
<path d="M236 460 c-31 -60 -62 -113 -69 -117 -6 -4 -41 -12 -76 -18 -36 -5
-64 -14 -64 -20 0 -5 44 -34 99 -63 150 -81 141 -72 149 -147 11 -104 16 -101
100 57 31 59 64 109 73 112 9 2 43 7 75 11 37 4 57 11 55 18 -2 7 -42 32 -89
57 -162 86 -159 83 -159 139 0 115 -25 108 -94 -29z m54 -5 c-8 -40 -9 -60 -1
-69 6 -7 64 -28 128 -47 114 -32 141 -51 43 -30 -27 6 -56 8 -65 5 -9 -4 -28
-48 -46 -108 -41 -135 -39 -130 -44 -124 -3 3 0 28 6 55 7 28 9 58 6 66 -5 14
-104 51 -206 77 -64 17 -43 23 29 9 51 -10 64 -10 75 2 11 11 75 205 75 227 0
3 3 3 6 -1 3 -3 0 -31 -6 -62z"/>
<path d="M363 493 c-15 -6 -17 -49 -3 -58 15 -9 47 3 54 20 13 34 -14 54 -51
38z"/>
<path d="M107 404 c-14 -14 -7 -44 14 -55 29 -15 59 12 43 39 -12 18 -45 28
-57 16z"/>
<path d="M438 238 c-13 -35 31 -68 56 -42 12 12 13 20 6 35 -12 21 -55 26 -62
7z"/>
<path d="M208 159 c-10 -5 -18 -21 -18 -34 0 -20 5 -25 24 -25 31 0 53 26 40
48 -14 21 -25 24 -46 11z"/>
</g>
</svg>
