<?xml version="1.0" standalone="no"?>
<!DOCTYPE svg PUBLIC "-//W3C//DTD SVG 20010904//EN"
 "http://www.w3.org/TR/2001/REC-SVG-20010904/DTD/svg10.dtd">
<svg version="1.0" xmlns="http://www.w3.org/2000/svg"
 width="225.000000pt" height="225.000000pt" viewBox="0 0 225.000000 225.000000"
 preserveAspectRatio="xMidYMid meet">
<metadata>
Created by potrace 1.16, written by Peter Selinger 2001-2019
</metadata>
<g transform="translate(0.000000,225.000000) scale(0.100000,-0.100000)"
fill="#000000" stroke="none">
<path d="M0 1125 l0 -1125 1125 0 1125 0 0 1125 0 1125 -1125 0 -1125 0 0
-1125z m1082 330 c45 -16 51 -16 95 2 32 12 74 18 124 18 65 0 85 -5 141 -33
78 -38 139 -101 176 -180 22 -47 26 -72 27 -137 0 -69 -5 -89 -31 -145 -79
-167 -262 -249 -429 -192 -60 20 -61 20 -115 2 -131 -46 -277 -7 -372 98 -178
197 -86 506 171 579 55 15 148 10 213 -12z"/>
<path d="M840 1423 c-64 -23 -161 -122 -183 -187 -53 -157 12 -322 157 -396
62 -31 76 -35 145 -34 42 1 88 6 103 12 l28 11 -43 44 c-95 95 -128 226 -88
355 17 58 32 83 76 131 l55 59 -31 11 c-46 16 -166 12 -219 -6z"/>
<path d="M1187 1428 l-27 -10 46 -44 c25 -25 57 -70 72 -102 23 -49 27 -70 27
-147 0 -82 -3 -97 -33 -157 -18 -36 -50 -82 -71 -101 l-40 -36 37 -13 c62 -21
159 -15 222 14 78 35 125 80 161 153 34 70 42 155 20 232 -25 90 -121 188
-209 213 -46 12 -168 12 -205 -2z"/>
<path d="M1082 1364 c-62 -53 -106 -149 -106 -233 0 -86 25 -158 76 -215 63
-72 70 -74 123 -25 24 23 57 67 72 98 24 47 28 68 28 136 -1 94 -22 149 -81
214 -57 64 -65 66 -112 25z m104 -120 c127 -61 79 -254 -63 -254 -113 0 -174
140 -96 222 47 50 98 61 159 32z"/>
<path d="M1078 1215 c-91 -51 -63 -178 41 -192 37 -5 44 -2 77 31 33 33 36 40
31 78 -10 75 -87 118 -149 83z"/>
</g>
</svg>
