<?xml version="1.0" standalone="no"?>
<!DOCTYPE svg PUBLIC "-//W3C//DTD SVG 20010904//EN"
 "http://www.w3.org/TR/2001/REC-SVG-20010904/DTD/svg10.dtd">
<svg version="1.0" xmlns="http://www.w3.org/2000/svg"
 width="200.000000pt" height="200.000000pt" viewBox="0 0 200.000000 200.000000"
 preserveAspectRatio="xMidYMid meet">
<metadata>
Created by potrace 1.16, written by Peter Selinger 2001-2019
</metadata>
<g transform="translate(0.000000,200.000000) scale(0.100000,-0.100000)"
fill="#000000" stroke="none">
<path d="M0 1000 l0 -1000 1000 0 1000 0 0 1000 0 1000 -1000 0 -1000 0 0
-1000z m664 710 c66 -172 139 -311 198 -375 l49 -54 0 -83 c0 -46 0 -105 1
-131 1 -64 -11 -75 -54 -49 -56 35 -114 104 -154 182 -20 41 -55 103 -77 138
l-39 62 21 51 c31 71 19 86 -13 16 -29 -64 -53 -188 -63 -319 -3 -49 -9 -88
-13 -88 -11 0 -51 96 -57 136 -3 19 -9 34 -13 34 -23 0 -68 -194 -48 -206 4
-3 8 4 8 16 0 28 40 121 50 115 4 -2 15 -33 25 -67 30 -108 99 -237 184 -346
151 -192 196 -299 188 -448 -6 -141 -8 -141 -118 -43 -52 46 -126 115 -164
154 -61 61 -73 79 -93 140 -26 82 -70 302 -79 394 -5 47 -12 70 -29 88 -32 35
-50 95 -79 273 -25 157 -31 230 -17 230 4 0 19 -14 33 -32 l26 -31 31 22 c56
39 172 175 202 235 17 32 30 75 30 95 0 50 10 33 64 -109z m730 -5 c33 -55
202 -235 222 -235 7 0 22 16 34 36 16 25 26 32 33 25 11 -11 -11 -199 -42
-351 -17 -83 -53 -170 -70 -170 -4 0 -11 29 -14 65 -4 36 -16 87 -28 113 l-22
47 -13 -45 c-22 -74 -45 -130 -53 -130 -4 0 -13 53 -20 117 -6 65 -19 149 -28
188 -16 73 -62 176 -62 140 0 -11 6 -31 14 -45 21 -37 18 -77 -9 -113 -13 -18
-45 -75 -72 -127 -62 -123 -183 -245 -212 -215 -4 4 -6 67 -6 142 l2 135 34
36 c75 79 128 177 215 401 24 63 47 119 51 125 4 6 9 -11 12 -39 3 -30 17 -70
34 -100z m147 -628 c25 -92 0 -301 -63 -517 -21 -73 -24 -78 -132 -185 -120
-119 -224 -211 -231 -203 -2 2 -9 37 -15 77 -22 157 28 290 182 487 95 122
162 248 195 365 17 61 17 61 35 39 10 -12 23 -41 29 -63z"/>
</g>
</svg>
