<svg version="1.1" id="Layer_1" xmlns="http://www.w3.org/2000/svg" xmlns:xlink="http://www.w3.org/1999/xlink" x="0px" y="0px"
	 width="100%" viewBox="0 0 200 200" enable-background="new 0 0 200 200" xml:space="preserve">
<path fill="#010101" opacity="1.000000" stroke="none" 
	d="
M89.000000,201.000000 
	C59.333336,201.000000 30.166670,201.000000 1.000004,201.000000 
	C1.000003,134.333344 1.000003,67.666679 1.000001,1.000013 
	C67.666656,1.000009 134.333313,1.000009 200.999969,1.000004 
	C200.999985,67.666649 200.999985,134.333298 201.000000,200.999969 
	C163.833328,201.000000 126.666664,201.000000 89.000000,201.000000 
M26.674467,64.160851 
	C26.083242,64.771729 24.983856,65.376854 24.976854,65.994362 
	C24.868082,75.587151 24.900793,85.181541 24.900793,94.818939 
	C27.629974,94.818939 29.869251,94.818939 32.646538,94.818939 
	C32.646538,89.424194 32.646538,84.256210 32.646538,79.088219 
	C35.098164,81.946312 36.611332,84.984421 38.130100,88.019730 
	C42.045025,95.843819 42.046013,95.843323 51.493046,94.621391 
	C51.493046,84.608582 51.493046,74.573112 51.493046,64.379547 
	C48.940342,64.379547 46.697964,64.379547 44.012733,64.379547 
	C44.012733,70.122581 44.012733,75.650993 44.012733,81.179405 
	C43.754055,81.231148 43.495377,81.282890 43.236698,81.334633 
	C40.406643,75.629723 37.576584,69.924812 34.713730,64.153778 
	C32.234730,64.153778 29.911699,64.153778 26.674467,64.160851 
M30.111645,107.232826 
	C25.567387,109.868561 24.240559,113.850670 25.585218,118.727097 
	C26.952648,123.686096 30.722038,125.336166 35.490295,125.353279 
	C37.322060,125.359856 39.196884,125.115112 40.972008,125.432617 
	C42.386822,125.685677 43.680035,126.618576 45.027225,127.249687 
	C43.735222,127.901260 42.467171,129.051376 41.146912,129.114807 
	C36.397655,129.343002 31.630781,129.204422 26.721268,129.204422 
	C26.721268,132.100571 26.721268,134.361618 26.721268,136.965546 
	C32.738770,136.965546 38.545151,137.230591 44.315544,136.888535 
	C49.727543,136.567703 53.074749,132.449280 52.933094,127.144348 
	C52.789803,121.778099 49.358776,118.230118 43.824017,117.895798 
	C41.334679,117.745438 38.801487,118.066185 36.344639,117.743446 
	C35.164101,117.588371 34.114613,116.435699 33.005775,115.734795 
	C34.156860,115.119942 35.288387,114.021927 36.462444,113.974396 
	C41.386303,113.775040 46.322899,113.890244 51.379639,113.890244 
	C51.379639,111.002693 51.379639,108.753479 51.379639,105.700935 
	C44.337120,106.129105 37.605145,106.538399 30.111645,107.232826 
M85.275566,64.955170 
	C75.987503,62.841766 67.862404,67.126602 66.036674,75.100952 
	C63.870949,84.560272 68.171776,92.403954 76.758537,94.655067 
	C84.131195,96.587891 92.326630,92.543823 94.730721,85.786621 
	C97.810844,77.129280 94.494286,69.247925 85.275566,64.955170 
M85.063187,125.340981 
	C85.951508,126.364822 87.451378,127.304306 87.606552,128.429276 
	C87.981346,131.146439 87.728149,133.950211 87.728149,136.735916 
	C90.499184,136.735916 92.744865,136.735916 94.887024,136.735916 
	C94.887024,126.415642 94.887024,116.365181 94.887024,106.310471 
	C92.417969,106.310471 90.315224,106.310471 87.590759,106.310471 
	C87.590759,110.233757 87.590759,113.946320 87.590759,117.523880 
	C82.880867,117.523880 78.800568,117.523880 74.281044,117.523880 
	C74.281044,113.617035 74.281044,110.028679 74.281044,106.399368 
	C71.588829,106.399368 69.364540,106.399368 67.208412,106.399368 
	C67.208412,116.767494 67.208412,126.820724 67.208412,136.648743 
	C69.795517,136.648743 72.025948,136.648743 74.719925,136.648743 
	C74.719925,132.714737 74.719925,129.141266 74.719925,125.332649 
	C78.183098,125.332649 81.173096,125.332649 85.063187,125.340981 
M133.138748,91.741875 
	C138.834976,86.837021 139.220016,80.518410 137.406891,73.942528 
	C135.756546,67.956879 131.000015,65.028084 125.206413,64.409790 
	C120.176674,63.873013 115.044296,64.298103 109.815369,64.298103 
	C109.815369,67.007111 109.815369,69.273216 109.815369,71.944778 
	C113.998062,71.944778 117.952454,71.911430 121.906059,71.952736 
	C127.577774,72.011993 130.758820,74.886467 130.686676,79.814346 
	C130.617905,84.511497 127.560616,87.220016 122.062752,87.317307 
	C117.989738,87.389374 113.914429,87.331474 109.874588,87.331474 
	C109.874588,90.376816 109.874588,92.627029 109.874588,96.438057 
	C117.806137,94.937576 125.158455,93.546669 133.138748,91.741875 
M165.574020,136.545959 
	C173.735657,133.716324 177.398071,128.518326 176.861389,120.525963 
	C176.346176,112.853363 172.065613,107.480370 164.467438,106.469391 
	C159.131912,105.759460 153.625687,106.332268 148.241669,106.332268 
	C148.241669,108.956528 148.241669,111.221275 148.241669,113.886147 
	C152.605133,113.886147 156.734131,113.831459 160.861115,113.899704 
	C166.274765,113.989212 169.110886,116.744789 169.050812,121.720772 
	C168.993668,126.452576 166.250214,129.075165 161.042267,129.184158 
	C156.771561,129.273544 152.497467,129.202347 148.192352,129.202347 
	C148.192352,132.089905 148.192352,134.359238 148.192352,136.791977 
	C153.842834,136.791977 159.295761,136.791977 165.574020,136.545959 
M164.506302,71.959045 
	C168.600952,71.959045 172.695602,71.959045 176.767029,71.959045 
	C176.767029,69.103386 176.767029,66.741158 176.767029,64.493851 
	C168.386948,64.493851 160.369446,64.493851 152.408554,64.493851 
	C152.408554,67.105400 152.408554,69.347618 152.408554,71.959045 
	C156.298386,71.959045 159.908066,71.959045 164.506302,71.959045 
M153.133835,87.473106 
	C152.706024,89.866264 152.278214,92.259422 151.819763,94.824020 
	C160.773148,94.824020 168.805878,94.824020 176.930710,94.824020 
	C176.930710,92.319443 176.930710,90.066673 176.930710,87.329163 
	C169.172668,87.329163 161.602951,87.329163 153.133835,87.473106 
M134.108185,109.521446 
	C133.399017,108.371017 132.721756,106.245239 131.975754,106.220848 
	C124.422844,105.973816 116.858704,106.070160 109.396538,106.070160 
	C109.396538,108.999374 109.396538,111.248741 109.396538,113.897942 
	C116.941681,113.897942 124.203316,113.787926 131.458755,113.952156 
	C134.355286,114.017715 134.175385,112.334015 134.108185,109.521446 
M110.971077,129.217041 
	C110.146835,131.615921 109.322586,134.014801 108.384178,136.745941 
	C117.817116,136.745941 125.877945,136.745941 133.884384,136.745941 
	C133.884384,134.198624 133.884384,131.930206 133.884384,129.204407 
	C126.409363,129.204407 119.150284,129.204407 110.971077,129.217041 
M155.032333,83.464912 
	C162.285797,83.464912 169.539261,83.464912 176.862946,83.464912 
	C176.862946,80.739807 176.862946,78.495102 176.862946,76.166611 
	C168.590118,76.166611 160.554504,76.166611 151.143616,76.166611 
	C152.314667,79.020447 153.223694,81.235718 155.032333,83.464912 
M129.459747,125.336235 
	C130.895004,125.336235 132.330276,125.336235 133.799866,125.336235 
	C133.799866,122.582542 133.799866,120.350868 133.799866,118.202408 
	C125.453957,118.202408 117.395935,118.202408 109.378708,118.202408 
	C109.378708,120.656059 109.378708,122.754486 109.378708,125.339050 
	C115.891960,125.339050 122.178825,125.339050 129.459747,125.336235 
z"/>
<path fill="#F6F6F6" opacity="1.000000" stroke="none" 
	d="
M27.131569,64.157318 
	C29.911699,64.153778 32.234730,64.153778 34.713730,64.153778 
	C37.576584,69.924812 40.406643,75.629723 43.236698,81.334633 
	C43.495377,81.282890 43.754055,81.231148 44.012733,81.179405 
	C44.012733,75.650993 44.012733,70.122581 44.012733,64.379547 
	C46.697964,64.379547 48.940342,64.379547 51.493046,64.379547 
	C51.493046,74.573112 51.493046,84.608582 51.493046,94.621391 
	C42.046013,95.843323 42.045025,95.843819 38.130100,88.019730 
	C36.611332,84.984421 35.098164,81.946312 32.646538,79.088219 
	C32.646538,84.256210 32.646538,89.424194 32.646538,94.818939 
	C29.869251,94.818939 27.629974,94.818939 24.900793,94.818939 
	C24.900793,85.181541 24.868082,75.587151 24.976854,65.994362 
	C24.983856,65.376854 26.083242,64.771729 27.131569,64.157318 
z"/>
<path fill="#F5F5F5" opacity="1.000000" stroke="none" 
	d="
M30.492409,107.090256 
	C37.605145,106.538399 44.337120,106.129105 51.379639,105.700935 
	C51.379639,108.753479 51.379639,111.002693 51.379639,113.890244 
	C46.322899,113.890244 41.386303,113.775040 36.462444,113.974396 
	C35.288387,114.021927 34.156860,115.119942 33.005775,115.734795 
	C34.114613,116.435699 35.164101,117.588371 36.344639,117.743446 
	C38.801487,118.066185 41.334679,117.745438 43.824017,117.895798 
	C49.358776,118.230118 52.789803,121.778099 52.933094,127.144348 
	C53.074749,132.449280 49.727543,136.567703 44.315544,136.888535 
	C38.545151,137.230591 32.738770,136.965546 26.721268,136.965546 
	C26.721268,134.361618 26.721268,132.100571 26.721268,129.204422 
	C31.630781,129.204422 36.397655,129.343002 41.146912,129.114807 
	C42.467171,129.051376 43.735222,127.901260 45.027225,127.249687 
	C43.680035,126.618576 42.386822,125.685677 40.972008,125.432617 
	C39.196884,125.115112 37.322060,125.359856 35.490295,125.353279 
	C30.722038,125.336166 26.952648,123.686096 25.585218,118.727097 
	C24.240559,113.850670 25.567387,109.868561 30.492409,107.090256 
z"/>
<path fill="#F6F6F6" opacity="1.000000" stroke="none" 
	d="
M85.659439,65.048660 
	C94.494286,69.247925 97.810844,77.129280 94.730721,85.786621 
	C92.326630,92.543823 84.131195,96.587891 76.758537,94.655067 
	C68.171776,92.403954 63.870949,84.560272 66.036674,75.100952 
	C67.862404,67.126602 75.987503,62.841766 85.659439,65.048660 
M86.659821,75.035362 
	C81.764214,70.631950 76.310272,71.040833 74.000526,76.070007 
	C72.385422,79.586716 72.606468,83.441856 75.877098,85.370148 
	C78.132080,86.699638 82.070885,87.053055 84.393753,85.977676 
	C88.616173,84.022888 88.814850,79.863869 86.659821,75.035362 
z"/>
<path fill="#FDFDFD" opacity="1.000000" stroke="none" 
	d="
M84.613144,125.336815 
	C81.173096,125.332649 78.183098,125.332649 74.719925,125.332649 
	C74.719925,129.141266 74.719925,132.714737 74.719925,136.648743 
	C72.025948,136.648743 69.795517,136.648743 67.208412,136.648743 
	C67.208412,126.820724 67.208412,116.767494 67.208412,106.399368 
	C69.364540,106.399368 71.588829,106.399368 74.281044,106.399368 
	C74.281044,110.028679 74.281044,113.617035 74.281044,117.523880 
	C78.800568,117.523880 82.880867,117.523880 87.590759,117.523880 
	C87.590759,113.946320 87.590759,110.233757 87.590759,106.310471 
	C90.315224,106.310471 92.417969,106.310471 94.887024,106.310471 
	C94.887024,116.365181 94.887024,126.415642 94.887024,136.735916 
	C92.744865,136.735916 90.499184,136.735916 87.728149,136.735916 
	C87.728149,133.950211 87.981346,131.146439 87.606552,128.429276 
	C87.451378,127.304306 85.951508,126.364822 84.613144,125.336815 
z"/>
<path fill="#F5F5F5" opacity="1.000000" stroke="none" 
	d="
M132.824768,91.948822 
	C125.158455,93.546669 117.806137,94.937576 109.874588,96.438057 
	C109.874588,92.627029 109.874588,90.376816 109.874588,87.331474 
	C113.914429,87.331474 117.989738,87.389374 122.062752,87.317307 
	C127.560616,87.220016 130.617905,84.511497 130.686676,79.814346 
	C130.758820,74.886467 127.577774,72.011993 121.906059,71.952736 
	C117.952454,71.911430 113.998062,71.944778 109.815369,71.944778 
	C109.815369,69.273216 109.815369,67.007111 109.815369,64.298103 
	C115.044296,64.298103 120.176674,63.873013 125.206413,64.409790 
	C131.000015,65.028084 135.756546,67.956879 137.406891,73.942528 
	C139.220016,80.518410 138.834976,86.837021 132.824768,91.948822 
z"/>
<path fill="#F4F4F4" opacity="1.000000" stroke="none" 
	d="
M165.161362,136.668976 
	C159.295761,136.791977 153.842834,136.791977 148.192352,136.791977 
	C148.192352,134.359238 148.192352,132.089905 148.192352,129.202347 
	C152.497467,129.202347 156.771561,129.273544 161.042267,129.184158 
	C166.250214,129.075165 168.993668,126.452576 169.050812,121.720772 
	C169.110886,116.744789 166.274765,113.989212 160.861115,113.899704 
	C156.734131,113.831459 152.605133,113.886147 148.241669,113.886147 
	C148.241669,111.221275 148.241669,108.956528 148.241669,106.332268 
	C153.625687,106.332268 159.131912,105.759460 164.467438,106.469391 
	C172.065613,107.480370 176.346176,112.853363 176.861389,120.525963 
	C177.398071,128.518326 173.735657,133.716324 165.161362,136.668976 
z"/>
<path fill="#F0F0F0" opacity="1.000000" stroke="none" 
	d="
M164.012024,71.959045 
	C159.908066,71.959045 156.298386,71.959045 152.408554,71.959045 
	C152.408554,69.347618 152.408554,67.105400 152.408554,64.493851 
	C160.369446,64.493851 168.386948,64.493851 176.767029,64.493851 
	C176.767029,66.741158 176.767029,69.103386 176.767029,71.959045 
	C172.695602,71.959045 168.600952,71.959045 164.012024,71.959045 
z"/>
<path fill="#F0F0F0" opacity="1.000000" stroke="none" 
	d="
M153.583527,87.401138 
	C161.602951,87.329163 169.172668,87.329163 176.930710,87.329163 
	C176.930710,90.066673 176.930710,92.319443 176.930710,94.824020 
	C168.805878,94.824020 160.773148,94.824020 151.819763,94.824020 
	C152.278214,92.259422 152.706024,89.866264 153.583527,87.401138 
z"/>
<path fill="#F0F0F0" opacity="1.000000" stroke="none" 
	d="
M134.107391,109.988411 
	C134.175385,112.334015 134.355286,114.017715 131.458755,113.952156 
	C124.203316,113.787926 116.941681,113.897942 109.396538,113.897942 
	C109.396538,111.248741 109.396538,108.999374 109.396538,106.070160 
	C116.858704,106.070160 124.422844,105.973816 131.975754,106.220848 
	C132.721756,106.245239 133.399017,108.371017 134.107391,109.988411 
z"/>
<path fill="#F2F2F2" opacity="1.000000" stroke="none" 
	d="
M111.431137,129.210724 
	C119.150284,129.204407 126.409363,129.204407 133.884384,129.204407 
	C133.884384,131.930206 133.884384,134.198624 133.884384,136.745941 
	C125.877945,136.745941 117.817116,136.745941 108.384178,136.745941 
	C109.322586,134.014801 110.146835,131.615921 111.431137,129.210724 
z"/>
<path fill="#FCFCFC" opacity="1.000000" stroke="none" 
	d="
M154.582520,83.457947 
	C153.223694,81.235718 152.314667,79.020447 151.143616,76.166611 
	C160.554504,76.166611 168.590118,76.166611 176.862946,76.166611 
	C176.862946,78.495102 176.862946,80.739807 176.862946,83.464912 
	C169.539261,83.464912 162.285797,83.464912 154.582520,83.457947 
z"/>
<path fill="#FCFCFC" opacity="1.000000" stroke="none" 
	d="
M128.962708,125.337646 
	C122.178825,125.339050 115.891960,125.339050 109.378708,125.339050 
	C109.378708,122.754486 109.378708,120.656059 109.378708,118.202408 
	C117.395935,118.202408 125.453957,118.202408 133.799866,118.202408 
	C133.799866,120.350868 133.799866,122.582542 133.799866,125.336235 
	C132.330276,125.336235 130.895004,125.336235 128.962708,125.337646 
z"/>
<path fill="#080808" opacity="1.000000" stroke="none" 
	d="
M86.843124,75.387596 
	C88.814850,79.863869 88.616173,84.022888 84.393753,85.977676 
	C82.070885,87.053055 78.132080,86.699638 75.877098,85.370148 
	C72.606468,83.441856 72.385422,79.586716 74.000526,76.070007 
	C76.310272,71.040833 81.764214,70.631950 86.843124,75.387596 
z"/>
</svg>