<svg xmlns="http://www.w3.org/2000/svg" xmlns:v="https://svgstorm.com"
viewBox = "0 0 200 200"
width="200"
height="200">
<g fill="None" fill-opacity="0.0" stroke="#FEFEFE" stroke-opacity="1.00" stroke-width="0.3"><path d="
M 0.00 47.00 
C 66.67 47.00 133.33 47.00 200.00 47.00
L 200.00 0.00
L 0.00 0.00
L 0.00 47.00 Z"/>
</g>
<g fill="None" fill-opacity="0.0" stroke="#D8292E" stroke-opacity="1.00" stroke-width="0.3"><path d="
M 0.00 154.00 
C 66.67 154.00 133.33 154.00 200.00 154.00
L 200.00 47.00
C 133.33 47.00 66.67 47.00 0.00 47.00
L 0.00 154.00
M 45.00 87.00 
C 33.98 83.86 41.28 89.31 45.30 95.70 C 49.33 102.08 34.89 108.47 34.00 98.00
C 37.64 94.49 38.17 101.27 42.00 100.00
C 42.54 93.40 34.74 92.68 35.00 86.00 C 35.27 79.31 46.27 79.60 45.00 87.00
M 69.00 100.00 
C 67.35 96.47 67.11 88.43 69.00 85.00
C 76.39 71.60 84.34 94.55 79.67 100.67 C 75.00 106.79 71.08 104.44 69.00 100.00
M 92.00 82.00 
C 99.53 86.15 90.05 96.90 95.00 103.00
C 91.00 103.79 90.91 98.63 90.00 96.00
C 86.34 93.16 89.11 107.62 84.32 103.66 C 79.53 99.71 85.03 93.80 83.00 88.00 C 80.97 82.20 87.01 79.25 92.00 82.00
M 124.00 82.00 
C 124.39 82.81 123.69 84.15 124.00 85.00
C 122.00 85.00 120.00 85.00 118.00 85.00
C 116.90 88.89 119.15 90.97 123.00 90.00
C 124.24 93.78 121.02 94.54 118.00 94.00
C 119.02 107.00 112.61 104.09 113.00 94.00 C 113.39 83.91 112.84 77.99 124.00 82.00
M 145.00 87.00 
C 142.03 87.69 141.05 83.19 138.00 86.00
C 139.67 91.65 147.10 92.99 145.67 99.67 C 144.24 106.35 132.19 103.92 136.00 97.00
C 138.52 96.84 138.68 101.31 142.00 100.00
C 143.04 93.64 134.08 92.37 135.00 86.00 C 135.92 79.62 146.41 79.72 145.00 87.00
M 160.00 82.00 
C 163.14 87.04 157.64 97.47 160.00 103.00
C 159.00 103.00 158.00 103.00 157.00 103.00
C 154.49 101.78 156.83 96.18 156.00 94.00
C 150.23 92.94 155.03 101.09 152.00 103.00
C 151.19 103.39 149.85 102.69 149.00 103.00
C 149.00 96.00 149.00 89.00 149.00 82.00
C 151.86 77.42 154.73 87.99 153.00 90.00
C 158.98 91.63 153.24 77.56 160.00 82.00
M 53.00 94.00 
C 53.57 89.99 54.43 86.04 55.00 82.00
C 60.61 81.70 58.53 89.44 60.00 93.00
C 63.05 90.22 59.97 81.61 66.00 82.00
C 63.70 88.51 66.47 100.90 59.00 103.00
C 57.91 98.78 58.32 93.53 56.00 90.00
C 57.86 93.76 53.00 107.16 50.23 100.77 C 47.47 94.37 49.52 88.29 47.00 82.00
C 53.88 81.41 49.33 91.12 53.00 94.00
M 99.00 103.00 
C 99.00 96.00 99.00 89.00 99.00 82.00
C 114.74 75.73 114.77 109.26 99.00 103.00
M 128.00 103.00 
C 128.00 96.00 128.00 89.00 128.00 82.00
C 132.88 83.64 132.94 101.35 128.00 103.00
M 41.00 113.00 
C 41.06 112.87 42.84 111.82 43.00 112.00
C 46.91 111.13 47.43 115.10 47.00 118.00
C 43.85 118.82 46.17 114.51 44.00 114.00
C 44.34 115.12 44.32 117.59 43.00 118.00
C 42.54 118.14 42.00 118.00 42.00 118.00
C 40.57 117.80 39.46 116.42 38.00 118.00
C 37.41 115.09 39.59 112.94 39.00 110.00
C 41.03 109.36 41.06 111.69 41.00 113.00
M 53.00 112.00 
C 55.07 113.51 57.39 113.55 56.00 118.00
C 54.04 114.00 55.03 114.20 53.00 118.00
C 52.07 118.59 50.54 118.86 50.00 118.00
C 49.02 116.45 49.93 110.99 51.00 110.00
C 51.85 110.64 52.09 111.34 53.00 112.00
M 59.00 113.00 
C 59.04 113.14 60.00 113.00 60.00 113.00
C 62.16 111.04 62.87 112.55 63.00 115.00
C 63.06 116.10 63.34 117.61 62.00 118.00
C 61.54 118.13 60.50 118.00 60.00 118.00
C 59.50 118.00 59.00 118.00 59.00 118.00
C 55.40 117.47 57.63 112.75 57.00 110.00
C 58.29 110.44 59.21 111.58 59.00 113.00
M 79.00 118.00 
C 78.52 118.09 78.00 118.00 78.00 118.00
C 77.65 117.97 77.10 117.35 77.00 117.00
C 77.03 117.04 75.15 117.97 75.00 118.00
C 72.14 118.53 72.34 117.19 72.00 115.00
C 71.95 114.65 71.11 114.26 71.00 114.00
C 70.77 114.91 69.85 117.28 69.00 118.00
C 69.45 116.01 67.64 111.77 71.00 112.00
C 72.48 110.72 74.81 113.25 76.00 113.00
C 76.27 110.45 76.71 111.58 78.00 112.00
C 78.45 112.15 79.53 111.88 80.00 112.00
C 82.95 112.79 85.23 112.89 87.00 110.00
C 88.67 113.97 85.19 122.07 83.00 115.00
C 81.74 116.24 81.89 118.91 79.00 118.00
M 92.00 111.00 
C 92.23 110.91 94.66 112.79 96.00 110.00
C 95.44 112.52 97.19 116.30 95.00 118.00
C 94.05 115.15 92.15 116.41 91.00 118.00
C 88.28 114.38 90.52 111.60 92.00 111.00
M 106.00 110.00 
C 105.84 112.74 110.38 114.38 107.00 118.00
C 104.70 118.15 105.68 115.48 104.00 114.00
C 103.74 120.17 94.24 118.95 97.00 112.00
C 100.21 112.56 103.95 112.94 106.00 110.00
M 116.00 112.00 
C 117.68 111.94 115.84 110.89 119.00 112.00
C 118.97 111.99 122.51 112.98 122.00 113.00
C 122.72 112.96 123.22 112.13 124.00 112.00
C 124.97 111.84 126.02 112.13 127.00 112.00
C 126.44 114.52 128.19 118.30 126.00 120.00
C 125.04 120.96 120.28 118.24 118.00 118.00
C 114.94 117.67 109.21 119.60 109.03 114.97 C 108.84 110.34 115.04 112.03 116.00 112.00
M 134.00 115.00 
C 134.01 115.07 135.00 115.00 135.00 115.00
C 135.36 112.84 136.46 111.49 139.00 112.00
C 138.44 114.52 140.19 118.30 138.00 120.00
C 135.86 122.14 135.67 118.89 134.00 118.00
C 132.46 117.18 131.53 116.87 130.00 118.00
C 129.41 115.09 131.59 112.94 131.00 110.00
C 133.52 109.70 133.35 113.30 134.00 115.00
M 68.00 112.00 
C 68.99 114.36 67.82 122.71 64.77 120.21 C 61.72 117.71 63.89 110.11 68.00 112.00
M 143.00 115.00 
C 143.05 115.92 143.36 117.83 142.00 118.00
C 139.05 119.18 138.77 109.77 143.00 112.00
C 143.00 113.00 143.00 114.00 143.00 115.00
M 148.00 118.00 
C 143.92 118.38 143.53 116.02 144.00 112.00
C 147.88 110.99 148.46 115.21 148.00 118.00
M 157.00 112.00 
C 156.47 114.72 156.37 119.58 153.00 120.00
C 155.06 117.79 153.38 113.08 150.00 114.00
C 150.60 115.99 153.64 118.39 149.00 118.00
C 147.16 111.32 153.07 112.34 157.00 112.00 Z"/>
</g>
<g fill="None" fill-opacity="0.0" stroke="#F9E5E1" stroke-opacity="1.00" stroke-width="0.3"><path d="
M 45.00 87.00 
C 46.27 79.60 35.27 79.31 35.00 86.00 C 34.74 92.68 42.54 93.40 42.00 100.00
C 38.17 101.27 37.64 94.49 34.00 98.00
C 34.89 108.47 49.33 102.08 45.30 95.70 C 41.28 89.31 33.98 83.86 45.00 87.00 Z"/>
</g>
<g fill="None" fill-opacity="0.0" stroke="#FAEBE9" stroke-opacity="1.00" stroke-width="0.3"><path d="
M 69.00 85.00 
C 67.98 87.79 68.14 97.14 69.00 100.00
C 71.08 104.44 75.00 106.79 79.67 100.67 C 84.34 94.55 76.39 71.60 69.00 85.00
M 73.00 99.00 
C 71.12 97.12 71.17 87.83 73.00 86.00
C 73.67 84.85 74.72 85.03 76.00 85.00
C 76.00 90.00 76.00 95.00 76.00 100.00
C 75.00 99.89 73.27 100.47 73.00 99.00 Z"/>
</g>
<g fill="None" fill-opacity="0.0" stroke="#E98081" stroke-opacity="1.00" stroke-width="0.3"><path d="
M 90.00 96.00 
C 89.21 94.97 88.70 93.58 87.00 94.00
C 87.00 97.00 87.00 100.00 87.00 103.00
C 80.51 100.70 85.64 88.34 84.00 82.00
C 86.67 82.00 89.33 82.00 92.00 82.00
C 87.01 79.25 80.97 82.20 83.00 88.00 C 85.03 93.80 79.53 99.71 84.32 103.66 C 89.11 107.62 86.34 93.16 90.00 96.00 Z"/>
</g>
<g fill="None" fill-opacity="0.0" stroke="#E98383" stroke-opacity="1.00" stroke-width="0.3"><path d="
M 118.00 85.00 
C 115.12 87.51 118.06 92.59 122.00 91.00
C 118.15 93.06 115.54 97.02 117.00 103.00
C 110.51 100.70 115.64 88.34 114.00 82.00
C 117.33 82.00 120.67 82.00 124.00 82.00
C 112.84 77.99 113.39 83.91 113.00 94.00 C 112.61 104.09 119.02 107.00 118.00 94.00
C 121.02 94.54 124.24 93.78 123.00 90.00
C 119.15 90.97 116.90 88.89 118.00 85.00 Z"/>
</g>
<g fill="None" fill-opacity="0.0" stroke="#FAE9E6" stroke-opacity="1.00" stroke-width="0.3"><path d="
M 145.00 87.00 
C 146.41 79.72 135.92 79.62 135.00 86.00 C 134.08 92.37 143.04 93.64 142.00 100.00
C 138.68 101.31 138.52 96.84 136.00 97.00
C 132.19 103.92 144.24 106.35 145.67 99.67 C 147.10 92.99 139.67 91.65 138.00 86.00
C 141.05 83.19 142.03 87.69 145.00 87.00 Z"/>
</g>
<g fill="None" fill-opacity="0.0" stroke="#EF9D9C" stroke-opacity="1.00" stroke-width="0.3"><path d="
M 149.00 82.00 
C 150.00 82.00 151.00 82.00 152.00 82.00
C 148.95 92.63 160.04 92.63 157.00 82.00
C 158.00 82.00 159.00 82.00 160.00 82.00
C 153.24 77.56 158.98 91.63 153.00 90.00
C 154.73 87.99 151.86 77.42 149.00 82.00 Z"/>
</g>
<g fill="None" fill-opacity="0.0" stroke="#FBEBE8" stroke-opacity="1.00" stroke-width="0.3"><path d="
M 53.00 94.00 
C 49.33 91.12 53.88 81.41 47.00 82.00
C 49.52 88.29 47.47 94.37 50.23 100.77 C 53.00 107.16 57.86 93.76 56.00 90.00
C 58.32 93.53 57.91 98.78 59.00 103.00
C 66.47 100.90 63.70 88.51 66.00 82.00
C 59.97 81.61 63.05 90.22 60.00 93.00
C 58.53 89.44 60.61 81.70 55.00 82.00
C 54.43 86.04 53.57 89.99 53.00 94.00 Z"/>
</g>
<g fill="None" fill-opacity="0.0" stroke="#FBF3F0" stroke-opacity="1.00" stroke-width="0.3"><path d="
M 90.00 96.00 
C 90.91 98.63 91.00 103.79 95.00 103.00
C 90.05 96.90 99.53 86.15 92.00 82.00
C 89.33 82.00 86.67 82.00 84.00 82.00
C 85.64 88.34 80.51 100.70 87.00 103.00
C 87.00 100.00 87.00 97.00 87.00 94.00
C 88.70 93.58 89.21 94.97 90.00 96.00
M 91.00 90.00 
C 90.41 91.80 88.73 92.20 87.00 92.00
C 87.52 89.81 85.86 86.38 88.00 85.00
C 91.06 83.51 91.62 88.12 91.00 90.00 Z"/>
</g>
<g fill="None" fill-opacity="0.0" stroke="#FBF7F4" stroke-opacity="1.00" stroke-width="0.3"><path d="
M 99.00 103.00 
C 114.77 109.26 114.74 75.73 99.00 82.00
C 99.00 89.00 99.00 96.00 99.00 103.00
M 106.00 86.00 
C 106.19 86.41 106.00 87.00 106.00 87.00
C 107.85 89.50 107.46 95.52 106.00 98.00
C 105.34 99.12 105.33 100.87 103.00 100.00
C 99.58 98.73 103.49 86.81 102.00 84.00
C 103.57 83.70 105.61 84.25 106.00 86.00 Z"/>
</g>
<g fill="None" fill-opacity="0.0" stroke="#FBF8F5" stroke-opacity="1.00" stroke-width="0.3"><path d="
M 118.00 85.00 
C 120.00 85.00 122.00 85.00 124.00 85.00
C 123.69 84.15 124.39 82.81 124.00 82.00
C 120.67 82.00 117.33 82.00 114.00 82.00
C 115.64 88.34 110.51 100.70 117.00 103.00
C 115.54 97.02 118.15 93.06 122.00 91.00
C 118.06 92.59 115.12 87.51 118.00 85.00 Z"/>
</g>
<g fill="None" fill-opacity="0.0" stroke="#FCFDFB" stroke-opacity="1.00" stroke-width="0.3"><path d="
M 128.00 103.00 
C 132.94 101.35 132.88 83.64 128.00 82.00
C 128.00 89.00 128.00 96.00 128.00 103.00 Z"/>
</g>
<g fill="None" fill-opacity="0.0" stroke="#FCFAF9" stroke-opacity="1.00" stroke-width="0.3"><path d="
M 152.00 103.00 
C 148.86 91.27 160.13 91.27 157.00 103.00
C 158.00 103.00 159.00 103.00 160.00 103.00
C 157.64 97.47 163.14 87.04 160.00 82.00
C 159.00 82.00 158.00 82.00 157.00 82.00
C 160.04 92.63 148.95 92.63 152.00 82.00
C 151.00 82.00 150.00 82.00 149.00 82.00
C 149.00 89.00 149.00 96.00 149.00 103.00
C 149.85 102.69 151.19 103.39 152.00 103.00 Z"/>
</g>
<g fill="None" fill-opacity="0.0" stroke="#EE8D8B" stroke-opacity="1.00" stroke-width="0.3"><path d="
M 103.00 100.00 
C 103.00 95.00 103.00 90.00 103.00 85.00
C 104.28 84.47 104.86 85.97 106.00 86.00
C 105.61 84.25 103.57 83.70 102.00 84.00
C 103.49 86.81 99.58 98.73 103.00 100.00 Z"/>
</g>
<g fill="None" fill-opacity="0.0" stroke="#EB7E81" stroke-opacity="1.00" stroke-width="0.3"><path d="
M 69.00 100.00 
C 68.14 97.14 67.98 87.79 69.00 85.00
C 67.11 88.43 67.35 96.47 69.00 100.00 Z"/>
</g>
<g fill="None" fill-opacity="0.0" stroke="#D6282C" stroke-opacity="1.00" stroke-width="0.3"><path d="
M 73.00 86.00 
C 72.25 87.30 72.25 97.70 73.00 99.00
C 73.27 100.47 75.00 99.89 76.00 100.00
C 76.00 95.00 76.00 90.00 76.00 85.00
C 74.72 85.03 73.67 84.85 73.00 86.00 Z"/>
</g>
<g fill="None" fill-opacity="0.0" stroke="#EF9496" stroke-opacity="1.00" stroke-width="0.3"><path d="
M 91.00 90.00 
C 90.64 90.82 88.70 90.94 88.00 91.00
C 88.00 89.00 88.00 87.00 88.00 85.00
C 85.86 86.38 87.52 89.81 87.00 92.00
C 88.73 92.20 90.41 91.80 91.00 90.00 Z"/>
</g>
<g fill="None" fill-opacity="0.0" stroke="#D82A2F" stroke-opacity="1.00" stroke-width="0.3"><path d="
M 91.00 90.00 
C 91.62 88.12 91.06 83.51 88.00 85.00
C 88.00 87.00 88.00 89.00 88.00 91.00
C 88.70 90.94 90.64 90.82 91.00 90.00 Z"/>
</g>
<g fill="None" fill-opacity="0.0" stroke="#D7292E" stroke-opacity="1.00" stroke-width="0.3"><path d="
M 103.00 100.00 
C 105.33 100.87 105.34 99.12 106.00 98.00
C 107.04 95.23 106.00 89.99 106.00 87.00
C 106.00 87.00 106.19 86.41 106.00 86.00
C 104.86 85.97 104.28 84.47 103.00 85.00
C 103.00 90.00 103.00 95.00 103.00 100.00 Z"/>
</g>
<g fill="None" fill-opacity="0.0" stroke="#EA8482" stroke-opacity="1.00" stroke-width="0.3"><path d="
M 73.00 99.00 
C 72.25 97.70 72.25 87.30 73.00 86.00
C 71.17 87.83 71.12 97.12 73.00 99.00 Z"/>
</g>
<g fill="None" fill-opacity="0.0" stroke="#F0A9A9" stroke-opacity="1.00" stroke-width="0.3"><path d="
M 106.00 98.00 
C 107.46 95.52 107.85 89.50 106.00 87.00
C 106.00 89.99 107.04 95.23 106.00 98.00 Z"/>
</g>
<g fill="None" fill-opacity="0.0" stroke="#F2A4A1" stroke-opacity="1.00" stroke-width="0.3"><path d="
M 152.00 103.00 
C 155.03 101.09 150.23 92.94 156.00 94.00
C 156.83 96.18 154.49 101.78 157.00 103.00
C 160.13 91.27 148.86 91.27 152.00 103.00 Z"/>
</g>
<g fill="None" fill-opacity="0.0" stroke="#F5C7C0" stroke-opacity="1.00" stroke-width="0.3"><path d="
M 42.00 118.00 
C 41.61 116.31 41.62 114.65 41.00 113.00
C 41.06 111.69 41.03 109.36 39.00 110.00
C 39.59 112.94 37.41 115.09 38.00 118.00
C 39.46 116.42 40.57 117.80 42.00 118.00 Z"/>
</g>
<g fill="None" fill-opacity="0.0" stroke="#F8DBCE" stroke-opacity="1.00" stroke-width="0.3"><path d="
M 50.00 118.00 
C 49.71 117.46 52.29 111.58 51.00 110.00
C 49.93 110.99 49.02 116.45 50.00 118.00 Z"/>
</g>
<g fill="None" fill-opacity="0.0" stroke="#E86E70" stroke-opacity="1.00" stroke-width="0.3"><path d="
M 50.00 118.00 
C 50.54 118.86 52.07 118.59 53.00 118.00
C 52.53 116.17 53.63 113.78 53.00 112.00
C 52.09 111.34 51.85 110.64 51.00 110.00
C 52.29 111.58 49.71 117.46 50.00 118.00 Z"/>
</g>
<g fill="None" fill-opacity="0.0" stroke="#F5C0B6" stroke-opacity="1.00" stroke-width="0.3"><path d="
M 59.00 118.00 
C 57.64 116.61 57.58 114.11 59.00 113.00
C 59.21 111.58 58.29 110.44 57.00 110.00
C 57.63 112.75 55.40 117.47 59.00 118.00 Z"/>
</g>
<g fill="None" fill-opacity="0.0" stroke="#F5BDB7" stroke-opacity="1.00" stroke-width="0.3"><path d="
M 80.00 112.00 
C 80.16 112.43 78.99 116.93 79.00 118.00
C 81.89 118.91 81.74 116.24 83.00 115.00
C 85.19 122.07 88.67 113.97 87.00 110.00
C 85.23 112.89 82.95 112.79 80.00 112.00 Z"/>
</g>
<g fill="None" fill-opacity="0.0" stroke="#ED7D7C" stroke-opacity="1.00" stroke-width="0.3"><path d="
M 91.00 118.00 
C 91.52 115.81 89.86 112.38 92.00 111.00
C 90.52 111.60 88.28 114.38 91.00 118.00 Z"/>
</g>
<g fill="None" fill-opacity="0.0" stroke="#F6CDC9" stroke-opacity="1.00" stroke-width="0.3"><path d="
M 92.00 111.00 
C 89.86 112.38 91.52 115.81 91.00 118.00
C 92.15 116.41 94.05 115.15 95.00 118.00
C 97.19 116.30 95.44 112.52 96.00 110.00
C 94.66 112.79 92.23 110.91 92.00 111.00 Z"/>
</g>
<g fill="None" fill-opacity="0.0" stroke="#F3B7B3" stroke-opacity="1.00" stroke-width="0.3"><path d="
M 106.00 110.00 
C 103.95 112.94 100.21 112.56 97.00 112.00
C 94.24 118.95 103.74 120.17 104.00 114.00
C 105.68 115.48 104.70 118.15 107.00 118.00
C 110.38 114.38 105.84 112.74 106.00 110.00 Z"/>
</g>
<g fill="None" fill-opacity="0.0" stroke="#F1A7A5" stroke-opacity="1.00" stroke-width="0.3"><path d="
M 118.00 118.00 
C 118.71 115.12 117.72 113.70 116.00 112.00
C 115.04 112.03 108.84 110.34 109.03 114.97 C 109.21 119.60 114.94 117.67 118.00 118.00 Z"/>
</g>
<g fill="None" fill-opacity="0.0" stroke="#E56464" stroke-opacity="1.00" stroke-width="0.3"><path d="
M 116.00 112.00 
C 117.72 113.70 118.71 115.12 118.00 118.00
C 120.28 118.24 125.04 120.96 126.00 120.00
C 121.93 121.78 124.07 112.11 124.00 112.00
C 123.22 112.13 122.72 112.96 122.00 113.00
C 121.44 114.45 122.43 116.50 122.00 118.00
C 120.04 114.00 121.03 114.20 119.00 118.00
C 119.00 116.00 119.00 114.00 119.00 112.00
C 115.84 110.89 117.68 111.94 116.00 112.00 Z"/>
</g>
<g fill="None" fill-opacity="0.0" stroke="#F4C2BF" stroke-opacity="1.00" stroke-width="0.3"><path d="
M 134.00 118.00 
C 133.93 117.73 133.82 115.17 134.00 115.00
C 133.35 113.30 133.52 109.70 131.00 110.00
C 131.59 112.94 129.41 115.09 130.00 118.00
C 131.53 116.87 132.46 117.18 134.00 118.00 Z"/>
</g>
<g fill="None" fill-opacity="0.0" stroke="#F7CCCC" stroke-opacity="1.00" stroke-width="0.3"><path d="
M 76.00 113.00 
C 75.96 113.38 76.84 116.46 77.00 117.00
C 77.10 117.35 77.65 117.97 78.00 118.00
C 77.83 117.18 77.51 112.58 78.00 112.00
C 76.71 111.58 76.27 110.45 76.00 113.00 Z"/>
</g>
<g fill="None" fill-opacity="0.0" stroke="#E56C6B" stroke-opacity="1.00" stroke-width="0.3"><path d="
M 41.00 113.00 
C 41.62 114.65 41.61 116.31 42.00 118.00
C 42.00 118.00 42.54 118.14 43.00 118.00
C 43.45 116.69 43.00 114.39 43.00 113.00
C 43.00 112.50 43.00 112.00 43.00 112.00
C 42.84 111.82 41.06 112.87 41.00 113.00 Z"/>
</g>
<g fill="None" fill-opacity="0.0" stroke="#F3ADA9" stroke-opacity="1.00" stroke-width="0.3"><path d="
M 43.00 113.00 
C 43.12 113.26 43.87 113.65 44.00 114.00
C 46.17 114.51 43.85 118.82 47.00 118.00
C 47.43 115.10 46.91 111.13 43.00 112.00
C 43.00 112.00 43.00 112.50 43.00 113.00 Z"/>
</g>
<g fill="None" fill-opacity="0.0" stroke="#F6C7C4" stroke-opacity="1.00" stroke-width="0.3"><path d="
M 53.00 118.00 
C 55.03 114.20 54.04 114.00 56.00 118.00
C 57.39 113.55 55.07 113.51 53.00 112.00
C 53.63 113.78 52.53 116.17 53.00 118.00 Z"/>
</g>
<g fill="None" fill-opacity="0.0" stroke="#F5D0C8" stroke-opacity="1.00" stroke-width="0.3"><path d="
M 60.00 113.00 
C 60.31 113.90 60.31 117.10 60.00 118.00
C 60.50 118.00 61.54 118.13 62.00 118.00
C 61.95 116.56 60.10 114.77 61.00 113.00
C 62.26 113.08 61.56 115.06 63.00 115.00
C 62.87 112.55 62.16 111.04 60.00 113.00 Z"/>
</g>
<g fill="None" fill-opacity="0.0" stroke="#F3AFAC" stroke-opacity="1.00" stroke-width="0.3"><path d="
M 68.00 112.00 
C 63.89 110.11 61.72 117.71 64.77 120.21 C 67.82 122.71 68.99 114.36 68.00 112.00 Z"/>
</g>
<g fill="None" fill-opacity="0.0" stroke="#F7CCCF" stroke-opacity="1.00" stroke-width="0.3"><path d="
M 71.00 114.00 
C 70.82 113.58 70.75 112.21 71.00 112.00
C 67.64 111.77 69.45 116.01 69.00 118.00
C 69.85 117.28 70.77 114.91 71.00 114.00 Z"/>
</g>
<g fill="None" fill-opacity="0.0" stroke="#F09493" stroke-opacity="1.00" stroke-width="0.3"><path d="
M 71.00 114.00 
C 71.11 114.26 71.95 114.65 72.00 115.00
C 73.42 114.41 73.91 114.22 75.00 113.00
C 75.00 114.67 75.00 116.33 75.00 118.00
C 75.15 117.97 77.03 117.04 77.00 117.00
C 76.84 116.46 75.96 113.38 76.00 113.00
C 74.81 113.25 72.48 110.72 71.00 112.00
C 70.75 112.21 70.82 113.58 71.00 114.00 Z"/>
</g>
<g fill="None" fill-opacity="0.0" stroke="#E56363" stroke-opacity="1.00" stroke-width="0.3"><path d="
M 78.00 118.00 
C 78.00 118.00 78.52 118.09 79.00 118.00
C 78.99 116.93 80.16 112.43 80.00 112.00
C 79.53 111.88 78.45 112.15 78.00 112.00
C 77.51 112.58 77.83 117.18 78.00 118.00 Z"/>
</g>
<g fill="None" fill-opacity="0.0" stroke="#F6CFCA" stroke-opacity="1.00" stroke-width="0.3"><path d="
M 122.00 113.00 
C 122.51 112.98 118.97 111.99 119.00 112.00
C 119.00 114.00 119.00 116.00 119.00 118.00
C 121.03 114.20 120.04 114.00 122.00 118.00
C 122.43 116.50 121.44 114.45 122.00 113.00 Z"/>
</g>
<g fill="None" fill-opacity="0.0" stroke="#F6BCBA" stroke-opacity="1.00" stroke-width="0.3"><path d="
M 126.00 120.00 
C 128.19 118.30 126.44 114.52 127.00 112.00
C 126.02 112.13 124.97 111.84 124.00 112.00
C 124.07 112.11 121.93 121.78 126.00 120.00 Z"/>
</g>
<g fill="None" fill-opacity="0.0" stroke="#F4C1BE" stroke-opacity="1.00" stroke-width="0.3"><path d="
M 135.00 115.00 
C 136.59 118.20 136.57 119.01 138.00 120.00
C 140.19 118.30 138.44 114.52 139.00 112.00
C 136.46 111.49 135.36 112.84 135.00 115.00 Z"/>
</g>
<g fill="None" fill-opacity="0.0" stroke="#F7D3CC" stroke-opacity="1.00" stroke-width="0.3"><path d="
M 142.00 118.00 
C 140.99 118.13 140.86 113.53 141.00 113.00
C 142.26 113.08 141.56 115.06 143.00 115.00
C 143.00 114.00 143.00 113.00 143.00 112.00
C 138.77 109.77 139.05 119.18 142.00 118.00 Z"/>
</g>
<g fill="None" fill-opacity="0.0" stroke="#F4B7B4" stroke-opacity="1.00" stroke-width="0.3"><path d="
M 148.00 118.00 
C 148.46 115.21 147.88 110.99 144.00 112.00
C 143.53 116.02 143.92 118.38 148.00 118.00 Z"/>
</g>
<g fill="None" fill-opacity="0.0" stroke="#F2B9B7" stroke-opacity="1.00" stroke-width="0.3"><path d="
M 157.00 112.00 
C 153.07 112.34 147.16 111.32 149.00 118.00
C 153.64 118.39 150.60 115.99 150.00 114.00
C 153.38 113.08 155.06 117.79 153.00 120.00
C 156.37 119.58 156.47 114.72 157.00 112.00 Z"/>
</g>
<g fill="None" fill-opacity="0.0" stroke="#FAE6E5" stroke-opacity="1.00" stroke-width="0.3"><path d="
M 43.00 118.00 
C 44.32 117.59 44.34 115.12 44.00 114.00
C 43.87 113.65 43.12 113.26 43.00 113.00
C 43.00 114.39 43.45 116.69 43.00 118.00 Z"/>
</g>
<g fill="None" fill-opacity="0.0" stroke="#E78183" stroke-opacity="1.00" stroke-width="0.3"><path d="
M 59.00 118.00 
C 59.00 118.00 59.50 118.00 60.00 118.00
C 60.31 117.10 60.31 113.90 60.00 113.00
C 60.00 113.00 59.04 113.14 59.00 113.00
C 57.58 114.11 57.64 116.61 59.00 118.00 Z"/>
</g>
<g fill="None" fill-opacity="0.0" stroke="#F2A2A4" stroke-opacity="1.00" stroke-width="0.3"><path d="
M 62.00 118.00 
C 63.34 117.61 63.06 116.10 63.00 115.00
C 61.56 115.06 62.26 113.08 61.00 113.00
C 60.10 114.77 61.95 116.56 62.00 118.00 Z"/>
</g>
<g fill="None" fill-opacity="0.0" stroke="#F6D3CD" stroke-opacity="1.00" stroke-width="0.3"><path d="
M 72.00 115.00 
C 72.34 117.19 72.14 118.53 75.00 118.00
C 75.00 116.33 75.00 114.67 75.00 113.00
C 73.91 114.22 73.42 114.41 72.00 115.00 Z"/>
</g>
<g fill="None" fill-opacity="0.0" stroke="#F1A6AE" stroke-opacity="1.00" stroke-width="0.3"><path d="
M 142.00 118.00 
C 143.36 117.83 143.05 115.92 143.00 115.00
C 141.56 115.06 142.26 113.08 141.00 113.00
C 140.86 113.53 140.99 118.13 142.00 118.00 Z"/>
</g>
<g fill="None" fill-opacity="0.0" stroke="#EC7676" stroke-opacity="1.00" stroke-width="0.3"><path d="
M 134.00 118.00 
C 135.67 118.89 135.86 122.14 138.00 120.00
C 136.57 119.01 136.59 118.20 135.00 115.00
C 135.00 115.00 134.01 115.07 134.00 115.00
C 133.82 115.17 133.93 117.73 134.00 118.00 Z"/>
</g>
<g fill="None" fill-opacity="0.0" stroke="#FEFEFE" stroke-opacity="1.00" stroke-width="0.3"><path d="
M 0.00 200.00 
L 200.00 200.00
L 200.00 154.00
C 133.33 154.00 66.67 154.00 0.00 154.00
L 0.00 200.00 Z"/>
</g>
<g fill="#FEFEFE" fill-opacity="1.00" stroke="None">
<path d="
M 0.00 47.00 
C 66.67 47.00 133.33 47.00 200.00 47.00
L 200.00 0.00
L 0.00 0.00
L 0.00 47.00 Z"/>
</g>
<g fill="#D8292E" fill-opacity="1.00" stroke="None">
<path d="
M 0.00 154.00 
C 66.67 154.00 133.33 154.00 200.00 154.00
L 200.00 47.00
C 133.33 47.00 66.67 47.00 0.00 47.00
L 0.00 154.00
M 45.00 87.00 
C 33.98 83.86 41.28 89.31 45.30 95.70 C 49.33 102.08 34.89 108.47 34.00 98.00
C 37.64 94.49 38.17 101.27 42.00 100.00
C 42.54 93.40 34.74 92.68 35.00 86.00 C 35.27 79.31 46.27 79.60 45.00 87.00
M 69.00 100.00 
C 67.35 96.47 67.11 88.43 69.00 85.00
C 76.39 71.60 84.34 94.55 79.67 100.67 C 75.00 106.79 71.08 104.44 69.00 100.00
M 92.00 82.00 
C 99.53 86.15 90.05 96.90 95.00 103.00
C 91.00 103.79 90.91 98.63 90.00 96.00
C 86.34 93.16 89.11 107.62 84.32 103.66 C 79.53 99.71 85.03 93.80 83.00 88.00 C 80.97 82.20 87.01 79.25 92.00 82.00
M 124.00 82.00 
C 124.39 82.81 123.69 84.15 124.00 85.00
C 122.00 85.00 120.00 85.00 118.00 85.00
C 116.90 88.89 119.15 90.97 123.00 90.00
C 124.24 93.78 121.02 94.54 118.00 94.00
C 119.02 107.00 112.61 104.09 113.00 94.00 C 113.39 83.91 112.84 77.99 124.00 82.00
M 145.00 87.00 
C 142.03 87.69 141.05 83.19 138.00 86.00
C 139.67 91.65 147.10 92.99 145.67 99.67 C 144.24 106.35 132.19 103.92 136.00 97.00
C 138.52 96.84 138.68 101.31 142.00 100.00
C 143.04 93.64 134.08 92.37 135.00 86.00 C 135.92 79.62 146.41 79.72 145.00 87.00
M 160.00 82.00 
C 163.14 87.04 157.64 97.47 160.00 103.00
C 159.00 103.00 158.00 103.00 157.00 103.00
C 154.49 101.78 156.83 96.18 156.00 94.00
C 150.23 92.94 155.03 101.09 152.00 103.00
C 151.19 103.39 149.85 102.69 149.00 103.00
C 149.00 96.00 149.00 89.00 149.00 82.00
C 151.86 77.42 154.73 87.99 153.00 90.00
C 158.98 91.63 153.24 77.56 160.00 82.00
M 53.00 94.00 
C 53.57 89.99 54.43 86.04 55.00 82.00
C 60.61 81.70 58.53 89.44 60.00 93.00
C 63.05 90.22 59.97 81.61 66.00 82.00
C 63.70 88.51 66.47 100.90 59.00 103.00
C 57.91 98.78 58.32 93.53 56.00 90.00
C 57.86 93.76 53.00 107.16 50.23 100.77 C 47.47 94.37 49.52 88.29 47.00 82.00
C 53.88 81.41 49.33 91.12 53.00 94.00
M 99.00 103.00 
C 99.00 96.00 99.00 89.00 99.00 82.00
C 114.74 75.73 114.77 109.26 99.00 103.00
M 128.00 103.00 
C 128.00 96.00 128.00 89.00 128.00 82.00
C 132.88 83.64 132.94 101.35 128.00 103.00
M 41.00 113.00 
C 41.06 112.87 42.84 111.82 43.00 112.00
C 46.91 111.13 47.43 115.10 47.00 118.00
C 43.85 118.82 46.17 114.51 44.00 114.00
C 44.34 115.12 44.32 117.59 43.00 118.00
C 42.54 118.14 42.00 118.00 42.00 118.00
C 40.57 117.80 39.46 116.42 38.00 118.00
C 37.41 115.09 39.59 112.94 39.00 110.00
C 41.03 109.36 41.06 111.69 41.00 113.00
M 53.00 112.00 
C 55.07 113.51 57.39 113.55 56.00 118.00
C 54.04 114.00 55.03 114.20 53.00 118.00
C 52.07 118.59 50.54 118.86 50.00 118.00
C 49.02 116.45 49.93 110.99 51.00 110.00
C 51.85 110.64 52.09 111.34 53.00 112.00
M 59.00 113.00 
C 59.04 113.14 60.00 113.00 60.00 113.00
C 62.16 111.04 62.87 112.55 63.00 115.00
C 63.06 116.10 63.34 117.61 62.00 118.00
C 61.54 118.13 60.50 118.00 60.00 118.00
C 59.50 118.00 59.00 118.00 59.00 118.00
C 55.40 117.47 57.63 112.75 57.00 110.00
C 58.29 110.44 59.21 111.58 59.00 113.00
M 79.00 118.00 
C 78.52 118.09 78.00 118.00 78.00 118.00
C 77.65 117.97 77.10 117.35 77.00 117.00
C 77.03 117.04 75.15 117.97 75.00 118.00
C 72.14 118.53 72.34 117.19 72.00 115.00
C 71.95 114.65 71.11 114.26 71.00 114.00
C 70.77 114.91 69.85 117.28 69.00 118.00
C 69.45 116.01 67.64 111.77 71.00 112.00
C 72.48 110.72 74.81 113.25 76.00 113.00
C 76.27 110.45 76.71 111.58 78.00 112.00
C 78.45 112.15 79.53 111.88 80.00 112.00
C 82.95 112.79 85.23 112.89 87.00 110.00
C 88.67 113.97 85.19 122.07 83.00 115.00
C 81.74 116.24 81.89 118.91 79.00 118.00
M 92.00 111.00 
C 92.23 110.91 94.66 112.79 96.00 110.00
C 95.44 112.52 97.19 116.30 95.00 118.00
C 94.05 115.15 92.15 116.41 91.00 118.00
C 88.28 114.38 90.52 111.60 92.00 111.00
M 106.00 110.00 
C 105.84 112.74 110.38 114.38 107.00 118.00
C 104.70 118.15 105.68 115.48 104.00 114.00
C 103.74 120.17 94.24 118.95 97.00 112.00
C 100.21 112.56 103.95 112.94 106.00 110.00
M 116.00 112.00 
C 117.68 111.94 115.84 110.89 119.00 112.00
C 118.97 111.99 122.51 112.98 122.00 113.00
C 122.72 112.96 123.22 112.13 124.00 112.00
C 124.97 111.84 126.02 112.13 127.00 112.00
C 126.44 114.52 128.19 118.30 126.00 120.00
C 125.04 120.96 120.28 118.24 118.00 118.00
C 114.94 117.67 109.21 119.60 109.03 114.97 C 108.84 110.34 115.04 112.03 116.00 112.00
M 134.00 115.00 
C 134.01 115.07 135.00 115.00 135.00 115.00
C 135.36 112.84 136.46 111.49 139.00 112.00
C 138.44 114.52 140.19 118.30 138.00 120.00
C 135.86 122.14 135.67 118.89 134.00 118.00
C 132.46 117.18 131.53 116.87 130.00 118.00
C 129.41 115.09 131.59 112.94 131.00 110.00
C 133.52 109.70 133.35 113.30 134.00 115.00
M 68.00 112.00 
C 68.99 114.36 67.82 122.71 64.77 120.21 C 61.72 117.71 63.89 110.11 68.00 112.00
M 143.00 115.00 
C 143.05 115.92 143.36 117.83 142.00 118.00
C 139.05 119.18 138.77 109.77 143.00 112.00
C 143.00 113.00 143.00 114.00 143.00 115.00
M 148.00 118.00 
C 143.92 118.38 143.53 116.02 144.00 112.00
C 147.88 110.99 148.46 115.21 148.00 118.00
M 157.00 112.00 
C 156.47 114.72 156.37 119.58 153.00 120.00
C 155.06 117.79 153.38 113.08 150.00 114.00
C 150.60 115.99 153.64 118.39 149.00 118.00
C 147.16 111.32 153.07 112.34 157.00 112.00 Z"/>
</g>
<g fill="#F9E5E1" fill-opacity="1.00" stroke="None">
<path d="
M 45.00 87.00 
C 46.27 79.60 35.27 79.31 35.00 86.00 C 34.74 92.68 42.54 93.40 42.00 100.00
C 38.17 101.27 37.64 94.49 34.00 98.00
C 34.89 108.47 49.33 102.08 45.30 95.70 C 41.28 89.31 33.98 83.86 45.00 87.00 Z"/>
</g>
<g fill="#FAEBE9" fill-opacity="1.00" stroke="None">
<path d="
M 69.00 85.00 
C 67.98 87.79 68.14 97.14 69.00 100.00
C 71.08 104.44 75.00 106.79 79.67 100.67 C 84.34 94.55 76.39 71.60 69.00 85.00
M 73.00 99.00 
C 71.12 97.12 71.17 87.83 73.00 86.00
C 73.67 84.85 74.72 85.03 76.00 85.00
C 76.00 90.00 76.00 95.00 76.00 100.00
C 75.00 99.89 73.27 100.47 73.00 99.00 Z"/>
</g>
<g fill="#E98081" fill-opacity="1.00" stroke="None">
<path d="
M 90.00 96.00 
C 89.21 94.97 88.70 93.58 87.00 94.00
C 87.00 97.00 87.00 100.00 87.00 103.00
C 80.51 100.70 85.64 88.34 84.00 82.00
C 86.67 82.00 89.33 82.00 92.00 82.00
C 87.01 79.25 80.97 82.20 83.00 88.00 C 85.03 93.80 79.53 99.71 84.32 103.66 C 89.11 107.62 86.34 93.16 90.00 96.00 Z"/>
</g>
<g fill="#E98383" fill-opacity="1.00" stroke="None">
<path d="
M 118.00 85.00 
C 115.12 87.51 118.06 92.59 122.00 91.00
C 118.15 93.06 115.54 97.02 117.00 103.00
C 110.51 100.70 115.64 88.34 114.00 82.00
C 117.33 82.00 120.67 82.00 124.00 82.00
C 112.84 77.99 113.39 83.91 113.00 94.00 C 112.61 104.09 119.02 107.00 118.00 94.00
C 121.02 94.54 124.24 93.78 123.00 90.00
C 119.15 90.97 116.90 88.89 118.00 85.00 Z"/>
</g>
<g fill="#FAE9E6" fill-opacity="1.00" stroke="None">
<path d="
M 145.00 87.00 
C 146.41 79.72 135.92 79.62 135.00 86.00 C 134.08 92.37 143.04 93.64 142.00 100.00
C 138.68 101.31 138.52 96.84 136.00 97.00
C 132.19 103.92 144.24 106.35 145.67 99.67 C 147.10 92.99 139.67 91.65 138.00 86.00
C 141.05 83.19 142.03 87.69 145.00 87.00 Z"/>
</g>
<g fill="#EF9D9C" fill-opacity="1.00" stroke="None">
<path d="
M 149.00 82.00 
C 150.00 82.00 151.00 82.00 152.00 82.00
C 148.95 92.63 160.04 92.63 157.00 82.00
C 158.00 82.00 159.00 82.00 160.00 82.00
C 153.24 77.56 158.98 91.63 153.00 90.00
C 154.73 87.99 151.86 77.42 149.00 82.00 Z"/>
</g>
<g fill="#FBEBE8" fill-opacity="1.00" stroke="None">
<path d="
M 53.00 94.00 
C 49.33 91.12 53.88 81.41 47.00 82.00
C 49.52 88.29 47.47 94.37 50.23 100.77 C 53.00 107.16 57.86 93.76 56.00 90.00
C 58.32 93.53 57.91 98.78 59.00 103.00
C 66.47 100.90 63.70 88.51 66.00 82.00
C 59.97 81.61 63.05 90.22 60.00 93.00
C 58.53 89.44 60.61 81.70 55.00 82.00
C 54.43 86.04 53.57 89.99 53.00 94.00 Z"/>
</g>
<g fill="#FBF3F0" fill-opacity="1.00" stroke="None">
<path d="
M 90.00 96.00 
C 90.91 98.63 91.00 103.79 95.00 103.00
C 90.05 96.90 99.53 86.15 92.00 82.00
C 89.33 82.00 86.67 82.00 84.00 82.00
C 85.64 88.34 80.51 100.70 87.00 103.00
C 87.00 100.00 87.00 97.00 87.00 94.00
C 88.70 93.58 89.21 94.97 90.00 96.00
M 91.00 90.00 
C 90.41 91.80 88.73 92.20 87.00 92.00
C 87.52 89.81 85.86 86.38 88.00 85.00
C 91.06 83.51 91.62 88.12 91.00 90.00 Z"/>
</g>
<g fill="#FBF7F4" fill-opacity="1.00" stroke="None">
<path d="
M 99.00 103.00 
C 114.77 109.26 114.74 75.73 99.00 82.00
C 99.00 89.00 99.00 96.00 99.00 103.00
M 106.00 86.00 
C 106.19 86.41 106.00 87.00 106.00 87.00
C 107.85 89.50 107.46 95.52 106.00 98.00
C 105.34 99.12 105.33 100.87 103.00 100.00
C 99.58 98.73 103.49 86.81 102.00 84.00
C 103.57 83.70 105.61 84.25 106.00 86.00 Z"/>
</g>
<g fill="#FBF8F5" fill-opacity="1.00" stroke="None">
<path d="
M 118.00 85.00 
C 120.00 85.00 122.00 85.00 124.00 85.00
C 123.69 84.15 124.39 82.81 124.00 82.00
C 120.67 82.00 117.33 82.00 114.00 82.00
C 115.64 88.34 110.51 100.70 117.00 103.00
C 115.54 97.02 118.15 93.06 122.00 91.00
C 118.06 92.59 115.12 87.51 118.00 85.00 Z"/>
</g>
<g fill="#FCFDFB" fill-opacity="1.00" stroke="None">
<path d="
M 128.00 103.00 
C 132.94 101.35 132.88 83.64 128.00 82.00
C 128.00 89.00 128.00 96.00 128.00 103.00 Z"/>
</g>
<g fill="#FCFAF9" fill-opacity="1.00" stroke="None">
<path d="
M 152.00 103.00 
C 148.86 91.27 160.13 91.27 157.00 103.00
C 158.00 103.00 159.00 103.00 160.00 103.00
C 157.64 97.47 163.14 87.04 160.00 82.00
C 159.00 82.00 158.00 82.00 157.00 82.00
C 160.04 92.63 148.95 92.63 152.00 82.00
C 151.00 82.00 150.00 82.00 149.00 82.00
C 149.00 89.00 149.00 96.00 149.00 103.00
C 149.85 102.69 151.19 103.39 152.00 103.00 Z"/>
</g>
<g fill="#EE8D8B" fill-opacity="1.00" stroke="None">
<path d="
M 103.00 100.00 
C 103.00 95.00 103.00 90.00 103.00 85.00
C 104.28 84.47 104.86 85.97 106.00 86.00
C 105.61 84.25 103.57 83.70 102.00 84.00
C 103.49 86.81 99.58 98.73 103.00 100.00 Z"/>
</g>
<g fill="#EB7E81" fill-opacity="1.00" stroke="None">
<path d="
M 69.00 100.00 
C 68.14 97.14 67.98 87.79 69.00 85.00
C 67.11 88.43 67.35 96.47 69.00 100.00 Z"/>
</g>
<g fill="#D6282C" fill-opacity="1.00" stroke="None">
<path d="
M 73.00 86.00 
C 72.25 87.30 72.25 97.70 73.00 99.00
C 73.27 100.47 75.00 99.89 76.00 100.00
C 76.00 95.00 76.00 90.00 76.00 85.00
C 74.72 85.03 73.67 84.85 73.00 86.00 Z"/>
</g>
<g fill="#EF9496" fill-opacity="1.00" stroke="None">
<path d="
M 91.00 90.00 
C 90.64 90.82 88.70 90.94 88.00 91.00
C 88.00 89.00 88.00 87.00 88.00 85.00
C 85.86 86.38 87.52 89.81 87.00 92.00
C 88.73 92.20 90.41 91.80 91.00 90.00 Z"/>
</g>
<g fill="#D82A2F" fill-opacity="1.00" stroke="None">
<path d="
M 91.00 90.00 
C 91.62 88.12 91.06 83.51 88.00 85.00
C 88.00 87.00 88.00 89.00 88.00 91.00
C 88.70 90.94 90.64 90.82 91.00 90.00 Z"/>
</g>
<g fill="#D7292E" fill-opacity="1.00" stroke="None">
<path d="
M 103.00 100.00 
C 105.33 100.87 105.34 99.12 106.00 98.00
C 107.04 95.23 106.00 89.99 106.00 87.00
C 106.00 87.00 106.19 86.41 106.00 86.00
C 104.86 85.97 104.28 84.47 103.00 85.00
C 103.00 90.00 103.00 95.00 103.00 100.00 Z"/>
</g>
<g fill="#EA8482" fill-opacity="1.00" stroke="None">
<path d="
M 73.00 99.00 
C 72.25 97.70 72.25 87.30 73.00 86.00
C 71.17 87.83 71.12 97.12 73.00 99.00 Z"/>
</g>
<g fill="#F0A9A9" fill-opacity="1.00" stroke="None">
<path d="
M 106.00 98.00 
C 107.46 95.52 107.85 89.50 106.00 87.00
C 106.00 89.99 107.04 95.23 106.00 98.00 Z"/>
</g>
<g fill="#F2A4A1" fill-opacity="1.00" stroke="None">
<path d="
M 152.00 103.00 
C 155.03 101.09 150.23 92.94 156.00 94.00
C 156.83 96.18 154.49 101.78 157.00 103.00
C 160.13 91.27 148.86 91.27 152.00 103.00 Z"/>
</g>
<g fill="#F5C7C0" fill-opacity="1.00" stroke="None">
<path d="
M 42.00 118.00 
C 41.61 116.31 41.62 114.65 41.00 113.00
C 41.06 111.69 41.03 109.36 39.00 110.00
C 39.59 112.94 37.41 115.09 38.00 118.00
C 39.46 116.42 40.57 117.80 42.00 118.00 Z"/>
</g>
<g fill="#F8DBCE" fill-opacity="1.00" stroke="None">
<path d="
M 50.00 118.00 
C 49.71 117.46 52.29 111.58 51.00 110.00
C 49.93 110.99 49.02 116.45 50.00 118.00 Z"/>
</g>
<g fill="#E86E70" fill-opacity="1.00" stroke="None">
<path d="
M 50.00 118.00 
C 50.54 118.86 52.07 118.59 53.00 118.00
C 52.53 116.17 53.63 113.78 53.00 112.00
C 52.09 111.34 51.85 110.64 51.00 110.00
C 52.29 111.58 49.71 117.46 50.00 118.00 Z"/>
</g>
<g fill="#F5C0B6" fill-opacity="1.00" stroke="None">
<path d="
M 59.00 118.00 
C 57.64 116.61 57.58 114.11 59.00 113.00
C 59.21 111.58 58.29 110.44 57.00 110.00
C 57.63 112.75 55.40 117.47 59.00 118.00 Z"/>
</g>
<g fill="#F5BDB7" fill-opacity="1.00" stroke="None">
<path d="
M 80.00 112.00 
C 80.16 112.43 78.99 116.93 79.00 118.00
C 81.89 118.91 81.74 116.24 83.00 115.00
C 85.19 122.07 88.67 113.97 87.00 110.00
C 85.23 112.89 82.95 112.79 80.00 112.00 Z"/>
</g>
<g fill="#ED7D7C" fill-opacity="1.00" stroke="None">
<path d="
M 91.00 118.00 
C 91.52 115.81 89.86 112.38 92.00 111.00
C 90.52 111.60 88.28 114.38 91.00 118.00 Z"/>
</g>
<g fill="#F6CDC9" fill-opacity="1.00" stroke="None">
<path d="
M 92.00 111.00 
C 89.86 112.38 91.52 115.81 91.00 118.00
C 92.15 116.41 94.05 115.15 95.00 118.00
C 97.19 116.30 95.44 112.52 96.00 110.00
C 94.66 112.79 92.23 110.91 92.00 111.00 Z"/>
</g>
<g fill="#F3B7B3" fill-opacity="1.00" stroke="None">
<path d="
M 106.00 110.00 
C 103.95 112.94 100.21 112.56 97.00 112.00
C 94.24 118.95 103.74 120.17 104.00 114.00
C 105.68 115.48 104.70 118.15 107.00 118.00
C 110.38 114.38 105.84 112.74 106.00 110.00 Z"/>
</g>
<g fill="#F1A7A5" fill-opacity="1.00" stroke="None">
<path d="
M 118.00 118.00 
C 118.71 115.12 117.72 113.70 116.00 112.00
C 115.04 112.03 108.84 110.34 109.03 114.97 C 109.21 119.60 114.94 117.67 118.00 118.00 Z"/>
</g>
<g fill="#E56464" fill-opacity="1.00" stroke="None">
<path d="
M 116.00 112.00 
C 117.72 113.70 118.71 115.12 118.00 118.00
C 120.28 118.24 125.04 120.96 126.00 120.00
C 121.93 121.78 124.07 112.11 124.00 112.00
C 123.22 112.13 122.72 112.96 122.00 113.00
C 121.44 114.45 122.43 116.50 122.00 118.00
C 120.04 114.00 121.03 114.20 119.00 118.00
C 119.00 116.00 119.00 114.00 119.00 112.00
C 115.84 110.89 117.68 111.94 116.00 112.00 Z"/>
</g>
<g fill="#F4C2BF" fill-opacity="1.00" stroke="None">
<path d="
M 134.00 118.00 
C 133.93 117.73 133.82 115.17 134.00 115.00
C 133.35 113.30 133.52 109.70 131.00 110.00
C 131.59 112.94 129.41 115.09 130.00 118.00
C 131.53 116.87 132.46 117.18 134.00 118.00 Z"/>
</g>
<g fill="#F7CCCC" fill-opacity="1.00" stroke="None">
<path d="
M 76.00 113.00 
C 75.96 113.38 76.84 116.46 77.00 117.00
C 77.10 117.35 77.65 117.97 78.00 118.00
C 77.83 117.18 77.51 112.58 78.00 112.00
C 76.71 111.58 76.27 110.45 76.00 113.00 Z"/>
</g>
<g fill="#E56C6B" fill-opacity="1.00" stroke="None">
<path d="
M 41.00 113.00 
C 41.62 114.65 41.61 116.31 42.00 118.00
C 42.00 118.00 42.54 118.14 43.00 118.00
C 43.45 116.69 43.00 114.39 43.00 113.00
C 43.00 112.50 43.00 112.00 43.00 112.00
C 42.84 111.82 41.06 112.87 41.00 113.00 Z"/>
</g>
<g fill="#F3ADA9" fill-opacity="1.00" stroke="None">
<path d="
M 43.00 113.00 
C 43.12 113.26 43.87 113.65 44.00 114.00
C 46.17 114.51 43.85 118.82 47.00 118.00
C 47.43 115.10 46.91 111.13 43.00 112.00
C 43.00 112.00 43.00 112.50 43.00 113.00 Z"/>
</g>
<g fill="#F6C7C4" fill-opacity="1.00" stroke="None">
<path d="
M 53.00 118.00 
C 55.03 114.20 54.04 114.00 56.00 118.00
C 57.39 113.55 55.07 113.51 53.00 112.00
C 53.63 113.78 52.53 116.17 53.00 118.00 Z"/>
</g>
<g fill="#F5D0C8" fill-opacity="1.00" stroke="None">
<path d="
M 60.00 113.00 
C 60.31 113.90 60.31 117.10 60.00 118.00
C 60.50 118.00 61.54 118.13 62.00 118.00
C 61.95 116.56 60.10 114.77 61.00 113.00
C 62.26 113.08 61.56 115.06 63.00 115.00
C 62.87 112.55 62.16 111.04 60.00 113.00 Z"/>
</g>
<g fill="#F3AFAC" fill-opacity="1.00" stroke="None">
<path d="
M 68.00 112.00 
C 63.89 110.11 61.72 117.71 64.77 120.21 C 67.82 122.71 68.99 114.36 68.00 112.00 Z"/>
</g>
<g fill="#F7CCCF" fill-opacity="1.00" stroke="None">
<path d="
M 71.00 114.00 
C 70.82 113.58 70.75 112.21 71.00 112.00
C 67.64 111.77 69.45 116.01 69.00 118.00
C 69.85 117.28 70.77 114.91 71.00 114.00 Z"/>
</g>
<g fill="#F09493" fill-opacity="1.00" stroke="None">
<path d="
M 71.00 114.00 
C 71.11 114.26 71.95 114.65 72.00 115.00
C 73.42 114.41 73.91 114.22 75.00 113.00
C 75.00 114.67 75.00 116.33 75.00 118.00
C 75.15 117.97 77.03 117.04 77.00 117.00
C 76.84 116.46 75.96 113.38 76.00 113.00
C 74.81 113.25 72.48 110.72 71.00 112.00
C 70.75 112.21 70.82 113.58 71.00 114.00 Z"/>
</g>
<g fill="#E56363" fill-opacity="1.00" stroke="None">
<path d="
M 78.00 118.00 
C 78.00 118.00 78.52 118.09 79.00 118.00
C 78.99 116.93 80.16 112.43 80.00 112.00
C 79.53 111.88 78.45 112.15 78.00 112.00
C 77.51 112.58 77.83 117.18 78.00 118.00 Z"/>
</g>
<g fill="#F6CFCA" fill-opacity="1.00" stroke="None">
<path d="
M 122.00 113.00 
C 122.51 112.98 118.97 111.99 119.00 112.00
C 119.00 114.00 119.00 116.00 119.00 118.00
C 121.03 114.20 120.04 114.00 122.00 118.00
C 122.43 116.50 121.44 114.45 122.00 113.00 Z"/>
</g>
<g fill="#F6BCBA" fill-opacity="1.00" stroke="None">
<path d="
M 126.00 120.00 
C 128.19 118.30 126.44 114.52 127.00 112.00
C 126.02 112.13 124.97 111.84 124.00 112.00
C 124.07 112.11 121.93 121.78 126.00 120.00 Z"/>
</g>
<g fill="#F4C1BE" fill-opacity="1.00" stroke="None">
<path d="
M 135.00 115.00 
C 136.59 118.20 136.57 119.01 138.00 120.00
C 140.19 118.30 138.44 114.52 139.00 112.00
C 136.46 111.49 135.36 112.84 135.00 115.00 Z"/>
</g>
<g fill="#F7D3CC" fill-opacity="1.00" stroke="None">
<path d="
M 142.00 118.00 
C 140.99 118.13 140.86 113.53 141.00 113.00
C 142.26 113.08 141.56 115.06 143.00 115.00
C 143.00 114.00 143.00 113.00 143.00 112.00
C 138.77 109.77 139.05 119.18 142.00 118.00 Z"/>
</g>
<g fill="#F4B7B4" fill-opacity="1.00" stroke="None">
<path d="
M 148.00 118.00 
C 148.46 115.21 147.88 110.99 144.00 112.00
C 143.53 116.02 143.92 118.38 148.00 118.00 Z"/>
</g>
<g fill="#F2B9B7" fill-opacity="1.00" stroke="None">
<path d="
M 157.00 112.00 
C 153.07 112.34 147.16 111.32 149.00 118.00
C 153.64 118.39 150.60 115.99 150.00 114.00
C 153.38 113.08 155.06 117.79 153.00 120.00
C 156.37 119.58 156.47 114.72 157.00 112.00 Z"/>
</g>
<g fill="#FAE6E5" fill-opacity="1.00" stroke="None">
<path d="
M 43.00 118.00 
C 44.32 117.59 44.34 115.12 44.00 114.00
C 43.87 113.65 43.12 113.26 43.00 113.00
C 43.00 114.39 43.45 116.69 43.00 118.00 Z"/>
</g>
<g fill="#E78183" fill-opacity="1.00" stroke="None">
<path d="
M 59.00 118.00 
C 59.00 118.00 59.50 118.00 60.00 118.00
C 60.31 117.10 60.31 113.90 60.00 113.00
C 60.00 113.00 59.04 113.14 59.00 113.00
C 57.58 114.11 57.64 116.61 59.00 118.00 Z"/>
</g>
<g fill="#F2A2A4" fill-opacity="1.00" stroke="None">
<path d="
M 62.00 118.00 
C 63.34 117.61 63.06 116.10 63.00 115.00
C 61.56 115.06 62.26 113.08 61.00 113.00
C 60.10 114.77 61.95 116.56 62.00 118.00 Z"/>
</g>
<g fill="#F6D3CD" fill-opacity="1.00" stroke="None">
<path d="
M 72.00 115.00 
C 72.34 117.19 72.14 118.53 75.00 118.00
C 75.00 116.33 75.00 114.67 75.00 113.00
C 73.91 114.22 73.42 114.41 72.00 115.00 Z"/>
</g>
<g fill="#F1A6AE" fill-opacity="1.00" stroke="None">
<path d="
M 142.00 118.00 
C 143.36 117.83 143.05 115.92 143.00 115.00
C 141.56 115.06 142.26 113.08 141.00 113.00
C 140.86 113.53 140.99 118.13 142.00 118.00 Z"/>
</g>
<g fill="#EC7676" fill-opacity="1.00" stroke="None">
<path d="
M 134.00 118.00 
C 135.67 118.89 135.86 122.14 138.00 120.00
C 136.57 119.01 136.59 118.20 135.00 115.00
C 135.00 115.00 134.01 115.07 134.00 115.00
C 133.82 115.17 133.93 117.73 134.00 118.00 Z"/>
</g>
<g fill="#FEFEFE" fill-opacity="1.00" stroke="None">
<path d="
M 0.00 200.00 
L 200.00 200.00
L 200.00 154.00
C 133.33 154.00 66.67 154.00 0.00 154.00
L 0.00 200.00 Z"/>
</g>
</svg>