<svg version="1.1" id="Layer_1" xmlns="http://www.w3.org/2000/svg" xmlns:xlink="http://www.w3.org/1999/xlink" x="0px" y="0px"
	 width="100%" viewBox="0 0 225 225" enable-background="new 0 0 225 225" xml:space="preserve">
<path fill="#000000" opacity="1.000000" stroke="none" 
	d="
M135.000000,226.000000 
	C90.000000,226.000000 45.500004,226.000000 1.000006,226.000000 
	C1.000004,151.000000 1.000004,76.000015 1.000002,1.000016 
	C75.999992,1.000011 150.999985,1.000011 225.999969,1.000005 
	C225.999985,75.999985 225.999985,150.999969 226.000000,225.999969 
	C195.833328,226.000000 165.666672,226.000000 135.000000,226.000000 
M131.685104,109.286575 
	C134.358963,108.540092 137.298843,106.784401 139.614975,107.394966 
	C141.211319,107.815758 142.766846,111.462097 142.908524,113.755363 
	C143.335602,120.668182 143.062622,127.624268 143.062622,134.575226 
	C145.873215,134.575226 148.087891,134.575226 150.647400,134.575226 
	C150.647400,128.110031 150.516495,121.969688 150.683594,115.837463 
	C150.856430,109.495003 153.352936,106.629585 158.150909,106.753304 
	C162.518875,106.865921 164.022644,109.139687 164.047867,115.783913 
	C164.071701,122.058929 164.052979,128.334106 164.052979,134.751465 
	C166.740906,134.751465 168.857803,134.751465 171.185181,134.751465 
	C171.185181,126.481049 171.576019,118.333702 171.064987,110.243324 
	C170.634506,103.428108 166.065460,99.514481 159.371017,100.226151 
	C155.731552,100.613052 152.286926,102.832558 148.448929,104.345924 
	C143.076859,98.713234 139.909897,98.362221 130.951462,101.692009 
	C128.197449,101.232353 125.443451,100.772705 122.465385,100.275658 
	C122.465385,112.293083 122.465385,123.496666 122.465385,134.721985 
	C124.930725,134.721985 127.053177,134.721985 129.728806,134.721985 
	C129.728806,131.095383 129.546539,127.631119 129.772949,124.193771 
	C130.085983,119.441513 130.706833,114.709526 131.685104,109.286575 
M94.922234,99.505142 
	C94.922234,95.558296 94.922234,91.611450 94.922234,87.473793 
	C92.274040,87.473793 90.167625,87.473793 87.885742,87.473793 
	C87.885742,103.278679 87.885742,118.975677 87.885742,134.636871 
	C90.352119,134.636871 92.448158,134.636871 94.638771,134.636871 
	C94.890678,130.952057 95.125496,127.517075 95.360321,124.082085 
	C95.941284,123.810333 96.522247,123.538574 97.103218,123.266815 
	C99.739243,126.222343 102.529427,129.056641 104.972992,132.163528 
	C108.155731,136.210266 112.190224,134.632828 115.991051,134.786942 
	C116.254684,134.389496 116.518311,133.992035 116.781937,133.594589 
	C112.494324,129.768677 108.206711,125.942780 104.035820,122.221024 
	C108.973793,114.708664 113.454018,107.892700 117.949730,101.053162 
	C112.354149,99.331680 109.205376,101.430725 106.987976,105.867477 
	C105.733734,108.377060 104.104202,110.747162 102.339958,112.935173 
	C101.331642,114.185692 99.713669,114.944633 98.370186,115.924896 
	C97.220963,114.112274 95.405525,112.413254 95.072708,110.461418 
	C94.520721,107.224365 94.922333,103.824715 94.922234,99.505142 
M56.218124,100.616547 
	C51.104507,101.378601 54.527340,104.597420 53.861279,107.476868 
	C59.925175,107.476868 65.413208,107.476868 72.067810,107.476868 
	C66.511307,114.203842 61.570835,119.778000 57.151138,125.738327 
	C55.410892,128.085205 54.833458,131.294327 53.492104,134.707214 
	C63.344391,134.707214 71.589783,134.707214 79.953827,134.707214 
	C79.953827,132.631714 79.953827,130.749939 79.953827,128.218384 
	C74.791916,128.218384 69.959625,128.218384 63.681038,128.218384 
	C69.360222,121.282875 74.351845,115.611519 78.798012,109.540680 
	C80.489418,107.231224 80.927528,104.003876 82.144608,100.616646 
	C72.709976,100.616646 64.899979,100.616646 56.218124,100.616547 
z"/>
<path fill="#F2F2F2" opacity="1.000000" stroke="none" 
	d="
M131.440475,109.627716 
	C130.706833,114.709526 130.085983,119.441513 129.772949,124.193771 
	C129.546539,127.631119 129.728806,131.095383 129.728806,134.721985 
	C127.053177,134.721985 124.930725,134.721985 122.465385,134.721985 
	C122.465385,123.496666 122.465385,112.293083 122.465385,100.275658 
	C125.443451,100.772705 128.197449,101.232353 130.951462,101.692009 
	C139.909897,98.362221 143.076859,98.713234 148.448929,104.345924 
	C152.286926,102.832558 155.731552,100.613052 159.371017,100.226151 
	C166.065460,99.514481 170.634506,103.428108 171.064987,110.243324 
	C171.576019,118.333702 171.185181,126.481049 171.185181,134.751465 
	C168.857803,134.751465 166.740906,134.751465 164.052979,134.751465 
	C164.052979,128.334106 164.071701,122.058929 164.047867,115.783913 
	C164.022644,109.139687 162.518875,106.865921 158.150909,106.753304 
	C153.352936,106.629585 150.856430,109.495003 150.683594,115.837463 
	C150.516495,121.969688 150.647400,128.110031 150.647400,134.575226 
	C148.087891,134.575226 145.873215,134.575226 143.062622,134.575226 
	C143.062622,127.624268 143.335602,120.668182 142.908524,113.755363 
	C142.766846,111.462097 141.211319,107.815758 139.614975,107.394966 
	C137.298843,106.784401 134.358963,108.540092 131.440475,109.627716 
z"/>
<path fill="#F6F6F6" opacity="1.000000" stroke="none" 
	d="
M94.922234,99.999344 
	C94.922333,103.824715 94.520721,107.224365 95.072708,110.461418 
	C95.405525,112.413254 97.220963,114.112274 98.370186,115.924896 
	C99.713669,114.944633 101.331642,114.185692 102.339958,112.935173 
	C104.104202,110.747162 105.733734,108.377060 106.987976,105.867477 
	C109.205376,101.430725 112.354149,99.331680 117.949730,101.053162 
	C113.454018,107.892700 108.973793,114.708664 104.035820,122.221024 
	C108.206711,125.942780 112.494324,129.768677 116.781937,133.594589 
	C116.518311,133.992035 116.254684,134.389496 115.991051,134.786942 
	C112.190224,134.632828 108.155731,136.210266 104.972992,132.163528 
	C102.529427,129.056641 99.739243,126.222343 97.103218,123.266815 
	C96.522247,123.538574 95.941284,123.810333 95.360321,124.082085 
	C95.125496,127.517075 94.890678,130.952057 94.638771,134.636871 
	C92.448158,134.636871 90.352119,134.636871 87.885742,134.636871 
	C87.885742,118.975677 87.885742,103.278679 87.885742,87.473793 
	C90.167625,87.473793 92.274040,87.473793 94.922234,87.473793 
	C94.922234,91.611450 94.922234,95.558296 94.922234,99.999344 
z"/>
<path fill="#F7F7F7" opacity="1.000000" stroke="none" 
	d="
M56.654057,100.616592 
	C64.899979,100.616646 72.709976,100.616646 82.144608,100.616646 
	C80.927528,104.003876 80.489418,107.231224 78.798012,109.540680 
	C74.351845,115.611519 69.360222,121.282875 63.681038,128.218384 
	C69.959625,128.218384 74.791916,128.218384 79.953827,128.218384 
	C79.953827,130.749939 79.953827,132.631714 79.953827,134.707214 
	C71.589783,134.707214 63.344391,134.707214 53.492104,134.707214 
	C54.833458,131.294327 55.410892,128.085205 57.151138,125.738327 
	C61.570835,119.778000 66.511307,114.203842 72.067810,107.476868 
	C65.413208,107.476868 59.925175,107.476868 53.861279,107.476868 
	C54.527340,104.597420 51.104507,101.378601 56.654057,100.616592 
z"/>
</svg>